<?xml version="1.0" encoding="UTF-8" standalone="no"?>
<!DOCTYPE svg PUBLIC "-//W3C//DTD SVG 1.1//EN"
 "http://www.w3.org/Graphics/SVG/1.1/DTD/svg11.dtd">
<!-- Generated by graphviz version 2.38.0 (20140413.2041)
 -->
<!-- Title: /Users/rakesh/svn/customer/qsense/desktop/src/api/ByteOrder.h Pages: 1 -->
<svg width="148pt" height="162pt"
 viewBox="0.00 0.00 148.00 162.00" xmlns="http://www.w3.org/2000/svg" xmlns:xlink="http://www.w3.org/1999/xlink">
<g id="graph0" class="graph" transform="scale(1 1) rotate(0) translate(4 158)">
<title>/Users/rakesh/svn/customer/qsense/desktop/src/api/ByteOrder.h</title>
<polygon fill="white" stroke="none" points="-4,4 -4,-158 144,-158 144,4 -4,4"/>
<!-- Node1 -->
<g id="node1" class="node"><title>Node1</title>
<polygon fill="#bfbfbf" stroke="black" points="0,-112.5 0,-153.5 140,-153.5 140,-112.5 0,-112.5"/>
<text text-anchor="start" x="8" y="-141.5" font-family="Helvetica,sans-Serif" font-size="10.00">/Users/rakesh/svn/customer</text>
<text text-anchor="start" x="8" y="-130.5" font-family="Helvetica,sans-Serif" font-size="10.00">/qsense/desktop/src/api</text>
<text text-anchor="middle" x="70" y="-119.5" font-family="Helvetica,sans-Serif" font-size="10.00">/ByteOrder.h</text>
</g>
<!-- Node2 -->
<g id="node2" class="node"><title>Node2</title>
<g id="a_node2"><a xlink:href="_q_sense_8h.xhtml" target="_top" xlink:title="QSense.h">
<polygon fill="white" stroke="black" points="39.5,-56.5 39.5,-75.5 100.5,-75.5 100.5,-56.5 39.5,-56.5"/>
<text text-anchor="middle" x="70" y="-63.5" font-family="Helvetica,sans-Serif" font-size="10.00">QSense.h</text>
</a>
</g>
</g>
<!-- Node1&#45;&gt;Node2 -->
<g id="edge1" class="edge"><title>Node1&#45;&gt;Node2</title>
<path fill="none" stroke="midnightblue" d="M70,-112.498C70,-104.065 70,-94.2351 70,-85.874"/>
<polygon fill="midnightblue" stroke="midnightblue" points="73.5001,-85.6525 70,-75.6525 66.5001,-85.6525 73.5001,-85.6525"/>
</g>
<!-- Node3 -->
<g id="node3" class="node"><title>Node3</title>
<polygon fill="white" stroke="#bfbfbf" points="49.5,-0.5 49.5,-19.5 90.5,-19.5 90.5,-0.5 49.5,-0.5"/>
<text text-anchor="middle" x="70" y="-7.5" font-family="Helvetica,sans-Serif" font-size="10.00">string</text>
</g>
<!-- Node2&#45;&gt;Node3 -->
<g id="edge2" class="edge"><title>Node2&#45;&gt;Node3</title>
<path fill="none" stroke="midnightblue" d="M70,-56.083C70,-49.0059 70,-38.8611 70,-29.9865"/>
<polygon fill="midnightblue" stroke="midnightblue" points="73.5001,-29.751 70,-19.7511 66.5001,-29.7511 73.5001,-29.751"/>
</g>
</g>
</svg>
