<?xml version="1.0" encoding="UTF-8" standalone="no"?>
<!DOCTYPE svg PUBLIC "-//W3C//DTD SVG 1.1//EN"
 "http://www.w3.org/Graphics/SVG/1.1/DTD/svg11.dtd">
<!-- Generated by graphviz version 2.38.0 (20140413.2041)
 -->
<!-- Title: /Users/rakesh/svn/customer/qsense/desktop/src/api/Event.h Pages: 1 -->
<svg width="253pt" height="274pt"
 viewBox="0.00 0.00 253.04 274.00" xmlns="http://www.w3.org/2000/svg" xmlns:xlink="http://www.w3.org/1999/xlink">
<g id="graph0" class="graph" transform="scale(1 1) rotate(0) translate(4 270)">
<title>/Users/rakesh/svn/customer/qsense/desktop/src/api/Event.h</title>
<polygon fill="white" stroke="none" points="-4,4 -4,-270 249.037,-270 249.037,4 -4,4"/>
<!-- Node1 -->
<g id="node1" class="node"><title>Node1</title>
<polygon fill="#bfbfbf" stroke="black" points="16.5367,-224.5 16.5367,-265.5 156.537,-265.5 156.537,-224.5 16.5367,-224.5"/>
<text text-anchor="start" x="24.5367" y="-253.5" font-family="Helvetica,sans-Serif" font-size="10.00">/Users/rakesh/svn/customer</text>
<text text-anchor="start" x="24.5367" y="-242.5" font-family="Helvetica,sans-Serif" font-size="10.00">/qsense/desktop/src/api</text>
<text text-anchor="middle" x="86.5367" y="-231.5" font-family="Helvetica,sans-Serif" font-size="10.00">/Event.h</text>
</g>
<!-- Node2 -->
<g id="node2" class="node"><title>Node2</title>
<g id="a_node2"><a xlink:href="_q_sense_8h.xhtml" target="_top" xlink:title="QSense.h">
<polygon fill="white" stroke="black" points="43.0367,-56.5 43.0367,-75.5 104.037,-75.5 104.037,-56.5 43.0367,-56.5"/>
<text text-anchor="middle" x="73.5367" y="-63.5" font-family="Helvetica,sans-Serif" font-size="10.00">QSense.h</text>
</a>
</g>
</g>
<!-- Node1&#45;&gt;Node2 -->
<g id="edge1" class="edge"><title>Node1&#45;&gt;Node2</title>
<path fill="none" stroke="midnightblue" d="M42.6581,-224.352C28.1386,-215.471 13.6348,-203.444 5.53672,-188 -14.6585,-149.486 27.4133,-105.141 53.9973,-82.326"/>
<polygon fill="midnightblue" stroke="midnightblue" points="56.5167,-84.784 61.9857,-75.7098 52.0517,-79.3929 56.5167,-84.784"/>
</g>
<!-- Node4 -->
<g id="node4" class="node"><title>Node4</title>
<g id="a_node4"><a xlink:href="_location_8h.xhtml" target="_top" xlink:title="Location.h">
<polygon fill="white" stroke="black" points="15.0367,-168.5 15.0367,-187.5 78.0367,-187.5 78.0367,-168.5 15.0367,-168.5"/>
<text text-anchor="middle" x="46.5367" y="-175.5" font-family="Helvetica,sans-Serif" font-size="10.00">Location.h</text>
</a>
</g>
</g>
<!-- Node1&#45;&gt;Node4 -->
<g id="edge3" class="edge"><title>Node1&#45;&gt;Node4</title>
<path fill="none" stroke="midnightblue" d="M74.5354,-224.498C68.9923,-215.49 62.4678,-204.888 57.1122,-196.185"/>
<polygon fill="midnightblue" stroke="midnightblue" points="60.0832,-194.335 51.8613,-187.652 54.1215,-198.003 60.0832,-194.335"/>
</g>
<!-- Node6 -->
<g id="node6" class="node"><title>Node6</title>
<g id="a_node6"><a xlink:href="_reading_8h.xhtml" target="_top" xlink:title="Reading.h">
<polygon fill="white" stroke="black" points="96.5367,-168.5 96.5367,-187.5 158.537,-187.5 158.537,-168.5 96.5367,-168.5"/>
<text text-anchor="middle" x="127.537" y="-175.5" font-family="Helvetica,sans-Serif" font-size="10.00">Reading.h</text>
</a>
</g>
</g>
<!-- Node1&#45;&gt;Node6 -->
<g id="edge6" class="edge"><title>Node1&#45;&gt;Node6</title>
<path fill="none" stroke="midnightblue" d="M98.8381,-224.498C104.52,-215.49 111.207,-204.888 116.697,-196.185"/>
<polygon fill="midnightblue" stroke="midnightblue" points="119.704,-197.978 122.079,-187.652 113.784,-194.243 119.704,-197.978"/>
</g>
<!-- Node9 -->
<g id="node9" class="node"><title>Node9</title>
<polygon fill="white" stroke="#bfbfbf" points="176.537,-168.5 176.537,-187.5 220.537,-187.5 220.537,-168.5 176.537,-168.5"/>
<text text-anchor="middle" x="198.537" y="-175.5" font-family="Helvetica,sans-Serif" font-size="10.00">vector</text>
</g>
<!-- Node1&#45;&gt;Node9 -->
<g id="edge12" class="edge"><title>Node1&#45;&gt;Node9</title>
<path fill="none" stroke="midnightblue" d="M120.14,-224.498C137.807,-214.245 159.035,-201.925 174.943,-192.693"/>
<polygon fill="midnightblue" stroke="midnightblue" points="176.736,-195.699 183.628,-187.652 173.222,-189.645 176.736,-195.699"/>
</g>
<!-- Node3 -->
<g id="node3" class="node"><title>Node3</title>
<polygon fill="white" stroke="#bfbfbf" points="53.0367,-0.5 53.0367,-19.5 94.0367,-19.5 94.0367,-0.5 53.0367,-0.5"/>
<text text-anchor="middle" x="73.5367" y="-7.5" font-family="Helvetica,sans-Serif" font-size="10.00">string</text>
</g>
<!-- Node2&#45;&gt;Node3 -->
<g id="edge2" class="edge"><title>Node2&#45;&gt;Node3</title>
<path fill="none" stroke="midnightblue" d="M73.5367,-56.083C73.5367,-49.0059 73.5367,-38.8611 73.5367,-29.9865"/>
<polygon fill="midnightblue" stroke="midnightblue" points="77.0368,-29.751 73.5367,-19.7511 70.0368,-29.7511 77.0368,-29.751"/>
</g>
<!-- Node4&#45;&gt;Node2 -->
<g id="edge4" class="edge"><title>Node4&#45;&gt;Node2</title>
<path fill="none" stroke="midnightblue" d="M43.5862,-168.341C39.7348,-155.646 34.1902,-131.386 40.5367,-112 44.0266,-101.34 51.1098,-91.1174 57.8222,-83.1175"/>
<polygon fill="midnightblue" stroke="midnightblue" points="60.4412,-85.4395 64.5169,-75.66 55.2321,-80.7633 60.4412,-85.4395"/>
</g>
<!-- Node5 -->
<g id="node5" class="node"><title>Node5</title>
<polygon fill="white" stroke="#bfbfbf" points="50.0367,-112.5 50.0367,-131.5 103.037,-131.5 103.037,-112.5 50.0367,-112.5"/>
<text text-anchor="middle" x="76.5367" y="-119.5" font-family="Helvetica,sans-Serif" font-size="10.00">ostream</text>
</g>
<!-- Node4&#45;&gt;Node5 -->
<g id="edge5" class="edge"><title>Node4&#45;&gt;Node5</title>
<path fill="none" stroke="midnightblue" d="M51.4906,-168.083C55.6408,-160.613 61.6898,-149.724 66.8035,-140.52"/>
<polygon fill="midnightblue" stroke="midnightblue" points="69.8781,-142.192 71.675,-131.751 63.759,-138.793 69.8781,-142.192"/>
</g>
<!-- Node6&#45;&gt;Node2 -->
<g id="edge7" class="edge"><title>Node6&#45;&gt;Node2</title>
<path fill="none" stroke="midnightblue" d="M126.655,-168.143C125.086,-155.201 121.035,-130.638 111.537,-112 106.105,-101.341 97.7004,-91.0251 90.1755,-82.9656"/>
<polygon fill="midnightblue" stroke="midnightblue" points="92.5844,-80.4232 83.0863,-75.729 87.584,-85.3218 92.5844,-80.4232"/>
</g>
<!-- Node6&#45;&gt;Node5 -->
<g id="edge11" class="edge"><title>Node6&#45;&gt;Node5</title>
<path fill="none" stroke="midnightblue" d="M119.115,-168.083C111.688,-160.22 100.685,-148.569 91.7246,-139.081"/>
<polygon fill="midnightblue" stroke="midnightblue" points="94.2124,-136.618 84.8016,-131.751 89.1233,-141.424 94.2124,-136.618"/>
</g>
<!-- Node7 -->
<g id="node7" class="node"><title>Node7</title>
<g id="a_node7"><a xlink:href="_date_time_8h.xhtml" target="_top" xlink:title="net/DateTime.h">
<polygon fill="white" stroke="black" points="160.037,-112.5 160.037,-131.5 245.037,-131.5 245.037,-112.5 160.037,-112.5"/>
<text text-anchor="middle" x="202.537" y="-119.5" font-family="Helvetica,sans-Serif" font-size="10.00">net/DateTime.h</text>
</a>
</g>
</g>
<!-- Node6&#45;&gt;Node7 -->
<g id="edge8" class="edge"><title>Node6&#45;&gt;Node7</title>
<path fill="none" stroke="midnightblue" d="M139.587,-168.324C151,-160.107 168.368,-147.602 181.972,-137.807"/>
<polygon fill="midnightblue" stroke="midnightblue" points="184.197,-140.517 190.267,-131.834 180.107,-134.837 184.197,-140.517"/>
</g>
<!-- Node7&#45;&gt;Node2 -->
<g id="edge9" class="edge"><title>Node7&#45;&gt;Node2</title>
<path fill="none" stroke="midnightblue" d="M182.096,-112.444C160.866,-103.557 127.438,-89.5632 103.282,-79.4514"/>
<polygon fill="midnightblue" stroke="midnightblue" points="104.457,-76.1493 93.8815,-75.5164 101.754,-82.6064 104.457,-76.1493"/>
</g>
<!-- Node8 -->
<g id="node8" class="node"><title>Node8</title>
<polygon fill="white" stroke="#bfbfbf" points="175.037,-56.5 175.037,-75.5 230.037,-75.5 230.037,-56.5 175.037,-56.5"/>
<text text-anchor="middle" x="202.537" y="-63.5" font-family="Helvetica,sans-Serif" font-size="10.00">iostream</text>
</g>
<!-- Node7&#45;&gt;Node8 -->
<g id="edge10" class="edge"><title>Node7&#45;&gt;Node8</title>
<path fill="none" stroke="midnightblue" d="M202.537,-112.083C202.537,-105.006 202.537,-94.8611 202.537,-85.9865"/>
<polygon fill="midnightblue" stroke="midnightblue" points="206.037,-85.751 202.537,-75.7511 199.037,-85.7511 206.037,-85.751"/>
</g>
</g>
</svg>
