<?xml version="1.0" encoding="UTF-8" standalone="no"?>
<!DOCTYPE svg PUBLIC "-//W3C//DTD SVG 1.1//EN"
 "http://www.w3.org/Graphics/SVG/1.1/DTD/svg11.dtd">
<!-- Generated by graphviz version 2.38.0 (20140413.2041)
 -->
<!-- Title: /Users/rakesh/svn/customer/qsense/desktop/src/api/Event.h Pages: 1 -->
<svg width="284pt" height="274pt"
 viewBox="0.00 0.00 283.90 274.00" xmlns="http://www.w3.org/2000/svg" xmlns:xlink="http://www.w3.org/1999/xlink">
<g id="graph0" class="graph" transform="scale(1 1) rotate(0) translate(4 270)">
<title>/Users/rakesh/svn/customer/qsense/desktop/src/api/Event.h</title>
<polygon fill="white" stroke="none" points="-4,4 -4,-270 279.899,-270 279.899,4 -4,4"/>
<!-- Node1 -->
<g id="node1" class="node"><title>Node1</title>
<polygon fill="#bfbfbf" stroke="black" points="58.899,-224.5 58.899,-265.5 198.899,-265.5 198.899,-224.5 58.899,-224.5"/>
<text text-anchor="start" x="66.899" y="-253.5" font-family="Helvetica,sans-Serif" font-size="10.00">/Users/rakesh/svn/customer</text>
<text text-anchor="start" x="66.899" y="-242.5" font-family="Helvetica,sans-Serif" font-size="10.00">/qsense/desktop/src/api</text>
<text text-anchor="middle" x="128.899" y="-231.5" font-family="Helvetica,sans-Serif" font-size="10.00">/Event.h</text>
</g>
<!-- Node2 -->
<g id="node2" class="node"><title>Node2</title>
<g id="a_node2"><a xlink:href="_q_sense_8h.xhtml" target="_top" xlink:title="QSense.h">
<polygon fill="white" stroke="black" points="47.399,-56.5 47.399,-75.5 108.399,-75.5 108.399,-56.5 47.399,-56.5"/>
<text text-anchor="middle" x="77.899" y="-63.5" font-family="Helvetica,sans-Serif" font-size="10.00">QSense.h</text>
</a>
</g>
</g>
<!-- Node1&#45;&gt;Node2 -->
<g id="edge1" class="edge"><title>Node1&#45;&gt;Node2</title>
<path fill="none" stroke="midnightblue" d="M58.6933,-227.393C38.5238,-219.022 18.7879,-206.539 6.89899,-188 -17.0514,-150.653 29.0292,-105.192 57.6061,-82.0729"/>
<polygon fill="midnightblue" stroke="midnightblue" points="60.0972,-84.5678 65.816,-75.6489 55.7835,-79.0549 60.0972,-84.5678"/>
</g>
<!-- Node5 -->
<g id="node5" class="node"><title>Node5</title>
<g id="a_node5"><a xlink:href="_location_8h.xhtml" target="_top" xlink:title="Location.h">
<polygon fill="white" stroke="black" points="16.399,-168.5 16.399,-187.5 79.399,-187.5 79.399,-168.5 16.399,-168.5"/>
<text text-anchor="middle" x="47.899" y="-175.5" font-family="Helvetica,sans-Serif" font-size="10.00">Location.h</text>
</a>
</g>
</g>
<!-- Node1&#45;&gt;Node5 -->
<g id="edge4" class="edge"><title>Node1&#45;&gt;Node5</title>
<path fill="none" stroke="midnightblue" d="M104.596,-224.498C92.4163,-214.724 77.8963,-203.072 66.5995,-194.007"/>
<polygon fill="midnightblue" stroke="midnightblue" points="68.6712,-191.181 58.6813,-187.652 64.2901,-196.641 68.6712,-191.181"/>
</g>
<!-- Node7 -->
<g id="node7" class="node"><title>Node7</title>
<g id="a_node7"><a xlink:href="_reading_8h.xhtml" target="_top" xlink:title="Reading.h">
<polygon fill="white" stroke="black" points="97.899,-168.5 97.899,-187.5 159.899,-187.5 159.899,-168.5 97.899,-168.5"/>
<text text-anchor="middle" x="128.899" y="-175.5" font-family="Helvetica,sans-Serif" font-size="10.00">Reading.h</text>
</a>
</g>
</g>
<!-- Node1&#45;&gt;Node7 -->
<g id="edge7" class="edge"><title>Node1&#45;&gt;Node7</title>
<path fill="none" stroke="midnightblue" d="M128.899,-224.498C128.899,-216.065 128.899,-206.235 128.899,-197.874"/>
<polygon fill="midnightblue" stroke="midnightblue" points="132.399,-197.652 128.899,-187.652 125.399,-197.653 132.399,-197.652"/>
</g>
<!-- Node9 -->
<g id="node9" class="node"><title>Node9</title>
<polygon fill="white" stroke="#bfbfbf" points="177.899,-168.5 177.899,-187.5 221.899,-187.5 221.899,-168.5 177.899,-168.5"/>
<text text-anchor="middle" x="199.899" y="-175.5" font-family="Helvetica,sans-Serif" font-size="10.00">vector</text>
</g>
<!-- Node1&#45;&gt;Node9 -->
<g id="edge12" class="edge"><title>Node1&#45;&gt;Node9</title>
<path fill="none" stroke="midnightblue" d="M150.201,-224.498C160.668,-214.915 173.107,-203.528 182.921,-194.543"/>
<polygon fill="midnightblue" stroke="midnightblue" points="185.435,-196.987 190.448,-187.652 180.709,-191.824 185.435,-196.987"/>
</g>
<!-- Node10 -->
<g id="node10" class="node"><title>Node10</title>
<polygon fill="white" stroke="#bfbfbf" points="239.899,-168.5 239.899,-187.5 275.899,-187.5 275.899,-168.5 239.899,-168.5"/>
<text text-anchor="middle" x="257.899" y="-175.5" font-family="Helvetica,sans-Serif" font-size="10.00">map</text>
</g>
<!-- Node1&#45;&gt;Node10 -->
<g id="edge13" class="edge"><title>Node1&#45;&gt;Node10</title>
<path fill="none" stroke="midnightblue" d="M167.603,-224.498C188.332,-214.053 213.317,-201.464 231.745,-192.178"/>
<polygon fill="midnightblue" stroke="midnightblue" points="233.372,-195.278 240.727,-187.652 230.222,-189.027 233.372,-195.278"/>
</g>
<!-- Node3 -->
<g id="node3" class="node"><title>Node3</title>
<polygon fill="white" stroke="#bfbfbf" points="25.399,-0.5 25.399,-19.5 70.399,-19.5 70.399,-0.5 25.399,-0.5"/>
<text text-anchor="middle" x="47.899" y="-7.5" font-family="Helvetica,sans-Serif" font-size="10.00">cstdint</text>
</g>
<!-- Node2&#45;&gt;Node3 -->
<g id="edge2" class="edge"><title>Node2&#45;&gt;Node3</title>
<path fill="none" stroke="midnightblue" d="M72.9451,-56.083C68.7949,-48.6127 62.7459,-37.7244 57.6323,-28.5199"/>
<polygon fill="midnightblue" stroke="midnightblue" points="60.6767,-26.7929 52.7607,-19.7511 54.5576,-30.1924 60.6767,-26.7929"/>
</g>
<!-- Node4 -->
<g id="node4" class="node"><title>Node4</title>
<polygon fill="white" stroke="#bfbfbf" points="88.399,-0.5 88.399,-19.5 129.399,-19.5 129.399,-0.5 88.399,-0.5"/>
<text text-anchor="middle" x="108.899" y="-7.5" font-family="Helvetica,sans-Serif" font-size="10.00">string</text>
</g>
<!-- Node2&#45;&gt;Node4 -->
<g id="edge3" class="edge"><title>Node2&#45;&gt;Node4</title>
<path fill="none" stroke="midnightblue" d="M83.018,-56.083C87.3065,-48.6127 93.5572,-37.7244 98.8413,-28.5199"/>
<polygon fill="midnightblue" stroke="midnightblue" points="101.932,-30.1662 103.875,-19.7511 95.8611,-26.6811 101.932,-30.1662"/>
</g>
<!-- Node5&#45;&gt;Node2 -->
<g id="edge5" class="edge"><title>Node5&#45;&gt;Node2</title>
<path fill="none" stroke="midnightblue" d="M44.8412,-168.305C40.8562,-155.564 35.1468,-131.249 41.899,-112 45.6841,-101.209 53.2655,-91.084 60.4988,-83.1808"/>
<polygon fill="midnightblue" stroke="midnightblue" points="63.2246,-85.4005 67.7368,-75.8145 58.2316,-80.4943 63.2246,-85.4005"/>
</g>
<!-- Node6 -->
<g id="node6" class="node"><title>Node6</title>
<polygon fill="white" stroke="#bfbfbf" points="51.399,-112.5 51.399,-131.5 104.399,-131.5 104.399,-112.5 51.399,-112.5"/>
<text text-anchor="middle" x="77.899" y="-119.5" font-family="Helvetica,sans-Serif" font-size="10.00">ostream</text>
</g>
<!-- Node5&#45;&gt;Node6 -->
<g id="edge6" class="edge"><title>Node5&#45;&gt;Node6</title>
<path fill="none" stroke="midnightblue" d="M52.8529,-168.083C57.003,-160.613 63.0521,-149.724 68.1657,-140.52"/>
<polygon fill="midnightblue" stroke="midnightblue" points="71.2404,-142.192 73.0373,-131.751 65.1212,-138.793 71.2404,-142.192"/>
</g>
<!-- Node7&#45;&gt;Node2 -->
<g id="edge8" class="edge"><title>Node7&#45;&gt;Node2</title>
<path fill="none" stroke="midnightblue" d="M127.918,-168.193C126.225,-155.313 122.021,-130.825 112.899,-112 107.838,-101.555 100.07,-91.2372 93.1363,-83.1212"/>
<polygon fill="midnightblue" stroke="midnightblue" points="95.6373,-80.6674 86.3615,-75.5477 90.4201,-85.3344 95.6373,-80.6674"/>
</g>
<!-- Node7&#45;&gt;Node6 -->
<g id="edge11" class="edge"><title>Node7&#45;&gt;Node6</title>
<path fill="none" stroke="midnightblue" d="M120.477,-168.083C113.051,-160.22 102.047,-148.569 93.0868,-139.081"/>
<polygon fill="midnightblue" stroke="midnightblue" points="95.5747,-136.618 86.1639,-131.751 90.4856,-141.424 95.5747,-136.618"/>
</g>
<!-- Node8 -->
<g id="node8" class="node"><title>Node8</title>
<g id="a_node8"><a xlink:href="_date_time_8h.xhtml" target="_top" xlink:title="net/DateTime.h">
<polygon fill="white" stroke="black" points="161.399,-112.5 161.399,-131.5 246.399,-131.5 246.399,-112.5 161.399,-112.5"/>
<text text-anchor="middle" x="203.899" y="-119.5" font-family="Helvetica,sans-Serif" font-size="10.00">net/DateTime.h</text>
</a>
</g>
</g>
<!-- Node7&#45;&gt;Node8 -->
<g id="edge9" class="edge"><title>Node7&#45;&gt;Node8</title>
<path fill="none" stroke="midnightblue" d="M140.949,-168.324C152.362,-160.107 169.73,-147.602 183.334,-137.807"/>
<polygon fill="midnightblue" stroke="midnightblue" points="185.559,-140.517 191.63,-131.834 181.469,-134.837 185.559,-140.517"/>
</g>
<!-- Node8&#45;&gt;Node2 -->
<g id="edge10" class="edge"><title>Node8&#45;&gt;Node2</title>
<path fill="none" stroke="midnightblue" d="M183.934,-112.444C163.29,-103.596 130.836,-89.6875 107.267,-79.5865"/>
<polygon fill="midnightblue" stroke="midnightblue" points="108.341,-76.2387 97.7707,-75.5164 105.583,-82.6727 108.341,-76.2387"/>
</g>
</g>
</svg>
