<?xml version="1.0" encoding="UTF-8" standalone="no"?>
<!DOCTYPE svg PUBLIC "-//W3C//DTD SVG 1.1//EN"
 "http://www.w3.org/Graphics/SVG/1.1/DTD/svg11.dtd">
<!-- Generated by graphviz version 2.38.0 (20140413.2041)
 -->
<!-- Title: /Users/rakesh/svn/customer/qsense/desktop/src/api/Event.h Pages: 1 -->
<svg width="320pt" height="274pt"
 viewBox="0.00 0.00 319.82 274.00" xmlns="http://www.w3.org/2000/svg" xmlns:xlink="http://www.w3.org/1999/xlink">
<g id="graph0" class="graph" transform="scale(1 1) rotate(0) translate(4 270)">
<title>/Users/rakesh/svn/customer/qsense/desktop/src/api/Event.h</title>
<polygon fill="white" stroke="none" points="-4,4 -4,-270 315.824,-270 315.824,4 -4,4"/>
<!-- Node1 -->
<g id="node1" class="node"><title>Node1</title>
<polygon fill="#bfbfbf" stroke="black" points="85.824,-224.5 85.824,-265.5 225.824,-265.5 225.824,-224.5 85.824,-224.5"/>
<text text-anchor="start" x="93.824" y="-253.5" font-family="Helvetica,sans-Serif" font-size="10.00">/Users/rakesh/svn/customer</text>
<text text-anchor="start" x="93.824" y="-242.5" font-family="Helvetica,sans-Serif" font-size="10.00">/qsense/desktop/src/api</text>
<text text-anchor="middle" x="155.824" y="-231.5" font-family="Helvetica,sans-Serif" font-size="10.00">/Event.h</text>
</g>
<!-- Node2 -->
<g id="node2" class="node"><title>Node2</title>
<g id="a_node2"><a xlink:href="_q_sense_8h.xhtml" target="_top" xlink:title="QSense.h">
<polygon fill="white" stroke="black" points="96.324,-56.5 96.324,-75.5 157.324,-75.5 157.324,-56.5 96.324,-56.5"/>
<text text-anchor="middle" x="126.824" y="-63.5" font-family="Helvetica,sans-Serif" font-size="10.00">QSense.h</text>
</a>
</g>
</g>
<!-- Node1&#45;&gt;Node2 -->
<g id="edge1" class="edge"><title>Node1&#45;&gt;Node2</title>
<path fill="none" stroke="midnightblue" d="M85.5732,-235.771C55.5232,-228.376 23.1868,-214.395 4.82404,-188 -10.4725,-166.013 15.5659,-124.719 27.824,-112 43.627,-95.6026 66.5167,-84.667 86.3065,-77.6866"/>
<polygon fill="midnightblue" stroke="midnightblue" points="87.6232,-80.9378 96.0225,-74.48 85.4293,-74.2905 87.6232,-80.9378"/>
</g>
<!-- Node5 -->
<g id="node5" class="node"><title>Node5</title>
<g id="a_node5"><a xlink:href="_location_8h.xhtml" target="_top" xlink:title="Location.h">
<polygon fill="white" stroke="black" points="14.324,-168.5 14.324,-187.5 77.324,-187.5 77.324,-168.5 14.324,-168.5"/>
<text text-anchor="middle" x="45.824" y="-175.5" font-family="Helvetica,sans-Serif" font-size="10.00">Location.h</text>
</a>
</g>
</g>
<!-- Node1&#45;&gt;Node5 -->
<g id="edge4" class="edge"><title>Node1&#45;&gt;Node5</title>
<path fill="none" stroke="midnightblue" d="M122.82,-224.498C105.631,-214.34 85.0096,-202.155 69.4357,-192.952"/>
<polygon fill="midnightblue" stroke="midnightblue" points="70.8566,-189.727 60.4667,-187.652 67.2954,-195.753 70.8566,-189.727"/>
</g>
<!-- Node7 -->
<g id="node7" class="node"><title>Node7</title>
<g id="a_node7"><a xlink:href="_reading_8h.xhtml" target="_top" xlink:title="Reading.h">
<polygon fill="white" stroke="black" points="95.824,-168.5 95.824,-187.5 157.824,-187.5 157.824,-168.5 95.824,-168.5"/>
<text text-anchor="middle" x="126.824" y="-175.5" font-family="Helvetica,sans-Serif" font-size="10.00">Reading.h</text>
</a>
</g>
</g>
<!-- Node1&#45;&gt;Node7 -->
<g id="edge7" class="edge"><title>Node1&#45;&gt;Node7</title>
<path fill="none" stroke="midnightblue" d="M147.123,-224.498C143.233,-215.778 138.675,-205.563 134.866,-197.024"/>
<polygon fill="midnightblue" stroke="midnightblue" points="137.955,-195.359 130.684,-187.652 131.563,-198.211 137.955,-195.359"/>
</g>
<!-- Node9 -->
<g id="node9" class="node"><title>Node9</title>
<g id="a_node9"><a xlink:href="_u_u_i_d_8h.xhtml" target="_top" xlink:title="UUID.h">
<polygon fill="white" stroke="black" points="258.324,-112.5 258.324,-131.5 307.324,-131.5 307.324,-112.5 258.324,-112.5"/>
<text text-anchor="middle" x="282.824" y="-119.5" font-family="Helvetica,sans-Serif" font-size="10.00">UUID.h</text>
</a>
</g>
</g>
<!-- Node1&#45;&gt;Node9 -->
<g id="edge12" class="edge"><title>Node1&#45;&gt;Node9</title>
<path fill="none" stroke="midnightblue" d="M165.126,-224.38C173.69,-207.848 187.653,-184.343 204.824,-168 218.797,-154.701 237.421,-143.767 252.966,-136.009"/>
<polygon fill="midnightblue" stroke="midnightblue" points="254.672,-139.073 262.179,-131.596 251.648,-132.76 254.672,-139.073"/>
</g>
<!-- Node10 -->
<g id="node10" class="node"><title>Node10</title>
<polygon fill="white" stroke="#bfbfbf" points="213.824,-168.5 213.824,-187.5 257.824,-187.5 257.824,-168.5 213.824,-168.5"/>
<text text-anchor="middle" x="235.824" y="-175.5" font-family="Helvetica,sans-Serif" font-size="10.00">vector</text>
</g>
<!-- Node1&#45;&gt;Node10 -->
<g id="edge14" class="edge"><title>Node1&#45;&gt;Node10</title>
<path fill="none" stroke="midnightblue" d="M179.827,-224.498C191.856,-214.724 206.197,-203.072 217.354,-194.007"/>
<polygon fill="midnightblue" stroke="midnightblue" points="219.621,-196.675 225.175,-187.652 215.207,-191.242 219.621,-196.675"/>
</g>
<!-- Node11 -->
<g id="node11" class="node"><title>Node11</title>
<polygon fill="white" stroke="#bfbfbf" points="275.824,-168.5 275.824,-187.5 311.824,-187.5 311.824,-168.5 275.824,-168.5"/>
<text text-anchor="middle" x="293.824" y="-175.5" font-family="Helvetica,sans-Serif" font-size="10.00">map</text>
</g>
<!-- Node1&#45;&gt;Node11 -->
<g id="edge15" class="edge"><title>Node1&#45;&gt;Node11</title>
<path fill="none" stroke="midnightblue" d="M197.229,-224.498C219.744,-213.893 246.952,-201.077 266.747,-191.754"/>
<polygon fill="midnightblue" stroke="midnightblue" points="268.261,-194.91 275.816,-187.482 265.278,-188.577 268.261,-194.91"/>
</g>
<!-- Node3 -->
<g id="node3" class="node"><title>Node3</title>
<polygon fill="white" stroke="#bfbfbf" points="74.324,-0.5 74.324,-19.5 119.324,-19.5 119.324,-0.5 74.324,-0.5"/>
<text text-anchor="middle" x="96.824" y="-7.5" font-family="Helvetica,sans-Serif" font-size="10.00">cstdint</text>
</g>
<!-- Node2&#45;&gt;Node3 -->
<g id="edge2" class="edge"><title>Node2&#45;&gt;Node3</title>
<path fill="none" stroke="midnightblue" d="M121.87,-56.083C117.72,-48.6127 111.671,-37.7244 106.557,-28.5199"/>
<polygon fill="midnightblue" stroke="midnightblue" points="109.602,-26.7929 101.686,-19.7511 103.483,-30.1924 109.602,-26.7929"/>
</g>
<!-- Node4 -->
<g id="node4" class="node"><title>Node4</title>
<polygon fill="white" stroke="#bfbfbf" points="137.324,-0.5 137.324,-19.5 178.324,-19.5 178.324,-0.5 137.324,-0.5"/>
<text text-anchor="middle" x="157.824" y="-7.5" font-family="Helvetica,sans-Serif" font-size="10.00">string</text>
</g>
<!-- Node2&#45;&gt;Node4 -->
<g id="edge3" class="edge"><title>Node2&#45;&gt;Node4</title>
<path fill="none" stroke="midnightblue" d="M131.943,-56.083C136.232,-48.6127 142.482,-37.7244 147.766,-28.5199"/>
<polygon fill="midnightblue" stroke="midnightblue" points="150.857,-30.1662 152.8,-19.7511 144.786,-26.6811 150.857,-30.1662"/>
</g>
<!-- Node5&#45;&gt;Node2 -->
<g id="edge5" class="edge"><title>Node5&#45;&gt;Node2</title>
<path fill="none" stroke="midnightblue" d="M41.0522,-168.271C34.5401,-155.058 24.8605,-129.652 35.824,-112 46.9892,-94.023 67.6995,-83.01 86.5449,-76.3831"/>
<polygon fill="midnightblue" stroke="midnightblue" points="87.7116,-79.6847 96.1694,-73.3039 85.5784,-73.0176 87.7116,-79.6847"/>
</g>
<!-- Node6 -->
<g id="node6" class="node"><title>Node6</title>
<polygon fill="white" stroke="#bfbfbf" points="45.324,-112.5 45.324,-131.5 98.324,-131.5 98.324,-112.5 45.324,-112.5"/>
<text text-anchor="middle" x="71.824" y="-119.5" font-family="Helvetica,sans-Serif" font-size="10.00">ostream</text>
</g>
<!-- Node5&#45;&gt;Node6 -->
<g id="edge6" class="edge"><title>Node5&#45;&gt;Node6</title>
<path fill="none" stroke="midnightblue" d="M50.1174,-168.083C53.6764,-160.691 58.8465,-149.953 63.2483,-140.811"/>
<polygon fill="midnightblue" stroke="midnightblue" points="66.4259,-142.279 67.6106,-131.751 60.1188,-139.243 66.4259,-142.279"/>
</g>
<!-- Node7&#45;&gt;Node2 -->
<g id="edge8" class="edge"><title>Node7&#45;&gt;Node2</title>
<path fill="none" stroke="midnightblue" d="M126.824,-168.368C126.824,-150.617 126.824,-109.666 126.824,-85.5974"/>
<polygon fill="midnightblue" stroke="midnightblue" points="130.324,-85.5914 126.824,-75.5914 123.324,-85.5915 130.324,-85.5914"/>
</g>
<!-- Node7&#45;&gt;Node6 -->
<g id="edge11" class="edge"><title>Node7&#45;&gt;Node6</title>
<path fill="none" stroke="midnightblue" d="M117.742,-168.083C109.653,-160.141 97.6287,-148.335 87.9139,-138.797"/>
<polygon fill="midnightblue" stroke="midnightblue" points="90.3249,-136.26 80.7372,-131.751 85.4208,-141.254 90.3249,-136.26"/>
</g>
<!-- Node8 -->
<g id="node8" class="node"><title>Node8</title>
<g id="a_node8"><a xlink:href="_date_time_8h.xhtml" target="_top" xlink:title="net/DateTime.h">
<polygon fill="white" stroke="black" points="155.324,-112.5 155.324,-131.5 240.324,-131.5 240.324,-112.5 155.324,-112.5"/>
<text text-anchor="middle" x="197.824" y="-119.5" font-family="Helvetica,sans-Serif" font-size="10.00">net/DateTime.h</text>
</a>
</g>
</g>
<!-- Node7&#45;&gt;Node8 -->
<g id="edge9" class="edge"><title>Node7&#45;&gt;Node8</title>
<path fill="none" stroke="midnightblue" d="M138.231,-168.324C148.933,-160.185 165.165,-147.839 177.987,-138.087"/>
<polygon fill="midnightblue" stroke="midnightblue" points="180.368,-140.673 186.209,-131.834 176.131,-135.102 180.368,-140.673"/>
</g>
<!-- Node8&#45;&gt;Node2 -->
<g id="edge10" class="edge"><title>Node8&#45;&gt;Node2</title>
<path fill="none" stroke="midnightblue" d="M186.417,-112.324C175.715,-104.185 159.483,-91.8395 146.661,-82.0874"/>
<polygon fill="midnightblue" stroke="midnightblue" points="148.517,-79.1018 138.439,-75.8339 144.28,-84.6734 148.517,-79.1018"/>
</g>
<!-- Node9&#45;&gt;Node2 -->
<g id="edge13" class="edge"><title>Node9&#45;&gt;Node2</title>
<path fill="none" stroke="midnightblue" d="M258.105,-112.444C231.976,-103.399 190.565,-89.064 161.248,-78.9158"/>
<polygon fill="midnightblue" stroke="midnightblue" points="162.022,-75.4801 151.427,-75.5164 159.732,-82.0951 162.022,-75.4801"/>
</g>
</g>
</svg>
