<?xml version="1.0" encoding="UTF-8" standalone="no"?>
<!DOCTYPE svg PUBLIC "-//W3C//DTD SVG 1.1//EN"
 "http://www.w3.org/Graphics/SVG/1.1/DTD/svg11.dtd">
<!-- Generated by graphviz version 2.38.0 (20140413.2041)
 -->
<!-- Title: /Users/rakesh/svn/customer/qsense/desktop/src/api/Event.h Pages: 1 -->
<svg width="253pt" height="274pt"
 viewBox="0.00 0.00 253.02 274.00" xmlns="http://www.w3.org/2000/svg" xmlns:xlink="http://www.w3.org/1999/xlink">
<g id="graph0" class="graph" transform="scale(1 1) rotate(0) translate(4 270)">
<title>/Users/rakesh/svn/customer/qsense/desktop/src/api/Event.h</title>
<polygon fill="white" stroke="none" points="-4,4 -4,-270 249.019,-270 249.019,4 -4,4"/>
<!-- Node1 -->
<g id="node1" class="node"><title>Node1</title>
<polygon fill="#bfbfbf" stroke="black" points="16.5193,-224.5 16.5193,-265.5 156.519,-265.5 156.519,-224.5 16.5193,-224.5"/>
<text text-anchor="start" x="24.5193" y="-253.5" font-family="Helvetica,sans-Serif" font-size="10.00">/Users/rakesh/svn/customer</text>
<text text-anchor="start" x="24.5193" y="-242.5" font-family="Helvetica,sans-Serif" font-size="10.00">/qsense/desktop/src/api</text>
<text text-anchor="middle" x="86.5193" y="-231.5" font-family="Helvetica,sans-Serif" font-size="10.00">/Event.h</text>
</g>
<!-- Node2 -->
<g id="node2" class="node"><title>Node2</title>
<g id="a_node2"><a xlink:href="_q_sense_8h.xhtml" target="_top" xlink:title="QSense.h">
<polygon fill="white" stroke="black" points="46.0193,-56.5 46.0193,-75.5 107.019,-75.5 107.019,-56.5 46.0193,-56.5"/>
<text text-anchor="middle" x="76.5193" y="-63.5" font-family="Helvetica,sans-Serif" font-size="10.00">QSense.h</text>
</a>
</g>
</g>
<!-- Node1&#45;&gt;Node2 -->
<g id="edge1" class="edge"><title>Node1&#45;&gt;Node2</title>
<path fill="none" stroke="midnightblue" d="M42.6407,-224.352C28.1212,-215.471 13.6174,-203.444 5.51931,-188 -14.9816,-148.903 29.1376,-104.514 56.6505,-81.9244"/>
<polygon fill="midnightblue" stroke="midnightblue" points="58.9077,-84.6013 64.5659,-75.6438 54.5567,-79.1178 58.9077,-84.6013"/>
</g>
<!-- Node5 -->
<g id="node5" class="node"><title>Node5</title>
<g id="a_node5"><a xlink:href="_location_8h.xhtml" target="_top" xlink:title="Location.h">
<polygon fill="white" stroke="black" points="15.0193,-168.5 15.0193,-187.5 78.0193,-187.5 78.0193,-168.5 15.0193,-168.5"/>
<text text-anchor="middle" x="46.5193" y="-175.5" font-family="Helvetica,sans-Serif" font-size="10.00">Location.h</text>
</a>
</g>
</g>
<!-- Node1&#45;&gt;Node5 -->
<g id="edge4" class="edge"><title>Node1&#45;&gt;Node5</title>
<path fill="none" stroke="midnightblue" d="M74.518,-224.498C68.9749,-215.49 62.4504,-204.888 57.0948,-196.185"/>
<polygon fill="midnightblue" stroke="midnightblue" points="60.0658,-194.335 51.8439,-187.652 54.1041,-198.003 60.0658,-194.335"/>
</g>
<!-- Node7 -->
<g id="node7" class="node"><title>Node7</title>
<g id="a_node7"><a xlink:href="_reading_8h.xhtml" target="_top" xlink:title="Reading.h">
<polygon fill="white" stroke="black" points="96.5193,-168.5 96.5193,-187.5 158.519,-187.5 158.519,-168.5 96.5193,-168.5"/>
<text text-anchor="middle" x="127.519" y="-175.5" font-family="Helvetica,sans-Serif" font-size="10.00">Reading.h</text>
</a>
</g>
</g>
<!-- Node1&#45;&gt;Node7 -->
<g id="edge7" class="edge"><title>Node1&#45;&gt;Node7</title>
<path fill="none" stroke="midnightblue" d="M98.8207,-224.498C104.502,-215.49 111.19,-204.888 116.679,-196.185"/>
<polygon fill="midnightblue" stroke="midnightblue" points="119.687,-197.978 122.062,-187.652 113.766,-194.243 119.687,-197.978"/>
</g>
<!-- Node9 -->
<g id="node9" class="node"><title>Node9</title>
<polygon fill="white" stroke="#bfbfbf" points="176.519,-168.5 176.519,-187.5 220.519,-187.5 220.519,-168.5 176.519,-168.5"/>
<text text-anchor="middle" x="198.519" y="-175.5" font-family="Helvetica,sans-Serif" font-size="10.00">vector</text>
</g>
<!-- Node1&#45;&gt;Node9 -->
<g id="edge12" class="edge"><title>Node1&#45;&gt;Node9</title>
<path fill="none" stroke="midnightblue" d="M120.123,-224.498C137.79,-214.245 159.018,-201.925 174.926,-192.693"/>
<polygon fill="midnightblue" stroke="midnightblue" points="176.718,-195.699 183.61,-187.652 173.205,-189.645 176.718,-195.699"/>
</g>
<!-- Node3 -->
<g id="node3" class="node"><title>Node3</title>
<polygon fill="white" stroke="#bfbfbf" points="24.0193,-0.5 24.0193,-19.5 69.0193,-19.5 69.0193,-0.5 24.0193,-0.5"/>
<text text-anchor="middle" x="46.5193" y="-7.5" font-family="Helvetica,sans-Serif" font-size="10.00">cstdint</text>
</g>
<!-- Node2&#45;&gt;Node3 -->
<g id="edge2" class="edge"><title>Node2&#45;&gt;Node3</title>
<path fill="none" stroke="midnightblue" d="M71.5654,-56.083C67.4153,-48.6127 61.3662,-37.7244 56.2526,-28.5199"/>
<polygon fill="midnightblue" stroke="midnightblue" points="59.2971,-26.7929 51.381,-19.7511 53.1779,-30.1924 59.2971,-26.7929"/>
</g>
<!-- Node4 -->
<g id="node4" class="node"><title>Node4</title>
<polygon fill="white" stroke="#bfbfbf" points="87.0193,-0.5 87.0193,-19.5 128.019,-19.5 128.019,-0.5 87.0193,-0.5"/>
<text text-anchor="middle" x="107.519" y="-7.5" font-family="Helvetica,sans-Serif" font-size="10.00">string</text>
</g>
<!-- Node2&#45;&gt;Node4 -->
<g id="edge3" class="edge"><title>Node2&#45;&gt;Node4</title>
<path fill="none" stroke="midnightblue" d="M81.6383,-56.083C85.9268,-48.6127 92.1775,-37.7244 97.4616,-28.5199"/>
<polygon fill="midnightblue" stroke="midnightblue" points="100.552,-30.1662 102.496,-19.7511 94.4814,-26.6811 100.552,-30.1662"/>
</g>
<!-- Node5&#45;&gt;Node2 -->
<g id="edge5" class="edge"><title>Node5&#45;&gt;Node2</title>
<path fill="none" stroke="midnightblue" d="M43.4616,-168.305C39.4765,-155.564 33.7672,-131.249 40.5193,-112 44.3045,-101.209 51.8858,-91.084 59.1191,-83.1808"/>
<polygon fill="midnightblue" stroke="midnightblue" points="61.8449,-85.4005 66.3572,-75.8145 56.8519,-80.4943 61.8449,-85.4005"/>
</g>
<!-- Node6 -->
<g id="node6" class="node"><title>Node6</title>
<polygon fill="white" stroke="#bfbfbf" points="50.0193,-112.5 50.0193,-131.5 103.019,-131.5 103.019,-112.5 50.0193,-112.5"/>
<text text-anchor="middle" x="76.5193" y="-119.5" font-family="Helvetica,sans-Serif" font-size="10.00">ostream</text>
</g>
<!-- Node5&#45;&gt;Node6 -->
<g id="edge6" class="edge"><title>Node5&#45;&gt;Node6</title>
<path fill="none" stroke="midnightblue" d="M51.4732,-168.083C55.6234,-160.613 61.6724,-149.724 66.7861,-140.52"/>
<polygon fill="midnightblue" stroke="midnightblue" points="69.8607,-142.192 71.6576,-131.751 63.7416,-138.793 69.8607,-142.192"/>
</g>
<!-- Node7&#45;&gt;Node2 -->
<g id="edge8" class="edge"><title>Node7&#45;&gt;Node2</title>
<path fill="none" stroke="midnightblue" d="M126.538,-168.193C124.845,-155.313 120.641,-130.825 111.519,-112 106.458,-101.555 98.6901,-91.2372 91.7566,-83.1212"/>
<polygon fill="midnightblue" stroke="midnightblue" points="94.2576,-80.6674 84.9818,-75.5477 89.0404,-85.3344 94.2576,-80.6674"/>
</g>
<!-- Node7&#45;&gt;Node6 -->
<g id="edge11" class="edge"><title>Node7&#45;&gt;Node6</title>
<path fill="none" stroke="midnightblue" d="M119.098,-168.083C111.671,-160.22 100.668,-148.569 91.7072,-139.081"/>
<polygon fill="midnightblue" stroke="midnightblue" points="94.195,-136.618 84.7842,-131.751 89.1059,-141.424 94.195,-136.618"/>
</g>
<!-- Node8 -->
<g id="node8" class="node"><title>Node8</title>
<g id="a_node8"><a xlink:href="_date_time_8h.xhtml" target="_top" xlink:title="net/DateTime.h">
<polygon fill="white" stroke="black" points="160.019,-112.5 160.019,-131.5 245.019,-131.5 245.019,-112.5 160.019,-112.5"/>
<text text-anchor="middle" x="202.519" y="-119.5" font-family="Helvetica,sans-Serif" font-size="10.00">net/DateTime.h</text>
</a>
</g>
</g>
<!-- Node7&#45;&gt;Node8 -->
<g id="edge9" class="edge"><title>Node7&#45;&gt;Node8</title>
<path fill="none" stroke="midnightblue" d="M139.569,-168.324C150.982,-160.107 168.35,-147.602 181.954,-137.807"/>
<polygon fill="midnightblue" stroke="midnightblue" points="184.18,-140.517 190.25,-131.834 180.09,-134.837 184.18,-140.517"/>
</g>
<!-- Node8&#45;&gt;Node2 -->
<g id="edge10" class="edge"><title>Node8&#45;&gt;Node2</title>
<path fill="none" stroke="midnightblue" d="M182.554,-112.444C161.91,-103.596 129.457,-89.6875 105.888,-79.5865"/>
<polygon fill="midnightblue" stroke="midnightblue" points="106.961,-76.2387 96.391,-75.5164 104.204,-82.6727 106.961,-76.2387"/>
</g>
</g>
</svg>
