<?xml version="1.0" encoding="UTF-8" standalone="no"?>
<!DOCTYPE svg PUBLIC "-//W3C//DTD SVG 1.1//EN"
 "http://www.w3.org/Graphics/SVG/1.1/DTD/svg11.dtd">
<!-- Generated by graphviz version 2.38.0 (20140413.2041)
 -->
<!-- Title: Event.h Pages: 1 -->
<svg width="320pt" height="252pt"
 viewBox="0.00 0.00 320.26 252.00" xmlns="http://www.w3.org/2000/svg" xmlns:xlink="http://www.w3.org/1999/xlink">
<g id="graph0" class="graph" transform="scale(1 1) rotate(0) translate(4 248)">
<title>Event.h</title>
<polygon fill="white" stroke="none" points="-4,4 -4,-248 316.259,-248 316.259,4 -4,4"/>
<!-- Node1 -->
<g id="node1" class="node"><title>Node1</title>
<polygon fill="#bfbfbf" stroke="black" points="131.259,-224.5 131.259,-243.5 181.259,-243.5 181.259,-224.5 131.259,-224.5"/>
<text text-anchor="middle" x="156.259" y="-231.5" font-family="Helvetica,sans-Serif" font-size="10.00">Event.h</text>
</g>
<!-- Node2 -->
<g id="node2" class="node"><title>Node2</title>
<g id="a_node2"><a xlink:href="_q_sense_8h.xhtml" target="_top" xlink:title="QSense.h">
<polygon fill="white" stroke="black" points="96.7595,-56.5 96.7595,-75.5 157.759,-75.5 157.759,-56.5 96.7595,-56.5"/>
<text text-anchor="middle" x="127.259" y="-63.5" font-family="Helvetica,sans-Serif" font-size="10.00">QSense.h</text>
</a>
</g>
</g>
<!-- Node1&#45;&gt;Node2 -->
<g id="edge1" class="edge"><title>Node1&#45;&gt;Node2</title>
<path fill="none" stroke="midnightblue" d="M131.145,-233.888C96.3417,-233.581 34.4421,-227.148 5.25946,-188 -10.6539,-166.653 14.1341,-126.657 28.2595,-112 44.0624,-95.6026 66.9521,-84.667 86.742,-77.6866"/>
<polygon fill="midnightblue" stroke="midnightblue" points="88.0586,-80.9378 96.4579,-74.48 85.8647,-74.2905 88.0586,-80.9378"/>
</g>
<!-- Node5 -->
<g id="node5" class="node"><title>Node5</title>
<g id="a_node5"><a xlink:href="_location_8h.xhtml" target="_top" xlink:title="Location.h">
<polygon fill="white" stroke="black" points="14.7595,-168.5 14.7595,-187.5 77.7595,-187.5 77.7595,-168.5 14.7595,-168.5"/>
<text text-anchor="middle" x="46.2595" y="-175.5" font-family="Helvetica,sans-Serif" font-size="10.00">Location.h</text>
</a>
</g>
</g>
<!-- Node1&#45;&gt;Node5 -->
<g id="edge4" class="edge"><title>Node1&#45;&gt;Node5</title>
<path fill="none" stroke="midnightblue" d="M138.586,-224.324C120.865,-215.625 93.3562,-202.12 72.9711,-192.113"/>
<polygon fill="midnightblue" stroke="midnightblue" points="74.4081,-188.919 63.889,-187.655 71.3233,-195.203 74.4081,-188.919"/>
</g>
<!-- Node7 -->
<g id="node7" class="node"><title>Node7</title>
<g id="a_node7"><a xlink:href="_reading_8h.xhtml" target="_top" xlink:title="Reading.h">
<polygon fill="white" stroke="black" points="96.2595,-168.5 96.2595,-187.5 158.259,-187.5 158.259,-168.5 96.2595,-168.5"/>
<text text-anchor="middle" x="127.259" y="-175.5" font-family="Helvetica,sans-Serif" font-size="10.00">Reading.h</text>
</a>
</g>
</g>
<!-- Node1&#45;&gt;Node7 -->
<g id="edge7" class="edge"><title>Node1&#45;&gt;Node7</title>
<path fill="none" stroke="midnightblue" d="M151.471,-224.083C147.501,-216.691 141.734,-205.953 136.825,-196.811"/>
<polygon fill="midnightblue" stroke="midnightblue" points="139.774,-194.905 131.959,-187.751 133.607,-198.217 139.774,-194.905"/>
</g>
<!-- Node9 -->
<g id="node9" class="node"><title>Node9</title>
<g id="a_node9"><a xlink:href="_u_u_i_d_8h.xhtml" target="_top" xlink:title="UUID.h">
<polygon fill="white" stroke="black" points="258.759,-112.5 258.759,-131.5 307.759,-131.5 307.759,-112.5 258.759,-112.5"/>
<text text-anchor="middle" x="283.259" y="-119.5" font-family="Helvetica,sans-Serif" font-size="10.00">UUID.h</text>
</a>
</g>
</g>
<!-- Node1&#45;&gt;Node9 -->
<g id="edge12" class="edge"><title>Node1&#45;&gt;Node9</title>
<path fill="none" stroke="midnightblue" d="M161.345,-224.117C169.354,-210.703 185.992,-185.038 205.259,-168 219.904,-155.05 238.853,-144.014 254.406,-136.113"/>
<polygon fill="midnightblue" stroke="midnightblue" points="256.148,-139.157 263.583,-131.609 253.064,-132.873 256.148,-139.157"/>
</g>
<!-- Node10 -->
<g id="node10" class="node"><title>Node10</title>
<polygon fill="white" stroke="#bfbfbf" points="214.259,-168.5 214.259,-187.5 258.259,-187.5 258.259,-168.5 214.259,-168.5"/>
<text text-anchor="middle" x="236.259" y="-175.5" font-family="Helvetica,sans-Serif" font-size="10.00">vector</text>
</g>
<!-- Node1&#45;&gt;Node10 -->
<g id="edge14" class="edge"><title>Node1&#45;&gt;Node10</title>
<path fill="none" stroke="midnightblue" d="M169.113,-224.324C181.476,-215.979 200.39,-203.212 214.997,-193.352"/>
<polygon fill="midnightblue" stroke="midnightblue" points="217.108,-196.15 223.438,-187.655 213.191,-190.348 217.108,-196.15"/>
</g>
<!-- Node11 -->
<g id="node11" class="node"><title>Node11</title>
<polygon fill="white" stroke="#bfbfbf" points="276.259,-168.5 276.259,-187.5 312.259,-187.5 312.259,-168.5 276.259,-168.5"/>
<text text-anchor="middle" x="294.259" y="-175.5" font-family="Helvetica,sans-Serif" font-size="10.00">map</text>
</g>
<!-- Node1&#45;&gt;Node11 -->
<g id="edge15" class="edge"><title>Node1&#45;&gt;Node11</title>
<path fill="none" stroke="midnightblue" d="M178.126,-224.444C202.012,-215.097 240.331,-200.102 266.365,-189.915"/>
<polygon fill="midnightblue" stroke="midnightblue" points="267.984,-193.04 276.021,-186.137 265.433,-186.522 267.984,-193.04"/>
</g>
<!-- Node3 -->
<g id="node3" class="node"><title>Node3</title>
<polygon fill="white" stroke="#bfbfbf" points="74.7595,-0.5 74.7595,-19.5 119.759,-19.5 119.759,-0.5 74.7595,-0.5"/>
<text text-anchor="middle" x="97.2595" y="-7.5" font-family="Helvetica,sans-Serif" font-size="10.00">cstdint</text>
</g>
<!-- Node2&#45;&gt;Node3 -->
<g id="edge2" class="edge"><title>Node2&#45;&gt;Node3</title>
<path fill="none" stroke="midnightblue" d="M122.306,-56.083C118.155,-48.6127 112.106,-37.7244 106.993,-28.5199"/>
<polygon fill="midnightblue" stroke="midnightblue" points="110.037,-26.7929 102.121,-19.7511 103.918,-30.1924 110.037,-26.7929"/>
</g>
<!-- Node4 -->
<g id="node4" class="node"><title>Node4</title>
<polygon fill="white" stroke="#bfbfbf" points="137.759,-0.5 137.759,-19.5 178.759,-19.5 178.759,-0.5 137.759,-0.5"/>
<text text-anchor="middle" x="158.259" y="-7.5" font-family="Helvetica,sans-Serif" font-size="10.00">string</text>
</g>
<!-- Node2&#45;&gt;Node4 -->
<g id="edge3" class="edge"><title>Node2&#45;&gt;Node4</title>
<path fill="none" stroke="midnightblue" d="M132.378,-56.083C136.667,-48.6127 142.918,-37.7244 148.202,-28.5199"/>
<polygon fill="midnightblue" stroke="midnightblue" points="151.292,-30.1662 153.236,-19.7511 145.222,-26.6811 151.292,-30.1662"/>
</g>
<!-- Node5&#45;&gt;Node2 -->
<g id="edge5" class="edge"><title>Node5&#45;&gt;Node2</title>
<path fill="none" stroke="midnightblue" d="M41.4876,-168.271C34.9755,-155.058 25.2959,-129.652 36.2595,-112 47.4246,-94.023 68.1349,-83.01 86.9803,-76.3831"/>
<polygon fill="midnightblue" stroke="midnightblue" points="88.147,-79.6847 96.6048,-73.3039 86.0138,-73.0176 88.147,-79.6847"/>
</g>
<!-- Node6 -->
<g id="node6" class="node"><title>Node6</title>
<polygon fill="white" stroke="#bfbfbf" points="45.7595,-112.5 45.7595,-131.5 98.7595,-131.5 98.7595,-112.5 45.7595,-112.5"/>
<text text-anchor="middle" x="72.2595" y="-119.5" font-family="Helvetica,sans-Serif" font-size="10.00">ostream</text>
</g>
<!-- Node5&#45;&gt;Node6 -->
<g id="edge6" class="edge"><title>Node5&#45;&gt;Node6</title>
<path fill="none" stroke="midnightblue" d="M50.5528,-168.083C54.1118,-160.691 59.282,-149.953 63.6837,-140.811"/>
<polygon fill="midnightblue" stroke="midnightblue" points="66.8613,-142.279 68.046,-131.751 60.5543,-139.243 66.8613,-142.279"/>
</g>
<!-- Node7&#45;&gt;Node2 -->
<g id="edge8" class="edge"><title>Node7&#45;&gt;Node2</title>
<path fill="none" stroke="midnightblue" d="M127.259,-168.368C127.259,-150.617 127.259,-109.666 127.259,-85.5974"/>
<polygon fill="midnightblue" stroke="midnightblue" points="130.76,-85.5914 127.259,-75.5914 123.76,-85.5915 130.76,-85.5914"/>
</g>
<!-- Node7&#45;&gt;Node6 -->
<g id="edge11" class="edge"><title>Node7&#45;&gt;Node6</title>
<path fill="none" stroke="midnightblue" d="M118.177,-168.083C110.088,-160.141 98.0641,-148.335 88.3493,-138.797"/>
<polygon fill="midnightblue" stroke="midnightblue" points="90.7603,-136.26 81.1726,-131.751 85.8562,-141.254 90.7603,-136.26"/>
</g>
<!-- Node8 -->
<g id="node8" class="node"><title>Node8</title>
<g id="a_node8"><a xlink:href="_date_time_8h.xhtml" target="_top" xlink:title="net/DateTime.h">
<polygon fill="white" stroke="black" points="155.759,-112.5 155.759,-131.5 240.759,-131.5 240.759,-112.5 155.759,-112.5"/>
<text text-anchor="middle" x="198.259" y="-119.5" font-family="Helvetica,sans-Serif" font-size="10.00">net/DateTime.h</text>
</a>
</g>
</g>
<!-- Node7&#45;&gt;Node8 -->
<g id="edge9" class="edge"><title>Node7&#45;&gt;Node8</title>
<path fill="none" stroke="midnightblue" d="M138.667,-168.324C149.368,-160.185 165.6,-147.839 178.422,-138.087"/>
<polygon fill="midnightblue" stroke="midnightblue" points="180.804,-140.673 186.645,-131.834 176.566,-135.102 180.804,-140.673"/>
</g>
<!-- Node8&#45;&gt;Node2 -->
<g id="edge10" class="edge"><title>Node8&#45;&gt;Node2</title>
<path fill="none" stroke="midnightblue" d="M186.852,-112.324C176.151,-104.185 159.919,-91.8395 147.097,-82.0874"/>
<polygon fill="midnightblue" stroke="midnightblue" points="148.953,-79.1018 138.874,-75.8339 144.715,-84.6734 148.953,-79.1018"/>
</g>
<!-- Node9&#45;&gt;Node2 -->
<g id="edge13" class="edge"><title>Node9&#45;&gt;Node2</title>
<path fill="none" stroke="midnightblue" d="M258.541,-112.444C232.411,-103.399 191,-89.064 161.683,-78.9158"/>
<polygon fill="midnightblue" stroke="midnightblue" points="162.457,-75.4801 151.862,-75.5164 160.167,-82.0951 162.457,-75.4801"/>
</g>
</g>
</svg>
