<?xml version="1.0" encoding="UTF-8" standalone="no"?>
<!DOCTYPE svg PUBLIC "-//W3C//DTD SVG 1.1//EN"
 "http://www.w3.org/Graphics/SVG/1.1/DTD/svg11.dtd">
<!-- Generated by graphviz version 2.38.0 (20140413.2041)
 -->
<!-- Title: HttpRequest.h Pages: 1 -->
<svg width="146pt" height="140pt"
 viewBox="0.00 0.00 145.50 140.00" xmlns="http://www.w3.org/2000/svg" xmlns:xlink="http://www.w3.org/1999/xlink">
<g id="graph0" class="graph" transform="scale(1 1) rotate(0) translate(4 136)">
<title>HttpRequest.h</title>
<polygon fill="white" stroke="none" points="-4,4 -4,-136 141.5,-136 141.5,4 -4,4"/>
<!-- Node1 -->
<g id="node1" class="node"><title>Node1</title>
<polygon fill="#bfbfbf" stroke="black" points="45.5,-112.5 45.5,-131.5 125.5,-131.5 125.5,-112.5 45.5,-112.5"/>
<text text-anchor="middle" x="85.5" y="-119.5" font-family="Helvetica,sans-Serif" font-size="10.00">HttpRequest.h</text>
</g>
<!-- Node2 -->
<g id="node2" class="node"><title>Node2</title>
<g id="a_node2"><a xlink:href="_q_sense_8h.xhtml" target="_top" xlink:title="QSense.h">
<polygon fill="white" stroke="black" points="22,-56.5 22,-75.5 83,-75.5 83,-56.5 22,-56.5"/>
<text text-anchor="middle" x="52.5" y="-63.5" font-family="Helvetica,sans-Serif" font-size="10.00">QSense.h</text>
</a>
</g>
</g>
<!-- Node1&#45;&gt;Node2 -->
<g id="edge1" class="edge"><title>Node1&#45;&gt;Node2</title>
<path fill="none" stroke="midnightblue" d="M80.0507,-112.083C75.4855,-104.613 68.8316,-93.7244 63.2066,-84.5199"/>
<polygon fill="midnightblue" stroke="midnightblue" points="66.0489,-82.4588 57.8479,-75.7511 60.0759,-86.109 66.0489,-82.4588"/>
</g>
<!-- Node5 -->
<g id="node5" class="node"><title>Node5</title>
<polygon fill="white" stroke="#bfbfbf" points="101.5,-56.5 101.5,-75.5 137.5,-75.5 137.5,-56.5 101.5,-56.5"/>
<text text-anchor="middle" x="119.5" y="-63.5" font-family="Helvetica,sans-Serif" font-size="10.00">map</text>
</g>
<!-- Node1&#45;&gt;Node5 -->
<g id="edge4" class="edge"><title>Node1&#45;&gt;Node5</title>
<path fill="none" stroke="midnightblue" d="M91.1144,-112.083C95.8674,-104.534 102.818,-93.4948 108.652,-84.2298"/>
<polygon fill="midnightblue" stroke="midnightblue" points="111.624,-86.0783 113.99,-75.7511 105.7,-82.3486 111.624,-86.0783"/>
</g>
<!-- Node3 -->
<g id="node3" class="node"><title>Node3</title>
<polygon fill="white" stroke="#bfbfbf" points="0,-0.5 0,-19.5 45,-19.5 45,-0.5 0,-0.5"/>
<text text-anchor="middle" x="22.5" y="-7.5" font-family="Helvetica,sans-Serif" font-size="10.00">cstdint</text>
</g>
<!-- Node2&#45;&gt;Node3 -->
<g id="edge2" class="edge"><title>Node2&#45;&gt;Node3</title>
<path fill="none" stroke="midnightblue" d="M47.5461,-56.083C43.3959,-48.6127 37.3469,-37.7244 32.2333,-28.5199"/>
<polygon fill="midnightblue" stroke="midnightblue" points="35.2777,-26.7929 27.3617,-19.7511 29.1586,-30.1924 35.2777,-26.7929"/>
</g>
<!-- Node4 -->
<g id="node4" class="node"><title>Node4</title>
<polygon fill="white" stroke="#bfbfbf" points="63,-0.5 63,-19.5 104,-19.5 104,-0.5 63,-0.5"/>
<text text-anchor="middle" x="83.5" y="-7.5" font-family="Helvetica,sans-Serif" font-size="10.00">string</text>
</g>
<!-- Node2&#45;&gt;Node4 -->
<g id="edge3" class="edge"><title>Node2&#45;&gt;Node4</title>
<path fill="none" stroke="midnightblue" d="M57.619,-56.083C61.9075,-48.6127 68.1582,-37.7244 73.4423,-28.5199"/>
<polygon fill="midnightblue" stroke="midnightblue" points="76.5329,-30.1662 78.4762,-19.7511 70.4621,-26.6811 76.5329,-30.1662"/>
</g>
</g>
</svg>
