<?xml version="1.0" encoding="UTF-8" standalone="no"?>
<!DOCTYPE svg PUBLIC "-//W3C//DTD SVG 1.1//EN"
 "http://www.w3.org/Graphics/SVG/1.1/DTD/svg11.dtd">
<!-- Generated by graphviz version 2.38.0 (20140413.2041)
 -->
<!-- Title: /Users/rakesh/svn/customer/qsense/desktop/src/api/net/HttpRequest.h Pages: 1 -->
<svg width="164pt" height="162pt"
 viewBox="0.00 0.00 163.50 162.00" xmlns="http://www.w3.org/2000/svg" xmlns:xlink="http://www.w3.org/1999/xlink">
<g id="graph0" class="graph" transform="scale(1 1) rotate(0) translate(4 158)">
<title>/Users/rakesh/svn/customer/qsense/desktop/src/api/net/HttpRequest.h</title>
<polygon fill="white" stroke="none" points="-4,4 -4,-158 159.5,-158 159.5,4 -4,4"/>
<!-- Node1 -->
<g id="node1" class="node"><title>Node1</title>
<polygon fill="#bfbfbf" stroke="black" points="15.5,-112.5 15.5,-153.5 155.5,-153.5 155.5,-112.5 15.5,-112.5"/>
<text text-anchor="start" x="23.5" y="-141.5" font-family="Helvetica,sans-Serif" font-size="10.00">/Users/rakesh/svn/customer</text>
<text text-anchor="start" x="23.5" y="-130.5" font-family="Helvetica,sans-Serif" font-size="10.00">/qsense/desktop/src/api</text>
<text text-anchor="middle" x="85.5" y="-119.5" font-family="Helvetica,sans-Serif" font-size="10.00">/net/HttpRequest.h</text>
</g>
<!-- Node2 -->
<g id="node2" class="node"><title>Node2</title>
<g id="a_node2"><a xlink:href="_q_sense_8h.xhtml" target="_top" xlink:title="QSense.h">
<polygon fill="white" stroke="black" points="22,-56.5 22,-75.5 83,-75.5 83,-56.5 22,-56.5"/>
<text text-anchor="middle" x="52.5" y="-63.5" font-family="Helvetica,sans-Serif" font-size="10.00">QSense.h</text>
</a>
</g>
</g>
<!-- Node1&#45;&gt;Node2 -->
<g id="edge1" class="edge"><title>Node1&#45;&gt;Node2</title>
<path fill="none" stroke="midnightblue" d="M75.5989,-112.498C71.1232,-103.682 65.8719,-93.3385 61.5081,-84.7432"/>
<polygon fill="midnightblue" stroke="midnightblue" points="64.5406,-82.9847 56.8928,-75.6525 58.2989,-86.1536 64.5406,-82.9847"/>
</g>
<!-- Node5 -->
<g id="node5" class="node"><title>Node5</title>
<polygon fill="white" stroke="#bfbfbf" points="101.5,-56.5 101.5,-75.5 137.5,-75.5 137.5,-56.5 101.5,-56.5"/>
<text text-anchor="middle" x="119.5" y="-63.5" font-family="Helvetica,sans-Serif" font-size="10.00">map</text>
</g>
<!-- Node1&#45;&gt;Node5 -->
<g id="edge4" class="edge"><title>Node1&#45;&gt;Node5</title>
<path fill="none" stroke="midnightblue" d="M95.7011,-112.498C100.312,-103.682 105.723,-93.3385 110.219,-84.7432"/>
<polygon fill="midnightblue" stroke="midnightblue" points="113.44,-86.1357 114.974,-75.6525 107.238,-82.8912 113.44,-86.1357"/>
</g>
<!-- Node3 -->
<g id="node3" class="node"><title>Node3</title>
<polygon fill="white" stroke="#bfbfbf" points="0,-0.5 0,-19.5 45,-19.5 45,-0.5 0,-0.5"/>
<text text-anchor="middle" x="22.5" y="-7.5" font-family="Helvetica,sans-Serif" font-size="10.00">cstdint</text>
</g>
<!-- Node2&#45;&gt;Node3 -->
<g id="edge2" class="edge"><title>Node2&#45;&gt;Node3</title>
<path fill="none" stroke="midnightblue" d="M47.5461,-56.083C43.3959,-48.6127 37.3469,-37.7244 32.2333,-28.5199"/>
<polygon fill="midnightblue" stroke="midnightblue" points="35.2777,-26.7929 27.3617,-19.7511 29.1586,-30.1924 35.2777,-26.7929"/>
</g>
<!-- Node4 -->
<g id="node4" class="node"><title>Node4</title>
<polygon fill="white" stroke="#bfbfbf" points="63,-0.5 63,-19.5 104,-19.5 104,-0.5 63,-0.5"/>
<text text-anchor="middle" x="83.5" y="-7.5" font-family="Helvetica,sans-Serif" font-size="10.00">string</text>
</g>
<!-- Node2&#45;&gt;Node4 -->
<g id="edge3" class="edge"><title>Node2&#45;&gt;Node4</title>
<path fill="none" stroke="midnightblue" d="M57.619,-56.083C61.9075,-48.6127 68.1582,-37.7244 73.4423,-28.5199"/>
<polygon fill="midnightblue" stroke="midnightblue" points="76.5329,-30.1662 78.4762,-19.7511 70.4621,-26.6811 76.5329,-30.1662"/>
</g>
</g>
</svg>
