<?xml version="1.0" encoding="UTF-8" standalone="no"?>
<!DOCTYPE svg PUBLIC "-//W3C//DTD SVG 1.1//EN"
 "http://www.w3.org/Graphics/SVG/1.1/DTD/svg11.dtd">
<!-- Generated by graphviz version 2.38.0 (20140413.2041)
 -->
<!-- Title: QHttpClient.h Pages: 1 -->
<svg width="360pt" height="196pt"
 viewBox="0.00 0.00 359.68 196.00" xmlns="http://www.w3.org/2000/svg" xmlns:xlink="http://www.w3.org/1999/xlink">
<g id="graph0" class="graph" transform="scale(1 1) rotate(0) translate(4 192)">
<title>QHttpClient.h</title>
<polygon fill="white" stroke="none" points="-4,4 -4,-192 355.678,-192 355.678,4 -4,4"/>
<!-- Node1 -->
<g id="node1" class="node"><title>Node1</title>
<polygon fill="#bfbfbf" stroke="black" points="154,-168.5 154,-187.5 231,-187.5 231,-168.5 154,-168.5"/>
<text text-anchor="middle" x="192.5" y="-175.5" font-family="Helvetica,sans-Serif" font-size="10.00">QHttpClient.h</text>
</g>
<!-- Node2 -->
<g id="node2" class="node"><title>Node2</title>
<g id="a_node2"><a xlink:href="_q_sense_8h.xhtml" target="_top" xlink:title="QSense.h">
<polygon fill="white" stroke="black" points="105,-56.5 105,-75.5 166,-75.5 166,-56.5 105,-56.5"/>
<text text-anchor="middle" x="135.5" y="-63.5" font-family="Helvetica,sans-Serif" font-size="10.00">QSense.h</text>
</a>
</g>
</g>
<!-- Node1&#45;&gt;Node2 -->
<g id="edge1" class="edge"><title>Node1&#45;&gt;Node2</title>
<path fill="none" stroke="midnightblue" d="M183.09,-168.198C174.507,-159.689 162.047,-146.053 154.5,-132 146.678,-117.434 141.716,-99.2572 138.833,-85.8316"/>
<polygon fill="midnightblue" stroke="midnightblue" points="142.236,-84.9978 136.882,-75.8552 135.366,-86.341 142.236,-84.9978"/>
</g>
<!-- Node5 -->
<g id="node5" class="node"><title>Node5</title>
<g id="a_node5"><a xlink:href="_auto_ptr_8h.xhtml" target="_top" xlink:title="AutoPtr.h">
<polygon fill="white" stroke="black" points="163.5,-112.5 163.5,-131.5 221.5,-131.5 221.5,-112.5 163.5,-112.5"/>
<text text-anchor="middle" x="192.5" y="-119.5" font-family="Helvetica,sans-Serif" font-size="10.00">AutoPtr.h</text>
</a>
</g>
</g>
<!-- Node1&#45;&gt;Node5 -->
<g id="edge4" class="edge"><title>Node1&#45;&gt;Node5</title>
<path fill="none" stroke="midnightblue" d="M192.5,-168.083C192.5,-161.006 192.5,-150.861 192.5,-141.986"/>
<polygon fill="midnightblue" stroke="midnightblue" points="196,-141.751 192.5,-131.751 189,-141.751 196,-141.751"/>
</g>
<!-- Node7 -->
<g id="node7" class="node"><title>Node7</title>
<g id="a_node7"><a xlink:href="_ref_counted_object_8h.xhtml" target="_top" xlink:title="RefCountedObject.h">
<polygon fill="white" stroke="black" points="0,-112.5 0,-131.5 107,-131.5 107,-112.5 0,-112.5"/>
<text text-anchor="middle" x="53.5" y="-119.5" font-family="Helvetica,sans-Serif" font-size="10.00">RefCountedObject.h</text>
</a>
</g>
</g>
<!-- Node1&#45;&gt;Node7 -->
<g id="edge7" class="edge"><title>Node1&#45;&gt;Node7</title>
<path fill="none" stroke="midnightblue" d="M170.475,-168.444C147.396,-159.478 110.938,-145.314 84.8591,-135.183"/>
<polygon fill="midnightblue" stroke="midnightblue" points="86.0107,-131.875 75.4219,-131.516 83.4758,-138.4 86.0107,-131.875"/>
</g>
<!-- Node8 -->
<g id="node8" class="node"><title>Node8</title>
<g id="a_node8"><a xlink:href="_http_request_8h.xhtml" target="_top" xlink:title="net/HttpRequest.h">
<polygon fill="white" stroke="black" points="240,-112.5 240,-131.5 337,-131.5 337,-112.5 240,-112.5"/>
<text text-anchor="middle" x="288.5" y="-119.5" font-family="Helvetica,sans-Serif" font-size="10.00">net/HttpRequest.h</text>
</a>
</g>
</g>
<!-- Node1&#45;&gt;Node8 -->
<g id="edge9" class="edge"><title>Node1&#45;&gt;Node8</title>
<path fill="none" stroke="midnightblue" d="M207.924,-168.324C223.04,-159.822 246.315,-146.729 263.971,-136.797"/>
<polygon fill="midnightblue" stroke="midnightblue" points="266.114,-139.608 273.114,-131.655 262.683,-133.507 266.114,-139.608"/>
</g>
<!-- Node9 -->
<g id="node9" class="node"><title>Node9</title>
<polygon fill="white" stroke="#bfbfbf" points="308.5,-56.5 308.5,-75.5 344.5,-75.5 344.5,-56.5 308.5,-56.5"/>
<text text-anchor="middle" x="326.5" y="-63.5" font-family="Helvetica,sans-Serif" font-size="10.00">map</text>
</g>
<!-- Node1&#45;&gt;Node9 -->
<g id="edge12" class="edge"><title>Node1&#45;&gt;Node9</title>
<path fill="none" stroke="midnightblue" d="M231.077,-171.084C271.997,-163.928 332.633,-150.499 346.5,-132 357.073,-117.896 348.511,-98.135 339.538,-84.1127"/>
<polygon fill="midnightblue" stroke="midnightblue" points="342.366,-82.0489 333.778,-75.8437 336.622,-86.0498 342.366,-82.0489"/>
</g>
<!-- Node3 -->
<g id="node3" class="node"><title>Node3</title>
<polygon fill="white" stroke="#bfbfbf" points="83,-0.5 83,-19.5 128,-19.5 128,-0.5 83,-0.5"/>
<text text-anchor="middle" x="105.5" y="-7.5" font-family="Helvetica,sans-Serif" font-size="10.00">cstdint</text>
</g>
<!-- Node2&#45;&gt;Node3 -->
<g id="edge2" class="edge"><title>Node2&#45;&gt;Node3</title>
<path fill="none" stroke="midnightblue" d="M130.546,-56.083C126.396,-48.6127 120.347,-37.7244 115.233,-28.5199"/>
<polygon fill="midnightblue" stroke="midnightblue" points="118.278,-26.7929 110.362,-19.7511 112.159,-30.1924 118.278,-26.7929"/>
</g>
<!-- Node4 -->
<g id="node4" class="node"><title>Node4</title>
<polygon fill="white" stroke="#bfbfbf" points="146,-0.5 146,-19.5 187,-19.5 187,-0.5 146,-0.5"/>
<text text-anchor="middle" x="166.5" y="-7.5" font-family="Helvetica,sans-Serif" font-size="10.00">string</text>
</g>
<!-- Node2&#45;&gt;Node4 -->
<g id="edge3" class="edge"><title>Node2&#45;&gt;Node4</title>
<path fill="none" stroke="midnightblue" d="M140.619,-56.083C144.908,-48.6127 151.158,-37.7244 156.442,-28.5199"/>
<polygon fill="midnightblue" stroke="midnightblue" points="159.533,-30.1662 161.476,-19.7511 153.462,-26.6811 159.533,-30.1662"/>
</g>
<!-- Node5&#45;&gt;Node2 -->
<g id="edge5" class="edge"><title>Node5&#45;&gt;Node2</title>
<path fill="none" stroke="midnightblue" d="M183.342,-112.324C174.999,-104.42 162.468,-92.5482 152.323,-82.9377"/>
<polygon fill="midnightblue" stroke="midnightblue" points="154.491,-80.1705 144.825,-75.8339 149.677,-85.2522 154.491,-80.1705"/>
</g>
<!-- Node6 -->
<g id="node6" class="node"><title>Node6</title>
<polygon fill="white" stroke="#bfbfbf" points="184.5,-56.5 184.5,-75.5 242.5,-75.5 242.5,-56.5 184.5,-56.5"/>
<text text-anchor="middle" x="213.5" y="-63.5" font-family="Helvetica,sans-Serif" font-size="10.00">algorithm</text>
</g>
<!-- Node5&#45;&gt;Node6 -->
<g id="edge6" class="edge"><title>Node5&#45;&gt;Node6</title>
<path fill="none" stroke="midnightblue" d="M195.968,-112.083C198.812,-104.77 202.929,-94.1814 206.46,-85.1034"/>
<polygon fill="midnightblue" stroke="midnightblue" points="209.734,-86.3397 210.097,-75.7511 203.21,-83.8025 209.734,-86.3397"/>
</g>
<!-- Node7&#45;&gt;Node2 -->
<g id="edge8" class="edge"><title>Node7&#45;&gt;Node2</title>
<path fill="none" stroke="midnightblue" d="M66.6747,-112.324C79.3468,-103.979 98.7334,-91.2122 113.706,-81.3524"/>
<polygon fill="midnightblue" stroke="midnightblue" points="115.931,-84.0776 122.358,-75.6545 112.081,-78.2313 115.931,-84.0776"/>
</g>
<!-- Node8&#45;&gt;Node2 -->
<g id="edge10" class="edge"><title>Node8&#45;&gt;Node2</title>
<path fill="none" stroke="midnightblue" d="M264.257,-112.444C238.629,-103.399 198.015,-89.064 169.262,-78.9158"/>
<polygon fill="midnightblue" stroke="midnightblue" points="170.225,-75.5442 159.63,-75.5164 167.895,-82.1452 170.225,-75.5442"/>
</g>
<!-- Node8&#45;&gt;Node9 -->
<g id="edge11" class="edge"><title>Node8&#45;&gt;Node9</title>
<path fill="none" stroke="midnightblue" d="M294.775,-112.083C300.142,-104.455 308.018,-93.2645 314.579,-83.9408"/>
<polygon fill="midnightblue" stroke="midnightblue" points="317.449,-85.9434 320.342,-75.7511 311.725,-81.9149 317.449,-85.9434"/>
</g>
</g>
</svg>
