<?xml version="1.0" encoding="UTF-8" standalone="no"?>
<!DOCTYPE svg PUBLIC "-//W3C//DTD SVG 1.1//EN"
 "http://www.w3.org/Graphics/SVG/1.1/DTD/svg11.dtd">
<!-- Generated by graphviz version 2.38.0 (20140413.2041)
 -->
<!-- Title: /Users/rakesh/svn/customer/qsense/desktop/src/api/net/QHttpClient.h Pages: 1 -->
<svg width="320pt" height="218pt"
 viewBox="0.00 0.00 320.41 218.00" xmlns="http://www.w3.org/2000/svg" xmlns:xlink="http://www.w3.org/1999/xlink">
<g id="graph0" class="graph" transform="scale(1 1) rotate(0) translate(4 214)">
<title>/Users/rakesh/svn/customer/qsense/desktop/src/api/net/QHttpClient.h</title>
<polygon fill="white" stroke="none" points="-4,4 -4,-214 316.41,-214 316.41,4 -4,4"/>
<!-- Node1 -->
<g id="node1" class="node"><title>Node1</title>
<polygon fill="#bfbfbf" stroke="black" points="120,-168.5 120,-209.5 260,-209.5 260,-168.5 120,-168.5"/>
<text text-anchor="start" x="128" y="-197.5" font-family="Helvetica,sans-Serif" font-size="10.00">/Users/rakesh/svn/customer</text>
<text text-anchor="start" x="128" y="-186.5" font-family="Helvetica,sans-Serif" font-size="10.00">/qsense/desktop/src/api</text>
<text text-anchor="middle" x="190" y="-175.5" font-family="Helvetica,sans-Serif" font-size="10.00">/net/QHttpClient.h</text>
</g>
<!-- Node2 -->
<g id="node2" class="node"><title>Node2</title>
<g id="a_node2"><a xlink:href="_auto_ptr_8h.xhtml" target="_top" xlink:title="AutoPtr.h">
<polygon fill="white" stroke="black" points="0,-112.5 0,-131.5 58,-131.5 58,-112.5 0,-112.5"/>
<text text-anchor="middle" x="29" y="-119.5" font-family="Helvetica,sans-Serif" font-size="10.00">AutoPtr.h</text>
</a>
</g>
</g>
<!-- Node1&#45;&gt;Node2 -->
<g id="edge1" class="edge"><title>Node1&#45;&gt;Node2</title>
<path fill="none" stroke="midnightblue" d="M141.695,-168.498C115.112,-157.766 82.9205,-144.769 59.7613,-135.419"/>
<polygon fill="midnightblue" stroke="midnightblue" points="61.0147,-132.151 50.4316,-131.652 58.3941,-138.642 61.0147,-132.151"/>
</g>
<!-- Node7 -->
<g id="node7" class="node"><title>Node7</title>
<g id="a_node7"><a xlink:href="_ref_counted_object_8h.xhtml" target="_top" xlink:title="RefCountedObject.h">
<polygon fill="white" stroke="black" points="76.5,-112.5 76.5,-131.5 183.5,-131.5 183.5,-112.5 76.5,-112.5"/>
<text text-anchor="middle" x="130" y="-119.5" font-family="Helvetica,sans-Serif" font-size="10.00">RefCountedObject.h</text>
</a>
</g>
</g>
<!-- Node1&#45;&gt;Node7 -->
<g id="edge6" class="edge"><title>Node1&#45;&gt;Node7</title>
<path fill="none" stroke="midnightblue" d="M171.998,-168.498C163.33,-159.107 153.061,-147.983 144.847,-139.085"/>
<polygon fill="midnightblue" stroke="midnightblue" points="147.342,-136.627 137.987,-131.652 142.198,-141.375 147.342,-136.627"/>
</g>
<!-- Node8 -->
<g id="node8" class="node"><title>Node8</title>
<g id="a_node8"><a xlink:href="_http_request_8h.xhtml" target="_top" xlink:title="net/HttpRequest.h">
<polygon fill="white" stroke="black" points="201.5,-112.5 201.5,-131.5 298.5,-131.5 298.5,-112.5 201.5,-112.5"/>
<text text-anchor="middle" x="250" y="-119.5" font-family="Helvetica,sans-Serif" font-size="10.00">net/HttpRequest.h</text>
</a>
</g>
</g>
<!-- Node1&#45;&gt;Node8 -->
<g id="edge8" class="edge"><title>Node1&#45;&gt;Node8</title>
<path fill="none" stroke="midnightblue" d="M208.002,-168.498C216.67,-159.107 226.939,-147.983 235.153,-139.085"/>
<polygon fill="midnightblue" stroke="midnightblue" points="237.802,-141.375 242.013,-131.652 232.658,-136.627 237.802,-141.375"/>
</g>
<!-- Node9 -->
<g id="node9" class="node"><title>Node9</title>
<polygon fill="white" stroke="#bfbfbf" points="270,-56.5 270,-75.5 306,-75.5 306,-56.5 270,-56.5"/>
<text text-anchor="middle" x="288" y="-63.5" font-family="Helvetica,sans-Serif" font-size="10.00">map</text>
</g>
<!-- Node1&#45;&gt;Node9 -->
<g id="edge11" class="edge"><title>Node1&#45;&gt;Node9</title>
<path fill="none" stroke="midnightblue" d="M260.125,-169.934C278.874,-161.559 296.972,-149.441 308,-132 317.331,-117.243 309.209,-97.8464 300.683,-84.0939"/>
<polygon fill="midnightblue" stroke="midnightblue" points="303.434,-81.9145 294.926,-75.601 297.64,-85.8423 303.434,-81.9145"/>
</g>
<!-- Node3 -->
<g id="node3" class="node"><title>Node3</title>
<g id="a_node3"><a xlink:href="_q_sense_8h.xhtml" target="_top" xlink:title="QSense.h">
<polygon fill="white" stroke="black" points="99.5,-56.5 99.5,-75.5 160.5,-75.5 160.5,-56.5 99.5,-56.5"/>
<text text-anchor="middle" x="130" y="-63.5" font-family="Helvetica,sans-Serif" font-size="10.00">QSense.h</text>
</a>
</g>
</g>
<!-- Node2&#45;&gt;Node3 -->
<g id="edge2" class="edge"><title>Node2&#45;&gt;Node3</title>
<path fill="none" stroke="midnightblue" d="M45.2274,-112.324C61.351,-103.703 86.3002,-90.3643 104.964,-80.3855"/>
<polygon fill="midnightblue" stroke="midnightblue" points="106.644,-83.456 113.813,-75.6545 103.344,-77.283 106.644,-83.456"/>
</g>
<!-- Node6 -->
<g id="node6" class="node"><title>Node6</title>
<polygon fill="white" stroke="#bfbfbf" points="0,-56.5 0,-75.5 58,-75.5 58,-56.5 0,-56.5"/>
<text text-anchor="middle" x="29" y="-63.5" font-family="Helvetica,sans-Serif" font-size="10.00">algorithm</text>
</g>
<!-- Node2&#45;&gt;Node6 -->
<g id="edge5" class="edge"><title>Node2&#45;&gt;Node6</title>
<path fill="none" stroke="midnightblue" d="M29,-112.083C29,-105.006 29,-94.8611 29,-85.9865"/>
<polygon fill="midnightblue" stroke="midnightblue" points="32.5001,-85.751 29,-75.7511 25.5001,-85.7511 32.5001,-85.751"/>
</g>
<!-- Node4 -->
<g id="node4" class="node"><title>Node4</title>
<polygon fill="white" stroke="#bfbfbf" points="76.5,-0.5 76.5,-19.5 121.5,-19.5 121.5,-0.5 76.5,-0.5"/>
<text text-anchor="middle" x="99" y="-7.5" font-family="Helvetica,sans-Serif" font-size="10.00">cstdint</text>
</g>
<!-- Node3&#45;&gt;Node4 -->
<g id="edge3" class="edge"><title>Node3&#45;&gt;Node4</title>
<path fill="none" stroke="midnightblue" d="M124.881,-56.083C120.592,-48.6127 114.342,-37.7244 109.058,-28.5199"/>
<polygon fill="midnightblue" stroke="midnightblue" points="112.038,-26.6811 104.024,-19.7511 105.967,-30.1662 112.038,-26.6811"/>
</g>
<!-- Node5 -->
<g id="node5" class="node"><title>Node5</title>
<polygon fill="white" stroke="#bfbfbf" points="139.5,-0.5 139.5,-19.5 180.5,-19.5 180.5,-0.5 139.5,-0.5"/>
<text text-anchor="middle" x="160" y="-7.5" font-family="Helvetica,sans-Serif" font-size="10.00">string</text>
</g>
<!-- Node3&#45;&gt;Node5 -->
<g id="edge4" class="edge"><title>Node3&#45;&gt;Node5</title>
<path fill="none" stroke="midnightblue" d="M134.954,-56.083C139.104,-48.6127 145.153,-37.7244 150.267,-28.5199"/>
<polygon fill="midnightblue" stroke="midnightblue" points="153.341,-30.1924 155.138,-19.7511 147.222,-26.7929 153.341,-30.1924"/>
</g>
<!-- Node7&#45;&gt;Node3 -->
<g id="edge7" class="edge"><title>Node7&#45;&gt;Node3</title>
<path fill="none" stroke="midnightblue" d="M130,-112.083C130,-105.006 130,-94.8611 130,-85.9865"/>
<polygon fill="midnightblue" stroke="midnightblue" points="133.5,-85.751 130,-75.7511 126.5,-85.7511 133.5,-85.751"/>
</g>
<!-- Node8&#45;&gt;Node3 -->
<g id="edge9" class="edge"><title>Node8&#45;&gt;Node3</title>
<path fill="none" stroke="midnightblue" d="M230.986,-112.444C211.412,-103.636 180.692,-89.8116 158.271,-79.722"/>
<polygon fill="midnightblue" stroke="midnightblue" points="159.481,-76.4284 148.925,-75.5164 156.608,-82.8119 159.481,-76.4284"/>
</g>
<!-- Node8&#45;&gt;Node9 -->
<g id="edge10" class="edge"><title>Node8&#45;&gt;Node9</title>
<path fill="none" stroke="midnightblue" d="M256.275,-112.083C261.642,-104.455 269.518,-93.2645 276.079,-83.9408"/>
<polygon fill="midnightblue" stroke="midnightblue" points="278.949,-85.9434 281.842,-75.7511 273.225,-81.9149 278.949,-85.9434"/>
</g>
</g>
</svg>
