<?xml version="1.0" encoding="UTF-8" standalone="no"?>
<!DOCTYPE svg PUBLIC "-//W3C//DTD SVG 1.1//EN"
 "http://www.w3.org/Graphics/SVG/1.1/DTD/svg11.dtd">
<!-- Generated by graphviz version 2.38.0 (20140413.2041)
 -->
<!-- Title: /Users/rakesh/svn/customer/qsense/desktop/src/api/net/QHttpClient.h Pages: 1 -->
<svg width="359pt" height="218pt"
 viewBox="0.00 0.00 359.37 218.00" xmlns="http://www.w3.org/2000/svg" xmlns:xlink="http://www.w3.org/1999/xlink">
<g id="graph0" class="graph" transform="scale(1 1) rotate(0) translate(4 214)">
<title>/Users/rakesh/svn/customer/qsense/desktop/src/api/net/QHttpClient.h</title>
<polygon fill="white" stroke="none" points="-4,4 -4,-214 355.369,-214 355.369,4 -4,4"/>
<!-- Node1 -->
<g id="node1" class="node"><title>Node1</title>
<polygon fill="#bfbfbf" stroke="black" points="122.5,-168.5 122.5,-209.5 262.5,-209.5 262.5,-168.5 122.5,-168.5"/>
<text text-anchor="start" x="130.5" y="-197.5" font-family="Helvetica,sans-Serif" font-size="10.00">/Users/rakesh/svn/customer</text>
<text text-anchor="start" x="130.5" y="-186.5" font-family="Helvetica,sans-Serif" font-size="10.00">/qsense/desktop/src/api</text>
<text text-anchor="middle" x="192.5" y="-175.5" font-family="Helvetica,sans-Serif" font-size="10.00">/net/QHttpClient.h</text>
</g>
<!-- Node2 -->
<g id="node2" class="node"><title>Node2</title>
<g id="a_node2"><a xlink:href="_q_sense_8h.xhtml" target="_top" xlink:title="QSense.h">
<polygon fill="white" stroke="black" points="105,-56.5 105,-75.5 166,-75.5 166,-56.5 105,-56.5"/>
<text text-anchor="middle" x="135.5" y="-63.5" font-family="Helvetica,sans-Serif" font-size="10.00">QSense.h</text>
</a>
</g>
</g>
<!-- Node1&#45;&gt;Node2 -->
<g id="edge1" class="edge"><title>Node1&#45;&gt;Node2</title>
<path fill="none" stroke="midnightblue" d="M176.998,-168.435C169.38,-158.075 160.559,-144.861 154.5,-132 147.453,-117.044 142.415,-98.9051 139.305,-85.5936"/>
<polygon fill="midnightblue" stroke="midnightblue" points="142.702,-84.7433 137.145,-75.723 135.864,-86.2402 142.702,-84.7433"/>
</g>
<!-- Node5 -->
<g id="node5" class="node"><title>Node5</title>
<g id="a_node5"><a xlink:href="_auto_ptr_8h.xhtml" target="_top" xlink:title="AutoPtr.h">
<polygon fill="white" stroke="black" points="163.5,-112.5 163.5,-131.5 221.5,-131.5 221.5,-112.5 163.5,-112.5"/>
<text text-anchor="middle" x="192.5" y="-119.5" font-family="Helvetica,sans-Serif" font-size="10.00">AutoPtr.h</text>
</a>
</g>
</g>
<!-- Node1&#45;&gt;Node5 -->
<g id="edge4" class="edge"><title>Node1&#45;&gt;Node5</title>
<path fill="none" stroke="midnightblue" d="M192.5,-168.498C192.5,-160.065 192.5,-150.235 192.5,-141.874"/>
<polygon fill="midnightblue" stroke="midnightblue" points="196,-141.652 192.5,-131.652 189,-141.653 196,-141.652"/>
</g>
<!-- Node7 -->
<g id="node7" class="node"><title>Node7</title>
<g id="a_node7"><a xlink:href="_ref_counted_object_8h.xhtml" target="_top" xlink:title="RefCountedObject.h">
<polygon fill="white" stroke="black" points="0,-112.5 0,-131.5 107,-131.5 107,-112.5 0,-112.5"/>
<text text-anchor="middle" x="53.5" y="-119.5" font-family="Helvetica,sans-Serif" font-size="10.00">RefCountedObject.h</text>
</a>
</g>
</g>
<!-- Node1&#45;&gt;Node7 -->
<g id="edge7" class="edge"><title>Node1&#45;&gt;Node7</title>
<path fill="none" stroke="midnightblue" d="M150.795,-168.498C128.255,-157.957 101.044,-145.233 81.1364,-135.923"/>
<polygon fill="midnightblue" stroke="midnightblue" points="82.5441,-132.718 72.003,-131.652 79.5789,-139.059 82.5441,-132.718"/>
</g>
<!-- Node8 -->
<g id="node8" class="node"><title>Node8</title>
<g id="a_node8"><a xlink:href="_http_request_8h.xhtml" target="_top" xlink:title="net/HttpRequest.h">
<polygon fill="white" stroke="black" points="240,-112.5 240,-131.5 337,-131.5 337,-112.5 240,-112.5"/>
<text text-anchor="middle" x="288.5" y="-119.5" font-family="Helvetica,sans-Serif" font-size="10.00">net/HttpRequest.h</text>
</a>
</g>
</g>
<!-- Node1&#45;&gt;Node8 -->
<g id="edge9" class="edge"><title>Node1&#45;&gt;Node8</title>
<path fill="none" stroke="midnightblue" d="M221.303,-168.498C236.022,-158.532 253.624,-146.614 267.12,-137.476"/>
<polygon fill="midnightblue" stroke="midnightblue" points="269.403,-140.157 275.721,-131.652 265.478,-134.361 269.403,-140.157"/>
</g>
<!-- Node9 -->
<g id="node9" class="node"><title>Node9</title>
<polygon fill="white" stroke="#bfbfbf" points="308.5,-56.5 308.5,-75.5 344.5,-75.5 344.5,-56.5 308.5,-56.5"/>
<text text-anchor="middle" x="326.5" y="-63.5" font-family="Helvetica,sans-Serif" font-size="10.00">map</text>
</g>
<!-- Node1&#45;&gt;Node9 -->
<g id="edge12" class="edge"><title>Node1&#45;&gt;Node9</title>
<path fill="none" stroke="midnightblue" d="M262.512,-180.512C293.596,-173.303 327.404,-159.263 346.5,-132 356.516,-117.7 348.288,-98.2319 339.55,-84.3381"/>
<polygon fill="midnightblue" stroke="midnightblue" points="342.188,-81.9976 333.638,-75.7418 336.421,-85.9645 342.188,-81.9976"/>
</g>
<!-- Node3 -->
<g id="node3" class="node"><title>Node3</title>
<polygon fill="white" stroke="#bfbfbf" points="83,-0.5 83,-19.5 128,-19.5 128,-0.5 83,-0.5"/>
<text text-anchor="middle" x="105.5" y="-7.5" font-family="Helvetica,sans-Serif" font-size="10.00">cstdint</text>
</g>
<!-- Node2&#45;&gt;Node3 -->
<g id="edge2" class="edge"><title>Node2&#45;&gt;Node3</title>
<path fill="none" stroke="midnightblue" d="M130.546,-56.083C126.396,-48.6127 120.347,-37.7244 115.233,-28.5199"/>
<polygon fill="midnightblue" stroke="midnightblue" points="118.278,-26.7929 110.362,-19.7511 112.159,-30.1924 118.278,-26.7929"/>
</g>
<!-- Node4 -->
<g id="node4" class="node"><title>Node4</title>
<polygon fill="white" stroke="#bfbfbf" points="146,-0.5 146,-19.5 187,-19.5 187,-0.5 146,-0.5"/>
<text text-anchor="middle" x="166.5" y="-7.5" font-family="Helvetica,sans-Serif" font-size="10.00">string</text>
</g>
<!-- Node2&#45;&gt;Node4 -->
<g id="edge3" class="edge"><title>Node2&#45;&gt;Node4</title>
<path fill="none" stroke="midnightblue" d="M140.619,-56.083C144.908,-48.6127 151.158,-37.7244 156.442,-28.5199"/>
<polygon fill="midnightblue" stroke="midnightblue" points="159.533,-30.1662 161.476,-19.7511 153.462,-26.6811 159.533,-30.1662"/>
</g>
<!-- Node5&#45;&gt;Node2 -->
<g id="edge5" class="edge"><title>Node5&#45;&gt;Node2</title>
<path fill="none" stroke="midnightblue" d="M183.342,-112.324C174.999,-104.42 162.468,-92.5482 152.323,-82.9377"/>
<polygon fill="midnightblue" stroke="midnightblue" points="154.491,-80.1705 144.825,-75.8339 149.677,-85.2522 154.491,-80.1705"/>
</g>
<!-- Node6 -->
<g id="node6" class="node"><title>Node6</title>
<polygon fill="white" stroke="#bfbfbf" points="184.5,-56.5 184.5,-75.5 242.5,-75.5 242.5,-56.5 184.5,-56.5"/>
<text text-anchor="middle" x="213.5" y="-63.5" font-family="Helvetica,sans-Serif" font-size="10.00">algorithm</text>
</g>
<!-- Node5&#45;&gt;Node6 -->
<g id="edge6" class="edge"><title>Node5&#45;&gt;Node6</title>
<path fill="none" stroke="midnightblue" d="M195.968,-112.083C198.812,-104.77 202.929,-94.1814 206.46,-85.1034"/>
<polygon fill="midnightblue" stroke="midnightblue" points="209.734,-86.3397 210.097,-75.7511 203.21,-83.8025 209.734,-86.3397"/>
</g>
<!-- Node7&#45;&gt;Node2 -->
<g id="edge8" class="edge"><title>Node7&#45;&gt;Node2</title>
<path fill="none" stroke="midnightblue" d="M66.6747,-112.324C79.3468,-103.979 98.7334,-91.2122 113.706,-81.3524"/>
<polygon fill="midnightblue" stroke="midnightblue" points="115.931,-84.0776 122.358,-75.6545 112.081,-78.2313 115.931,-84.0776"/>
</g>
<!-- Node8&#45;&gt;Node2 -->
<g id="edge10" class="edge"><title>Node8&#45;&gt;Node2</title>
<path fill="none" stroke="midnightblue" d="M264.257,-112.444C238.629,-103.399 198.015,-89.064 169.262,-78.9158"/>
<polygon fill="midnightblue" stroke="midnightblue" points="170.225,-75.5442 159.63,-75.5164 167.895,-82.1452 170.225,-75.5442"/>
</g>
<!-- Node8&#45;&gt;Node9 -->
<g id="edge11" class="edge"><title>Node8&#45;&gt;Node9</title>
<path fill="none" stroke="midnightblue" d="M294.775,-112.083C300.142,-104.455 308.018,-93.2645 314.579,-83.9408"/>
<polygon fill="midnightblue" stroke="midnightblue" points="317.449,-85.9434 320.342,-75.7511 311.725,-81.9149 317.449,-85.9434"/>
</g>
</g>
</svg>
