<?xml version="1.0" encoding="UTF-8" standalone="no"?>
<!DOCTYPE svg PUBLIC "-//W3C//DTD SVG 1.1//EN"
 "http://www.w3.org/Graphics/SVG/1.1/DTD/svg11.dtd">
<!-- Generated by graphviz version 2.38.0 (20140413.2041)
 -->
<!-- Title: QSense.h Pages: 1 -->
<svg width="934pt" height="252pt"
 viewBox="0.00 0.00 934.29 252.00" xmlns="http://www.w3.org/2000/svg" xmlns:xlink="http://www.w3.org/1999/xlink">
<g id="graph0" class="graph" transform="scale(1 1) rotate(0) translate(4 248)">
<title>QSense.h</title>
<polygon fill="white" stroke="none" points="-4,4 -4,-248 930.294,-248 930.294,4 -4,4"/>
<!-- Node1 -->
<g id="node1" class="node"><title>Node1</title>
<polygon fill="#bfbfbf" stroke="black" points="419.294,-224.5 419.294,-243.5 480.294,-243.5 480.294,-224.5 419.294,-224.5"/>
<text text-anchor="middle" x="449.794" y="-231.5" font-family="Helvetica,sans-Serif" font-size="10.00">QSense.h</text>
</g>
<!-- Node2 -->
<g id="node2" class="node"><title>Node2</title>
<g id="a_node2"><a xlink:href="_auto_ptr_8h.xhtml" target="_top" xlink:title="AutoPtr.h">
<polygon fill="white" stroke="black" points="240.794,-168.5 240.794,-187.5 298.794,-187.5 298.794,-168.5 240.794,-168.5"/>
<text text-anchor="middle" x="269.794" y="-175.5" font-family="Helvetica,sans-Serif" font-size="10.00">AutoPtr.h</text>
</a>
</g>
</g>
<!-- Node1&#45;&gt;Node2 -->
<g id="edge1" class="edge"><title>Node1&#45;&gt;Node2</title>
<path fill="none" stroke="midnightblue" d="M411.686,-221.568C377.731,-211.381 328.805,-196.703 298.182,-187.516"/>
<polygon fill="midnightblue" stroke="midnightblue" points="410.688,-224.922 421.272,-224.444 412.7,-218.218 410.688,-224.922"/>
</g>
<!-- Node3 -->
<g id="node3" class="node"><title>Node3</title>
<g id="a_node3"><a xlink:href="_q_http_client_8h.xhtml" target="_top" xlink:title="QHttpClient.h">
<polygon fill="white" stroke="black" points="582.294,-112.5 582.294,-131.5 659.294,-131.5 659.294,-112.5 582.294,-112.5"/>
<text text-anchor="middle" x="620.794" y="-119.5" font-family="Helvetica,sans-Serif" font-size="10.00">QHttpClient.h</text>
</a>
</g>
</g>
<!-- Node1&#45;&gt;Node3 -->
<g id="edge16" class="edge"><title>Node1&#45;&gt;Node3</title>
<path fill="none" stroke="midnightblue" d="M490.55,-232.887C562.473,-231.727 707.314,-224.761 738.794,-188 764.884,-157.533 703.06,-138.715 659.403,-129.612"/>
<polygon fill="midnightblue" stroke="midnightblue" points="490.443,-229.388 480.49,-233.019 490.535,-236.387 490.443,-229.388"/>
</g>
<!-- Node4 -->
<g id="node4" class="node"><title>Node4</title>
<g id="a_node4"><a xlink:href="_byte_order_8h.xhtml" target="_top" xlink:title="ByteOrder.h">
<polygon fill="white" stroke="black" points="114.794,-168.5 114.794,-187.5 184.794,-187.5 184.794,-168.5 114.794,-168.5"/>
<text text-anchor="middle" x="149.794" y="-175.5" font-family="Helvetica,sans-Serif" font-size="10.00">ByteOrder.h</text>
</a>
</g>
</g>
<!-- Node1&#45;&gt;Node4 -->
<g id="edge3" class="edge"><title>Node1&#45;&gt;Node4</title>
<path fill="none" stroke="midnightblue" d="M409.251,-225.786C359.62,-216.942 273.011,-201.469 198.794,-188 194.284,-187.181 189.54,-186.316 184.854,-185.458"/>
<polygon fill="midnightblue" stroke="midnightblue" points="408.804,-229.261 419.263,-227.569 410.032,-222.37 408.804,-229.261"/>
</g>
<!-- Node5 -->
<g id="node5" class="node"><title>Node5</title>
<g id="a_node5"><a xlink:href="_event_8h.xhtml" target="_top" xlink:title="Event.h">
<polygon fill="white" stroke="black" points="756.794,-56.5 756.794,-75.5 806.794,-75.5 806.794,-56.5 756.794,-56.5"/>
<text text-anchor="middle" x="781.794" y="-63.5" font-family="Helvetica,sans-Serif" font-size="10.00">Event.h</text>
</a>
</g>
</g>
<!-- Node1&#45;&gt;Node5 -->
<g id="edge4" class="edge"><title>Node1&#45;&gt;Node5</title>
<path fill="none" stroke="midnightblue" d="M490.755,-231.621C568.03,-228.343 731.79,-217.975 778.794,-188 810.307,-167.903 826.422,-147.521 814.794,-112 810.092,-97.6367 798.866,-84.0685 790.814,-75.66"/>
<polygon fill="midnightblue" stroke="midnightblue" points="490.297,-228.136 480.447,-232.038 490.58,-235.131 490.297,-228.136"/>
</g>
<!-- Node6 -->
<g id="node6" class="node"><title>Node6</title>
<g id="a_node6"><a xlink:href="_sidecar_client_8h.xhtml" target="_top" xlink:title="SidecarClient.h">
<polygon fill="white" stroke="black" points="348.794,-0.5 348.794,-19.5 432.794,-19.5 432.794,-0.5 348.794,-0.5"/>
<text text-anchor="middle" x="390.794" y="-7.5" font-family="Helvetica,sans-Serif" font-size="10.00">SidecarClient.h</text>
</a>
</g>
</g>
<!-- Node1&#45;&gt;Node6 -->
<g id="edge17" class="edge"><title>Node1&#45;&gt;Node6</title>
<path fill="none" stroke="midnightblue" d="M408.817,-231.769C306.392,-228.271 45.5706,-216.615 19.794,-188 -80.2717,-76.9158 231.905,-29.1062 348.615,-15.4028"/>
<polygon fill="midnightblue" stroke="midnightblue" points="408.968,-235.276 419.078,-232.11 409.2,-228.28 408.968,-235.276"/>
</g>
<!-- Node7 -->
<g id="node7" class="node"><title>Node7</title>
<g id="a_node7"><a xlink:href="_base64_8h.xhtml" target="_top" xlink:title="Base64.h">
<polygon fill="white" stroke="black" points="317.294,-168.5 317.294,-187.5 376.294,-187.5 376.294,-168.5 317.294,-168.5"/>
<text text-anchor="middle" x="346.794" y="-175.5" font-family="Helvetica,sans-Serif" font-size="10.00">Base64.h</text>
</a>
</g>
</g>
<!-- Node1&#45;&gt;Node7 -->
<g id="edge6" class="edge"><title>Node1&#45;&gt;Node7</title>
<path fill="none" stroke="midnightblue" d="M424.215,-219.59C405.171,-209.605 379.73,-196.267 363.302,-187.655"/>
<polygon fill="midnightblue" stroke="midnightblue" points="422.763,-222.78 433.245,-224.324 426.014,-216.581 422.763,-222.78"/>
</g>
<!-- Node8 -->
<g id="node8" class="node"><title>Node8</title>
<g id="a_node8"><a xlink:href="_m_d5_8h.xhtml" target="_top" xlink:title="MD5.h">
<polygon fill="white" stroke="black" points="394.794,-168.5 394.794,-187.5 440.794,-187.5 440.794,-168.5 394.794,-168.5"/>
<text text-anchor="middle" x="417.794" y="-175.5" font-family="Helvetica,sans-Serif" font-size="10.00">MD5.h</text>
</a>
</g>
</g>
<!-- Node1&#45;&gt;Node8 -->
<g id="edge7" class="edge"><title>Node1&#45;&gt;Node8</title>
<path fill="none" stroke="midnightblue" d="M439.29,-215.275C433.821,-206.045 427.376,-195.17 422.98,-187.751"/>
<polygon fill="midnightblue" stroke="midnightblue" points="436.401,-217.264 444.51,-224.083 442.423,-213.696 436.401,-217.264"/>
</g>
<!-- Node9 -->
<g id="node9" class="node"><title>Node9</title>
<g id="a_node9"><a xlink:href="_sha1_8h.xhtml" target="_top" xlink:title="Sha1.h">
<polygon fill="white" stroke="black" points="458.794,-168.5 458.794,-187.5 506.794,-187.5 506.794,-168.5 458.794,-168.5"/>
<text text-anchor="middle" x="482.794" y="-175.5" font-family="Helvetica,sans-Serif" font-size="10.00">Sha1.h</text>
</a>
</g>
</g>
<!-- Node1&#45;&gt;Node9 -->
<g id="edge8" class="edge"><title>Node1&#45;&gt;Node9</title>
<path fill="none" stroke="midnightblue" d="M460.626,-215.275C466.266,-206.045 472.912,-195.17 477.446,-187.751"/>
<polygon fill="midnightblue" stroke="midnightblue" points="457.471,-213.725 455.243,-224.083 463.444,-217.375 457.471,-213.725"/>
</g>
<!-- Node10 -->
<g id="node10" class="node"><title>Node10</title>
<g id="a_node10"><a xlink:href="_location_8h.xhtml" target="_top" xlink:title="Location.h">
<polygon fill="white" stroke="black" points="863.294,-112.5 863.294,-131.5 926.294,-131.5 926.294,-112.5 863.294,-112.5"/>
<text text-anchor="middle" x="894.794" y="-119.5" font-family="Helvetica,sans-Serif" font-size="10.00">Location.h</text>
</a>
</g>
</g>
<!-- Node1&#45;&gt;Node10 -->
<g id="edge9" class="edge"><title>Node1&#45;&gt;Node10</title>
<path fill="none" stroke="midnightblue" d="M490.592,-232.563C579.771,-230.951 788.885,-223.393 848.794,-188 871.171,-174.78 885.49,-145.922 891.518,-131.524"/>
<polygon fill="midnightblue" stroke="midnightblue" points="490.27,-229.068 480.329,-232.732 490.385,-236.067 490.27,-229.068"/>
</g>
<!-- Node11 -->
<g id="node11" class="node"><title>Node11</title>
<g id="a_node11"><a xlink:href="_date_time_8h.xhtml" target="_top" xlink:title="DateTime.h">
<polygon fill="white" stroke="black" points="28.794,-168.5 28.794,-187.5 96.794,-187.5 96.794,-168.5 28.794,-168.5"/>
<text text-anchor="middle" x="62.794" y="-175.5" font-family="Helvetica,sans-Serif" font-size="10.00">DateTime.h</text>
</a>
</g>
</g>
<!-- Node1&#45;&gt;Node11 -->
<g id="edge11" class="edge"><title>Node1&#45;&gt;Node11</title>
<path fill="none" stroke="midnightblue" d="M408.653,-228.645C343.97,-221.567 214.637,-206.482 105.794,-188 102.937,-187.515 99.9801,-186.975 97.0168,-186.408"/>
<polygon fill="midnightblue" stroke="midnightblue" points="408.52,-232.151 418.84,-229.752 409.276,-225.192 408.52,-232.151"/>
</g>
<!-- Node12 -->
<g id="node12" class="node"><title>Node12</title>
<g id="a_node12"><a xlink:href="_reading_8h.xhtml" target="_top" xlink:title="Reading.h">
<polygon fill="white" stroke="black" points="181.794,-112.5 181.794,-131.5 243.794,-131.5 243.794,-112.5 181.794,-112.5"/>
<text text-anchor="middle" x="212.794" y="-119.5" font-family="Helvetica,sans-Serif" font-size="10.00">Reading.h</text>
</a>
</g>
</g>
<!-- Node1&#45;&gt;Node12 -->
<g id="edge18" class="edge"><title>Node1&#45;&gt;Node12</title>
<path fill="none" stroke="midnightblue" d="M408.92,-229.553C353.128,-224.035 257.147,-211.383 231.794,-188 215.719,-173.174 212.973,-145.579 212.673,-131.597"/>
<polygon fill="midnightblue" stroke="midnightblue" points="408.89,-233.066 419.177,-230.532 409.555,-226.098 408.89,-233.066"/>
</g>
<!-- Node13 -->
<g id="node13" class="node"><title>Node13</title>
<g id="a_node13"><a xlink:href="_http_request_8h.xhtml" target="_top" xlink:title="HttpRequest.h">
<polygon fill="white" stroke="black" points="524.794,-168.5 524.794,-187.5 604.794,-187.5 604.794,-168.5 524.794,-168.5"/>
<text text-anchor="middle" x="564.794" y="-175.5" font-family="Helvetica,sans-Serif" font-size="10.00">HttpRequest.h</text>
</a>
</g>
</g>
<!-- Node1&#45;&gt;Node13 -->
<g id="edge14" class="edge"><title>Node1&#45;&gt;Node13</title>
<path fill="none" stroke="midnightblue" d="M477.275,-220.096C498.76,-210.007 528.016,-196.27 546.657,-187.516"/>
<polygon fill="midnightblue" stroke="midnightblue" points="475.58,-217.025 468.016,-224.444 478.555,-223.361 475.58,-217.025"/>
</g>
<!-- Node14 -->
<g id="node14" class="node"><title>Node14</title>
<g id="a_node14"><a xlink:href="_ref_counted_object_8h.xhtml" target="_top" xlink:title="RefCountedObject.h">
<polygon fill="white" stroke="black" points="623.294,-168.5 623.294,-187.5 730.294,-187.5 730.294,-168.5 623.294,-168.5"/>
<text text-anchor="middle" x="676.794" y="-175.5" font-family="Helvetica,sans-Serif" font-size="10.00">RefCountedObject.h</text>
</a>
</g>
</g>
<!-- Node1&#45;&gt;Node14 -->
<g id="edge19" class="edge"><title>Node1&#45;&gt;Node14</title>
<path fill="none" stroke="midnightblue" d="M490.192,-223.39C532.908,-213.228 599.668,-197.347 640.684,-187.59"/>
<polygon fill="midnightblue" stroke="midnightblue" points="489.327,-219.998 480.408,-225.717 490.947,-226.808 489.327,-219.998"/>
</g>
<!-- Node15 -->
<g id="node15" class="node"><title>Node15</title>
<g id="a_node15"><a xlink:href="_u_u_i_d_8h.xhtml" target="_top" xlink:title="UUID.h">
<polygon fill="white" stroke="black" points="757.294,-112.5 757.294,-131.5 806.294,-131.5 806.294,-112.5 757.294,-112.5"/>
<text text-anchor="middle" x="781.794" y="-119.5" font-family="Helvetica,sans-Serif" font-size="10.00">UUID.h</text>
</a>
</g>
</g>
<!-- Node1&#45;&gt;Node15 -->
<g id="edge21" class="edge"><title>Node1&#45;&gt;Node15</title>
<path fill="none" stroke="midnightblue" d="M490.677,-232.008C564.583,-229.421 716.496,-220.228 756.794,-188 774.357,-173.954 779.596,-146.006 781.148,-131.771"/>
<polygon fill="midnightblue" stroke="midnightblue" points="490.243,-228.52 480.362,-232.343 490.47,-235.516 490.243,-228.52"/>
</g>
<!-- Node2&#45;&gt;Node3 -->
<g id="edge2" class="edge"><title>Node2&#45;&gt;Node3</title>
<path fill="none" stroke="midnightblue" d="M309.233,-167.864C413.199,-148.436 524.598,-134.258 582.06,-127.433"/>
<polygon fill="midnightblue" stroke="midnightblue" points="308.373,-164.465 299.197,-169.761 309.673,-171.343 308.373,-164.465"/>
</g>
<!-- Node5&#45;&gt;Node6 -->
<g id="edge5" class="edge"><title>Node5&#45;&gt;Node6</title>
<path fill="none" stroke="midnightblue" d="M746.819,-60.1698C674.892,-50.2361 510.633,-27.5507 432.968,-16.8245"/>
<polygon fill="midnightblue" stroke="midnightblue" points="746.356,-63.6388 756.74,-61.5399 747.313,-56.7046 746.356,-63.6388"/>
</g>
<!-- Node10&#45;&gt;Node5 -->
<g id="edge10" class="edge"><title>Node10&#45;&gt;Node5</title>
<path fill="none" stroke="midnightblue" d="M867.791,-108.096C846.68,-98.0073 817.932,-84.2697 799.615,-75.5164"/>
<polygon fill="midnightblue" stroke="midnightblue" points="866.357,-111.29 876.889,-112.444 869.375,-104.974 866.357,-111.29"/>
</g>
<!-- Node11&#45;&gt;Node12 -->
<g id="edge12" class="edge"><title>Node11&#45;&gt;Node12</title>
<path fill="none" stroke="midnightblue" d="M96.0185,-165.039C124.242,-154.879 164.056,-140.546 189.137,-131.516"/>
<polygon fill="midnightblue" stroke="midnightblue" points="94.7853,-161.763 86.5619,-168.444 97.1564,-168.349 94.7853,-161.763"/>
</g>
<!-- Node12&#45;&gt;Node5 -->
<g id="edge13" class="edge"><title>Node12&#45;&gt;Node5</title>
<path fill="none" stroke="midnightblue" d="M254.341,-117.057C365.455,-106.512 667.08,-77.8867 756.489,-69.4015"/>
<polygon fill="midnightblue" stroke="midnightblue" points="253.821,-113.591 244.196,-118.02 254.482,-120.559 253.821,-113.591"/>
</g>
<!-- Node13&#45;&gt;Node3 -->
<g id="edge15" class="edge"><title>Node13&#45;&gt;Node3</title>
<path fill="none" stroke="midnightblue" d="M581.124,-161.253C591.059,-151.673 603.382,-139.791 611.633,-131.834"/>
<polygon fill="midnightblue" stroke="midnightblue" points="578.56,-158.863 573.791,-168.324 583.419,-163.902 578.56,-158.863"/>
</g>
<!-- Node14&#45;&gt;Node3 -->
<g id="edge20" class="edge"><title>Node14&#45;&gt;Node3</title>
<path fill="none" stroke="midnightblue" d="M660.464,-161.253C650.529,-151.673 638.206,-139.791 629.955,-131.834"/>
<polygon fill="midnightblue" stroke="midnightblue" points="658.169,-163.902 667.797,-168.324 663.028,-158.863 658.169,-163.902"/>
</g>
<!-- Node15&#45;&gt;Node5 -->
<g id="edge22" class="edge"><title>Node15&#45;&gt;Node5</title>
<path fill="none" stroke="midnightblue" d="M781.794,-101.805C781.794,-92.9102 781.794,-82.7798 781.794,-75.7511"/>
<polygon fill="midnightblue" stroke="midnightblue" points="778.294,-102.083 781.794,-112.083 785.294,-102.083 778.294,-102.083"/>
</g>
</g>
</svg>
