<?xml version="1.0" encoding="UTF-8" standalone="no"?>
<!DOCTYPE svg PUBLIC "-//W3C//DTD SVG 1.1//EN"
 "http://www.w3.org/Graphics/SVG/1.1/DTD/svg11.dtd">
<!-- Generated by graphviz version 2.38.0 (20140413.2041)
 -->
<!-- Title: /Users/rakesh/svn/customer/qsense/desktop/src/api/QSense.h Pages: 1 -->
<!--zoomable 362 -->
<svg id="main" version="1.1" xmlns="http://www.w3.org/2000/svg" xmlns:xlink="http://www.w3.org/1999/xlink" xml:space="preserve" onload="init(evt)">
<style type="text/css"><![CDATA[
.edge:hover path { stroke: red; }
.edge:hover polygon { stroke: red; fill: red; }
]]></style>
<script type="text/javascript"><![CDATA[
var edges = document.getElementsByTagName('g');
if (edges && edges.length) {
  for (var i=0;i<edges.length;i++) {
    if (edges[i].id.substr(0,4)=='edge') {
      edges[i].setAttribute('class','edge');
    }
  }
}
]]></script>
        <defs>
                <circle id="rim" cx="0" cy="0" r="7"/>
                <circle id="rim2" cx="0" cy="0" r="3.5"/>
                <g id="zoomPlus">
                        <use xlink:href="#rim" fill="#404040">
                                <set attributeName="fill" to="#808080" begin="zoomplus.mouseover" end="zoomplus.mouseout"/>
                        </use>
                        <path d="M-4,0h8M0,-4v8" fill="none" stroke="white" stroke-width="1.5" pointer-events="none"/>
                </g>
                <g id="zoomMin">
                        <use xlink:href="#rim" fill="#404040">
                                <set attributeName="fill" to="#808080" begin="zoomminus.mouseover" end="zoomminus.mouseout"/>
                        </use>
                        <path d="M-4,0h8" fill="none" stroke="white" stroke-width="1.5" pointer-events="none"/>
                </g>
                <g id="dirArrow">
                        <path fill="none" stroke="white" stroke-width="1.5" d="M0,-3.0v7 M-2.5,-0.5L0,-3.0L2.5,-0.5"/>
                </g>
               <g id="resetDef">
                       <use xlink:href="#rim2" fill="#404040">
                               <set attributeName="fill" to="#808080" begin="reset.mouseover" end="reset.mouseout"/>
                       </use>
               </g>
        </defs>

<script type="text/javascript">
var viewWidth = 1266;
var viewHeight = 362;
var sectionId = 'dynsection-1';
</script>
<script xlink:href="svgpan.js"/>
<svg id="graph" class="graph">
<g id="viewport">
<title>/Users/rakesh/svn/customer/qsense/desktop/src/api/QSense.h</title>
<polygon fill="white" stroke="none" points="-4,4 -4,-358 1261.5,-358 1261.5,4 -4,4"/>
<!-- Node1 -->
<g id="node1" class="node"><title>Node1</title>
<polygon fill="#bfbfbf" stroke="black" points="550,-312.5 550,-353.5 690,-353.5 690,-312.5 550,-312.5"/>
<text text-anchor="start" x="558" y="-341.5" font-family="Helvetica,sans-Serif" font-size="10.00">/Users/rakesh/svn/customer</text>
<text text-anchor="start" x="558" y="-330.5" font-family="Helvetica,sans-Serif" font-size="10.00">/qsense/desktop/src/api</text>
<text text-anchor="middle" x="620" y="-319.5" font-family="Helvetica,sans-Serif" font-size="10.00">/QSense.h</text>
</g>
<!-- Node2 -->
<g id="node2" class="node"><title>Node2</title>
<g id="a_node2"><a xlink:href="_byte_order_8h.xhtml" target="_top" xlink:title="/Users/rakesh/svn/customer\l/qsense/desktop/src/api\l/ByteOrder.h">
<polygon fill="white" stroke="black" points="0,-234.5 0,-275.5 140,-275.5 140,-234.5 0,-234.5"/>
<text text-anchor="start" x="8" y="-263.5" font-family="Helvetica,sans-Serif" font-size="10.00">/Users/rakesh/svn/customer</text>
<text text-anchor="start" x="8" y="-252.5" font-family="Helvetica,sans-Serif" font-size="10.00">/qsense/desktop/src/api</text>
<text text-anchor="middle" x="70" y="-241.5" font-family="Helvetica,sans-Serif" font-size="10.00">/ByteOrder.h</text>
</a>
</g>
</g>
<!-- Node1&#45;&gt;Node2 -->
<g id="edge1" class="edge"><title>Node1&#45;&gt;Node2</title>
<path fill="none" stroke="midnightblue" d="M539.556,-325.146C446.343,-316.554 288.34,-299.984 154,-276 149.425,-275.183 144.726,-274.271 140.001,-273.298"/>
<polygon fill="midnightblue" stroke="midnightblue" points="539.484,-328.654 549.761,-326.078 540.122,-321.683 539.484,-328.654"/>
</g>
<!-- Node3 -->
<g id="node3" class="node"><title>Node3</title>
<g id="a_node3"><a xlink:href="_event_8h.xhtml" target="_top" xlink:title="/Users/rakesh/svn/customer\l/qsense/desktop/src/api\l/Event.h">
<polygon fill="white" stroke="black" points="540,-78.5 540,-119.5 680,-119.5 680,-78.5 540,-78.5"/>
<text text-anchor="start" x="548" y="-107.5" font-family="Helvetica,sans-Serif" font-size="10.00">/Users/rakesh/svn/customer</text>
<text text-anchor="start" x="548" y="-96.5" font-family="Helvetica,sans-Serif" font-size="10.00">/qsense/desktop/src/api</text>
<text text-anchor="middle" x="610" y="-85.5" font-family="Helvetica,sans-Serif" font-size="10.00">/Event.h</text>
</a>
</g>
</g>
<!-- Node1&#45;&gt;Node3 -->
<g id="edge2" class="edge"><title>Node1&#45;&gt;Node3</title>
<path fill="none" stroke="midnightblue" d="M700.197,-325.206C766.542,-317.727 853.284,-303.003 875,-276 893.846,-252.567 864.721,-163.692 857,-156 832.39,-131.485 744.071,-115.899 680.058,-107.559"/>
<polygon fill="midnightblue" stroke="midnightblue" points="699.714,-321.738 690.153,-326.302 700.473,-328.697 699.714,-321.738"/>
</g>
<!-- Node4 -->
<g id="node4" class="node"><title>Node4</title>
<g id="a_node4"><a xlink:href="_sidecar_client_8h.xhtml" target="_top" xlink:title="/Users/rakesh/svn/customer\l/qsense/desktop/src/api\l/net/SidecarClient.h">
<polygon fill="white" stroke="black" points="319,-0.5 319,-41.5 459,-41.5 459,-0.5 319,-0.5"/>
<text text-anchor="start" x="327" y="-29.5" font-family="Helvetica,sans-Serif" font-size="10.00">/Users/rakesh/svn/customer</text>
<text text-anchor="start" x="327" y="-18.5" font-family="Helvetica,sans-Serif" font-size="10.00">/qsense/desktop/src/api</text>
<text text-anchor="middle" x="389" y="-7.5" font-family="Helvetica,sans-Serif" font-size="10.00">/net/SidecarClient.h</text>
</a>
</g>
</g>
<!-- Node1&#45;&gt;Node4 -->
<g id="edge13" class="edge"><title>Node1&#45;&gt;Node4</title>
<path fill="none" stroke="midnightblue" d="M539.613,-332.951C432.825,-332.296 252.763,-323.871 211,-276 140.29,-194.949 288.297,-85.7398 356.754,-41.6607"/>
<polygon fill="midnightblue" stroke="midnightblue" points="539.697,-336.451 549.711,-332.991 539.725,-329.451 539.697,-336.451"/>
</g>
<!-- Node5 -->
<g id="node5" class="node"><title>Node5</title>
<g id="a_node5"><a xlink:href="_base64_8h.xhtml" target="_top" xlink:title="/Users/rakesh/svn/customer\l/qsense/desktop/src/api\l/hash/Base64.h">
<polygon fill="white" stroke="black" points="234,-234.5 234,-275.5 374,-275.5 374,-234.5 234,-234.5"/>
<text text-anchor="start" x="242" y="-263.5" font-family="Helvetica,sans-Serif" font-size="10.00">/Users/rakesh/svn/customer</text>
<text text-anchor="start" x="242" y="-252.5" font-family="Helvetica,sans-Serif" font-size="10.00">/qsense/desktop/src/api</text>
<text text-anchor="middle" x="304" y="-241.5" font-family="Helvetica,sans-Serif" font-size="10.00">/hash/Base64.h</text>
</a>
</g>
</g>
<!-- Node1&#45;&gt;Node5 -->
<g id="edge4" class="edge"><title>Node1&#45;&gt;Node5</title>
<path fill="none" stroke="midnightblue" d="M540.025,-313.437C494.047,-302.682 435.225,-288.78 383,-276 380.114,-275.294 377.17,-274.569 374.197,-273.833"/>
<polygon fill="midnightblue" stroke="midnightblue" points="539.396,-316.884 549.93,-315.752 540.989,-310.068 539.396,-316.884"/>
</g>
<!-- Node6 -->
<g id="node6" class="node"><title>Node6</title>
<g id="a_node6"><a xlink:href="_m_d5_8h.xhtml" target="_top" xlink:title="/Users/rakesh/svn/customer\l/qsense/desktop/src/api\l/hash/MD5.h">
<polygon fill="white" stroke="black" points="392,-234.5 392,-275.5 532,-275.5 532,-234.5 392,-234.5"/>
<text text-anchor="start" x="400" y="-263.5" font-family="Helvetica,sans-Serif" font-size="10.00">/Users/rakesh/svn/customer</text>
<text text-anchor="start" x="400" y="-252.5" font-family="Helvetica,sans-Serif" font-size="10.00">/qsense/desktop/src/api</text>
<text text-anchor="middle" x="462" y="-241.5" font-family="Helvetica,sans-Serif" font-size="10.00">/hash/MD5.h</text>
</a>
</g>
</g>
<!-- Node1&#45;&gt;Node6 -->
<g id="edge5" class="edge"><title>Node1&#45;&gt;Node6</title>
<path fill="none" stroke="midnightblue" d="M570.206,-308.049C548.415,-297.566 523.172,-285.424 502.551,-275.506"/>
<polygon fill="midnightblue" stroke="midnightblue" points="568.782,-311.247 579.311,-312.428 571.817,-304.939 568.782,-311.247"/>
</g>
<!-- Node7 -->
<g id="node7" class="node"><title>Node7</title>
<g id="a_node7"><a xlink:href="_sha1_8h.xhtml" target="_top" xlink:title="/Users/rakesh/svn/customer\l/qsense/desktop/src/api\l/hash/Sha1.h">
<polygon fill="white" stroke="black" points="550,-234.5 550,-275.5 690,-275.5 690,-234.5 550,-234.5"/>
<text text-anchor="start" x="558" y="-263.5" font-family="Helvetica,sans-Serif" font-size="10.00">/Users/rakesh/svn/customer</text>
<text text-anchor="start" x="558" y="-252.5" font-family="Helvetica,sans-Serif" font-size="10.00">/qsense/desktop/src/api</text>
<text text-anchor="middle" x="620" y="-241.5" font-family="Helvetica,sans-Serif" font-size="10.00">/hash/Sha1.h</text>
</a>
</g>
</g>
<!-- Node1&#45;&gt;Node7 -->
<g id="edge6" class="edge"><title>Node1&#45;&gt;Node7</title>
<path fill="none" stroke="midnightblue" d="M620,-302.297C620,-293.301 620,-283.653 620,-275.506"/>
<polygon fill="midnightblue" stroke="midnightblue" points="616.5,-302.428 620,-312.428 623.5,-302.428 616.5,-302.428"/>
</g>
<!-- Node8 -->
<g id="node8" class="node"><title>Node8</title>
<g id="a_node8"><a xlink:href="_location_8h.xhtml" target="_top" xlink:title="/Users/rakesh/svn/customer\l/qsense/desktop/src/api\l/Location.h">
<polygon fill="white" stroke="black" points="373,-156.5 373,-197.5 513,-197.5 513,-156.5 373,-156.5"/>
<text text-anchor="start" x="381" y="-185.5" font-family="Helvetica,sans-Serif" font-size="10.00">/Users/rakesh/svn/customer</text>
<text text-anchor="start" x="381" y="-174.5" font-family="Helvetica,sans-Serif" font-size="10.00">/qsense/desktop/src/api</text>
<text text-anchor="middle" x="443" y="-163.5" font-family="Helvetica,sans-Serif" font-size="10.00">/Location.h</text>
</a>
</g>
</g>
<!-- Node1&#45;&gt;Node8 -->
<g id="edge7" class="edge"><title>Node1&#45;&gt;Node8</title>
<path fill="none" stroke="midnightblue" d="M539.477,-332.488C435.993,-331.197 264.88,-321.933 225,-276 178.208,-222.106 292.701,-196.393 372.876,-185.322"/>
<polygon fill="midnightblue" stroke="midnightblue" points="539.547,-335.989 549.582,-332.591 539.619,-328.989 539.547,-335.989"/>
</g>
<!-- Node9 -->
<g id="node9" class="node"><title>Node9</title>
<g id="a_node9"><a xlink:href="_date_time_8h.xhtml" target="_top" xlink:title="/Users/rakesh/svn/customer\l/qsense/desktop/src/api\l/net/DateTime.h">
<polygon fill="white" stroke="black" points="708,-234.5 708,-275.5 848,-275.5 848,-234.5 708,-234.5"/>
<text text-anchor="start" x="716" y="-263.5" font-family="Helvetica,sans-Serif" font-size="10.00">/Users/rakesh/svn/customer</text>
<text text-anchor="start" x="716" y="-252.5" font-family="Helvetica,sans-Serif" font-size="10.00">/qsense/desktop/src/api</text>
<text text-anchor="middle" x="778" y="-241.5" font-family="Helvetica,sans-Serif" font-size="10.00">/net/DateTime.h</text>
</a>
</g>
</g>
<!-- Node1&#45;&gt;Node9 -->
<g id="edge9" class="edge"><title>Node1&#45;&gt;Node9</title>
<path fill="none" stroke="midnightblue" d="M669.794,-308.049C691.585,-297.566 716.828,-285.424 737.449,-275.506"/>
<polygon fill="midnightblue" stroke="midnightblue" points="668.183,-304.939 660.689,-312.428 671.218,-311.247 668.183,-304.939"/>
</g>
<!-- Node10 -->
<g id="node10" class="node"><title>Node10</title>
<g id="a_node10"><a xlink:href="_reading_8h.xhtml" target="_top" xlink:title="/Users/rakesh/svn/customer\l/qsense/desktop/src/api\l/Reading.h">
<polygon fill="white" stroke="black" points="708,-156.5 708,-197.5 848,-197.5 848,-156.5 708,-156.5"/>
<text text-anchor="start" x="716" y="-185.5" font-family="Helvetica,sans-Serif" font-size="10.00">/Users/rakesh/svn/customer</text>
<text text-anchor="start" x="716" y="-174.5" font-family="Helvetica,sans-Serif" font-size="10.00">/qsense/desktop/src/api</text>
<text text-anchor="middle" x="778" y="-163.5" font-family="Helvetica,sans-Serif" font-size="10.00">/Reading.h</text>
</a>
</g>
</g>
<!-- Node1&#45;&gt;Node10 -->
<g id="edge14" class="edge"><title>Node1&#45;&gt;Node10</title>
<path fill="none" stroke="midnightblue" d="M700.283,-323.65C761.153,-315.468 837.554,-300.576 857,-276 868.583,-261.362 865.571,-250.582 857,-234 849.049,-218.617 834.707,-206.548 820.405,-197.615"/>
<polygon fill="midnightblue" stroke="midnightblue" points="699.737,-320.192 690.274,-324.955 700.642,-327.133 699.737,-320.192"/>
</g>
<!-- Node11 -->
<g id="node11" class="node"><title>Node11</title>
<g id="a_node11"><a xlink:href="_q_http_client_8h.xhtml" target="_top" xlink:title="/Users/rakesh/svn/customer\l/qsense/desktop/src/api\l/net/QHttpClient.h">
<polygon fill="white" stroke="black" points="942,-234.5 942,-275.5 1082,-275.5 1082,-234.5 942,-234.5"/>
<text text-anchor="start" x="950" y="-263.5" font-family="Helvetica,sans-Serif" font-size="10.00">/Users/rakesh/svn/customer</text>
<text text-anchor="start" x="950" y="-252.5" font-family="Helvetica,sans-Serif" font-size="10.00">/qsense/desktop/src/api</text>
<text text-anchor="middle" x="1012" y="-241.5" font-family="Helvetica,sans-Serif" font-size="10.00">/net/QHttpClient.h</text>
</a>
</g>
</g>
<!-- Node1&#45;&gt;Node11 -->
<g id="edge12" class="edge"><title>Node1&#45;&gt;Node11</title>
<path fill="none" stroke="midnightblue" d="M700.394,-318.604C762.678,-307.931 851.036,-292.147 928,-276 932.548,-275.046 937.227,-274.029 941.937,-272.98"/>
<polygon fill="midnightblue" stroke="midnightblue" points="699.509,-315.205 690.241,-320.338 700.687,-322.105 699.509,-315.205"/>
</g>
<!-- Node12 -->
<g id="node12" class="node"><title>Node12</title>
<g id="a_node12"><a xlink:href="_u_u_i_d_8h.xhtml" target="_top" xlink:title="/Users/rakesh/svn/customer\l/qsense/desktop/src/api/UUID.h">
<polygon fill="white" stroke="black" points="1100.5,-240 1100.5,-270 1257.5,-270 1257.5,-240 1100.5,-240"/>
<text text-anchor="start" x="1108.5" y="-258" font-family="Helvetica,sans-Serif" font-size="10.00">/Users/rakesh/svn/customer</text>
<text text-anchor="middle" x="1179" y="-247" font-family="Helvetica,sans-Serif" font-size="10.00">/qsense/desktop/src/api/UUID.h</text>
</a>
</g>
</g>
<!-- Node1&#45;&gt;Node12 -->
<g id="edge15" class="edge"><title>Node1&#45;&gt;Node12</title>
<path fill="none" stroke="midnightblue" d="M700.168,-325.058C794.196,-316.318 954.572,-299.546 1091,-276 1100.73,-274.321 1111,-272.258 1120.95,-270.1"/>
<polygon fill="midnightblue" stroke="midnightblue" points="699.794,-321.577 690.158,-325.981 700.437,-328.548 699.794,-321.577"/>
</g>
<!-- Node3&#45;&gt;Node4 -->
<g id="edge3" class="edge"><title>Node3&#45;&gt;Node4</title>
<path fill="none" stroke="midnightblue" d="M543.599,-75.1652C512.401,-64.4366 475.593,-51.7786 445.72,-41.5056"/>
<polygon fill="midnightblue" stroke="midnightblue" points="542.492,-78.4858 553.087,-78.4281 544.769,-71.8663 542.492,-78.4858"/>
</g>
<!-- Node8&#45;&gt;Node3 -->
<g id="edge8" class="edge"><title>Node8&#45;&gt;Node3</title>
<path fill="none" stroke="midnightblue" d="M495.322,-152.189C518.425,-141.675 545.246,-129.469 567.139,-119.506"/>
<polygon fill="midnightblue" stroke="midnightblue" points="493.659,-149.1 486.007,-156.428 496.558,-155.472 493.659,-149.1"/>
</g>
<!-- Node9&#45;&gt;Node10 -->
<g id="edge10" class="edge"><title>Node9&#45;&gt;Node10</title>
<path fill="none" stroke="midnightblue" d="M778,-224.297C778,-215.301 778,-205.653 778,-197.506"/>
<polygon fill="midnightblue" stroke="midnightblue" points="774.5,-224.428 778,-234.428 781.5,-224.428 774.5,-224.428"/>
</g>
<!-- Node10&#45;&gt;Node3 -->
<g id="edge11" class="edge"><title>Node10&#45;&gt;Node3</title>
<path fill="none" stroke="midnightblue" d="M725.365,-152.189C702.124,-141.675 675.141,-129.469 653.118,-119.506"/>
<polygon fill="midnightblue" stroke="midnightblue" points="724.182,-155.495 734.736,-156.428 727.067,-149.117 724.182,-155.495"/>
</g>
</g>
</svg>
        <g id="navigator" transform="translate(0 0)" fill="#404254">
                <rect fill="#f2f5e9" fill-opacity="0.5" stroke="#606060" stroke-width=".5" x="0" y="0" width="60" height="60"/>
                <use id="zoomplus" xlink:href="#zoomPlus" x="17" y="9" onmousedown="handleZoom(evt,'in')"/>
                <use id="zoomminus" xlink:href="#zoomMin" x="42" y="9" onmousedown="handleZoom(evt,'out')"/>
                <use id="reset" xlink:href="#resetDef" x="30" y="36" onmousedown="handleReset()"/>
                <g id="arrowUp" xlink:href="#dirArrow" transform="translate(30 24)" onmousedown="handlePan(0,-1)">
                  <use xlink:href="#rim" fill="#404040">
                        <set attributeName="fill" to="#808080" begin="arrowUp.mouseover" end="arrowUp.mouseout"/>
                  </use>
                  <path fill="none" stroke="white" stroke-width="1.5" d="M0,-3.0v7 M-2.5,-0.5L0,-3.0L2.5,-0.5"/>
                </g>
                <g id="arrowRight" xlink:href="#dirArrow" transform="rotate(90) translate(36 -43)" onmousedown="handlePan(1,0)">
                  <use xlink:href="#rim" fill="#404040">
                        <set attributeName="fill" to="#808080" begin="arrowRight.mouseover" end="arrowRight.mouseout"/>
                  </use>
                  <path fill="none" stroke="white" stroke-width="1.5" d="M0,-3.0v7 M-2.5,-0.5L0,-3.0L2.5,-0.5"/>
                </g>
                <g id="arrowDown" xlink:href="#dirArrow" transform="rotate(180) translate(-30 -48)" onmousedown="handlePan(0,1)">
                  <use xlink:href="#rim" fill="#404040">
                        <set attributeName="fill" to="#808080" begin="arrowDown.mouseover" end="arrowDown.mouseout"/>
                  </use>
                  <path fill="none" stroke="white" stroke-width="1.5" d="M0,-3.0v7 M-2.5,-0.5L0,-3.0L2.5,-0.5"/>
                </g>
                <g id="arrowLeft" xlink:href="#dirArrow" transform="rotate(270) translate(-36 17)" onmousedown="handlePan(-1,0)">
                  <use xlink:href="#rim" fill="#404040">
                        <set attributeName="fill" to="#808080" begin="arrowLeft.mouseover" end="arrowLeft.mouseout"/>
                  </use>
                  <path fill="none" stroke="white" stroke-width="1.5" d="M0,-3.0v7 M-2.5,-0.5L0,-3.0L2.5,-0.5"/>
                </g>
        </g>
        <svg viewBox="0 0 15 15" width="100%" height="30px" preserveAspectRatio="xMaxYMin meet">
         <g id="arrow_out" transform="scale(0.3 0.3)">
          <a xlink:href="_q_sense_8h__dep__incl_org.svg" target="_base">
           <rect id="button" ry="5" rx="5" y="6" x="6" height="38" width="38"
                fill="#f2f5e9" fill-opacity="0.5" stroke="#606060" stroke-width="1.0"/>
           <path id="arrow"
             d="M 11.500037,31.436501 C 11.940474,20.09759 22.043105,11.32322 32.158766,21.979434 L 37.068811,17.246167 C 37.068811,17.246167 37.088388,32 37.088388,32 L 22.160133,31.978069 C 22.160133,31.978069 26.997745,27.140456 26.997745,27.140456 C 18.528582,18.264221 13.291696,25.230495 11.500037,31.436501 z"
             style="fill:#404040;"/>
          </a>
         </g>
        </svg>
</svg>
