<?xml version="1.0" encoding="UTF-8" standalone="no"?>
<!DOCTYPE svg PUBLIC "-//W3C//DTD SVG 1.1//EN"
 "http://www.w3.org/Graphics/SVG/1.1/DTD/svg11.dtd">
<!-- Generated by graphviz version 2.38.0 (20140413.2041)
 -->
<!-- Title: /Users/rakesh/svn/customer/qsense/desktop/src/api/QSense.h Pages: 1 -->
<!--zoomable 362 -->
<svg id="main" version="1.1" xmlns="http://www.w3.org/2000/svg" xmlns:xlink="http://www.w3.org/1999/xlink" xml:space="preserve" onload="init(evt)">
<style type="text/css"><![CDATA[
.edge:hover path { stroke: red; }
.edge:hover polygon { stroke: red; fill: red; }
]]></style>
<script type="text/javascript"><![CDATA[
var edges = document.getElementsByTagName('g');
if (edges && edges.length) {
  for (var i=0;i<edges.length;i++) {
    if (edges[i].id.substr(0,4)=='edge') {
      edges[i].setAttribute('class','edge');
    }
  }
}
]]></script>
        <defs>
                <circle id="rim" cx="0" cy="0" r="7"/>
                <circle id="rim2" cx="0" cy="0" r="3.5"/>
                <g id="zoomPlus">
                        <use xlink:href="#rim" fill="#404040">
                                <set attributeName="fill" to="#808080" begin="zoomplus.mouseover" end="zoomplus.mouseout"/>
                        </use>
                        <path d="M-4,0h8M0,-4v8" fill="none" stroke="white" stroke-width="1.5" pointer-events="none"/>
                </g>
                <g id="zoomMin">
                        <use xlink:href="#rim" fill="#404040">
                                <set attributeName="fill" to="#808080" begin="zoomminus.mouseover" end="zoomminus.mouseout"/>
                        </use>
                        <path d="M-4,0h8" fill="none" stroke="white" stroke-width="1.5" pointer-events="none"/>
                </g>
                <g id="dirArrow">
                        <path fill="none" stroke="white" stroke-width="1.5" d="M0,-3.0v7 M-2.5,-0.5L0,-3.0L2.5,-0.5"/>
                </g>
               <g id="resetDef">
                       <use xlink:href="#rim2" fill="#404040">
                               <set attributeName="fill" to="#808080" begin="reset.mouseover" end="reset.mouseout"/>
                       </use>
               </g>
        </defs>

<script type="text/javascript">
var viewWidth = 1606;
var viewHeight = 362;
var sectionId = 'dynsection-1';
</script>
<script xlink:href="svgpan.js"/>
<svg id="graph" class="graph">
<g id="viewport">
<title>/Users/rakesh/svn/customer/qsense/desktop/src/api/QSense.h</title>
<polygon fill="white" stroke="none" points="-4,4 -4,-358 1602.07,-358 1602.07,4 -4,4"/>
<!-- Node1 -->
<g id="node1" class="node"><title>Node1</title>
<polygon fill="#bfbfbf" stroke="black" points="791.075,-312.5 791.075,-353.5 931.075,-353.5 931.075,-312.5 791.075,-312.5"/>
<text text-anchor="start" x="799.075" y="-341.5" font-family="Helvetica,sans-Serif" font-size="10.00">/Users/rakesh/svn/customer</text>
<text text-anchor="start" x="799.075" y="-330.5" font-family="Helvetica,sans-Serif" font-size="10.00">/qsense/desktop/src/api</text>
<text text-anchor="middle" x="861.075" y="-319.5" font-family="Helvetica,sans-Serif" font-size="10.00">/QSense.h</text>
</g>
<!-- Node2 -->
<g id="node2" class="node"><title>Node2</title>
<g id="a_node2"><a xlink:href="_auto_ptr_8h.xhtml" target="_top" xlink:title="/Users/rakesh/svn/customer\l/qsense/desktop/src/api\l/AutoPtr.h">
<polygon fill="white" stroke="black" points="396.075,-234.5 396.075,-275.5 536.075,-275.5 536.075,-234.5 396.075,-234.5"/>
<text text-anchor="start" x="404.075" y="-263.5" font-family="Helvetica,sans-Serif" font-size="10.00">/Users/rakesh/svn/customer</text>
<text text-anchor="start" x="404.075" y="-252.5" font-family="Helvetica,sans-Serif" font-size="10.00">/qsense/desktop/src/api</text>
<text text-anchor="middle" x="466.075" y="-241.5" font-family="Helvetica,sans-Serif" font-size="10.00">/AutoPtr.h</text>
</a>
</g>
</g>
<!-- Node1&#45;&gt;Node2 -->
<g id="edge1" class="edge"><title>Node1&#45;&gt;Node2</title>
<path fill="none" stroke="midnightblue" d="M780.782,-319.423C716.725,-308.992 624.831,-293.139 545.075,-276 542.17,-275.376 539.21,-274.719 536.224,-274.04"/>
<polygon fill="midnightblue" stroke="midnightblue" points="780.387,-322.904 790.818,-321.05 781.507,-315.995 780.387,-322.904"/>
</g>
<!-- Node3 -->
<g id="node3" class="node"><title>Node3</title>
<g id="a_node3"><a xlink:href="_q_http_client_8h.xhtml" target="_top" xlink:title="/Users/rakesh/svn/customer\l/qsense/desktop/src/api\l/net/QHttpClient.h">
<polygon fill="white" stroke="black" points="1057.07,-156.5 1057.07,-197.5 1197.07,-197.5 1197.07,-156.5 1057.07,-156.5"/>
<text text-anchor="start" x="1065.07" y="-185.5" font-family="Helvetica,sans-Serif" font-size="10.00">/Users/rakesh/svn/customer</text>
<text text-anchor="start" x="1065.07" y="-174.5" font-family="Helvetica,sans-Serif" font-size="10.00">/qsense/desktop/src/api</text>
<text text-anchor="middle" x="1127.07" y="-163.5" font-family="Helvetica,sans-Serif" font-size="10.00">/net/QHttpClient.h</text>
</a>
</g>
</g>
<!-- Node1&#45;&gt;Node3 -->
<g id="edge16" class="edge"><title>Node1&#45;&gt;Node3</title>
<path fill="none" stroke="midnightblue" d="M941.339,-328.239C1069.7,-321.392 1309.41,-304.87 1335.07,-276 1347.48,-262.048 1346.43,-248.816 1335.07,-234 1326.4,-222.684 1254.25,-204.977 1197.33,-192.51"/>
<polygon fill="midnightblue" stroke="midnightblue" points="940.965,-324.753 931.162,-328.774 941.332,-331.744 940.965,-324.753"/>
</g>
<!-- Node4 -->
<g id="node4" class="node"><title>Node4</title>
<g id="a_node4"><a xlink:href="_byte_order_8h.xhtml" target="_top" xlink:title="/Users/rakesh/svn/customer\l/qsense/desktop/src/api\l/ByteOrder.h">
<polygon fill="white" stroke="black" points="200.075,-234.5 200.075,-275.5 340.075,-275.5 340.075,-234.5 200.075,-234.5"/>
<text text-anchor="start" x="208.075" y="-263.5" font-family="Helvetica,sans-Serif" font-size="10.00">/Users/rakesh/svn/customer</text>
<text text-anchor="start" x="208.075" y="-252.5" font-family="Helvetica,sans-Serif" font-size="10.00">/qsense/desktop/src/api</text>
<text text-anchor="middle" x="270.075" y="-241.5" font-family="Helvetica,sans-Serif" font-size="10.00">/ByteOrder.h</text>
</a>
</g>
</g>
<!-- Node1&#45;&gt;Node4 -->
<g id="edge3" class="edge"><title>Node1&#45;&gt;Node4</title>
<path fill="none" stroke="midnightblue" d="M780.921,-326.229C680.616,-318.3 503.804,-301.991 354.075,-276 349.644,-275.231 345.098,-274.367 340.524,-273.442"/>
<polygon fill="midnightblue" stroke="midnightblue" points="780.738,-329.725 790.981,-327.016 781.284,-322.746 780.738,-329.725"/>
</g>
<!-- Node5 -->
<g id="node5" class="node"><title>Node5</title>
<g id="a_node5"><a xlink:href="_event_8h.xhtml" target="_top" xlink:title="/Users/rakesh/svn/customer\l/qsense/desktop/src/api\l/Event.h">
<polygon fill="white" stroke="black" points="1253.07,-78.5 1253.07,-119.5 1393.07,-119.5 1393.07,-78.5 1253.07,-78.5"/>
<text text-anchor="start" x="1261.07" y="-107.5" font-family="Helvetica,sans-Serif" font-size="10.00">/Users/rakesh/svn/customer</text>
<text text-anchor="start" x="1261.07" y="-96.5" font-family="Helvetica,sans-Serif" font-size="10.00">/qsense/desktop/src/api</text>
<text text-anchor="middle" x="1323.07" y="-85.5" font-family="Helvetica,sans-Serif" font-size="10.00">/Event.h</text>
</a>
</g>
</g>
<!-- Node1&#45;&gt;Node5 -->
<g id="edge4" class="edge"><title>Node1&#45;&gt;Node5</title>
<path fill="none" stroke="midnightblue" d="M941.347,-332.535C1067.71,-331.863 1305.6,-324.012 1373.07,-276 1418.55,-243.644 1436.8,-204.994 1410.07,-156 1401.56,-140.389 1386.62,-128.477 1371.49,-119.738"/>
<polygon fill="midnightblue" stroke="midnightblue" points="941.318,-329.035 931.332,-332.574 941.346,-336.035 941.318,-329.035"/>
</g>
<!-- Node6 -->
<g id="node6" class="node"><title>Node6</title>
<g id="a_node6"><a xlink:href="_sidecar_client_8h.xhtml" target="_top" xlink:title="/Users/rakesh/svn/customer\l/qsense/desktop/src/api\l/net/SidecarClient.h">
<polygon fill="white" stroke="black" points="598.075,-0.5 598.075,-41.5 738.075,-41.5 738.075,-0.5 598.075,-0.5"/>
<text text-anchor="start" x="606.075" y="-29.5" font-family="Helvetica,sans-Serif" font-size="10.00">/Users/rakesh/svn/customer</text>
<text text-anchor="start" x="606.075" y="-18.5" font-family="Helvetica,sans-Serif" font-size="10.00">/qsense/desktop/src/api</text>
<text text-anchor="middle" x="668.075" y="-7.5" font-family="Helvetica,sans-Serif" font-size="10.00">/net/SidecarClient.h</text>
</a>
</g>
</g>
<!-- Node1&#45;&gt;Node6 -->
<g id="edge17" class="edge"><title>Node1&#45;&gt;Node6</title>
<path fill="none" stroke="midnightblue" d="M780.691,-332.644C582.612,-333.394 83.4192,-329.864 33.0747,-276 -137.287,-93.7269 399.826,-39.5503 597.797,-25.9867"/>
<polygon fill="midnightblue" stroke="midnightblue" points="780.761,-336.144 790.746,-332.602 780.731,-329.144 780.761,-336.144"/>
</g>
<!-- Node7 -->
<g id="node7" class="node"><title>Node7</title>
<g id="a_node7"><a xlink:href="_base64_8h.xhtml" target="_top" xlink:title="/Users/rakesh/svn/customer\l/qsense/desktop/src/api\l/hash/Base64.h">
<polygon fill="white" stroke="black" points="554.075,-234.5 554.075,-275.5 694.075,-275.5 694.075,-234.5 554.075,-234.5"/>
<text text-anchor="start" x="562.075" y="-263.5" font-family="Helvetica,sans-Serif" font-size="10.00">/Users/rakesh/svn/customer</text>
<text text-anchor="start" x="562.075" y="-252.5" font-family="Helvetica,sans-Serif" font-size="10.00">/qsense/desktop/src/api</text>
<text text-anchor="middle" x="624.075" y="-241.5" font-family="Helvetica,sans-Serif" font-size="10.00">/hash/Base64.h</text>
</a>
</g>
</g>
<!-- Node1&#45;&gt;Node7 -->
<g id="edge6" class="edge"><title>Node1&#45;&gt;Node7</title>
<path fill="none" stroke="midnightblue" d="M790.299,-309.304C756.75,-298.546 717.075,-285.823 684.901,-275.506"/>
<polygon fill="midnightblue" stroke="midnightblue" points="789.45,-312.707 800.041,-312.428 791.588,-306.042 789.45,-312.707"/>
</g>
<!-- Node8 -->
<g id="node8" class="node"><title>Node8</title>
<g id="a_node8"><a xlink:href="_m_d5_8h.xhtml" target="_top" xlink:title="/Users/rakesh/svn/customer\l/qsense/desktop/src/api\l/hash/MD5.h">
<polygon fill="white" stroke="black" points="712.075,-234.5 712.075,-275.5 852.075,-275.5 852.075,-234.5 712.075,-234.5"/>
<text text-anchor="start" x="720.075" y="-263.5" font-family="Helvetica,sans-Serif" font-size="10.00">/Users/rakesh/svn/customer</text>
<text text-anchor="start" x="720.075" y="-252.5" font-family="Helvetica,sans-Serif" font-size="10.00">/qsense/desktop/src/api</text>
<text text-anchor="middle" x="782.075" y="-241.5" font-family="Helvetica,sans-Serif" font-size="10.00">/hash/MD5.h</text>
</a>
</g>
</g>
<!-- Node1&#45;&gt;Node8 -->
<g id="edge7" class="edge"><title>Node1&#45;&gt;Node8</title>
<path fill="none" stroke="midnightblue" d="M833.52,-305.492C823.268,-295.629 811.832,-284.627 802.35,-275.506"/>
<polygon fill="midnightblue" stroke="midnightblue" points="831.097,-308.017 840.73,-312.428 835.95,-302.973 831.097,-308.017"/>
</g>
<!-- Node9 -->
<g id="node9" class="node"><title>Node9</title>
<g id="a_node9"><a xlink:href="_sha1_8h.xhtml" target="_top" xlink:title="/Users/rakesh/svn/customer\l/qsense/desktop/src/api\l/hash/Sha1.h">
<polygon fill="white" stroke="black" points="870.075,-234.5 870.075,-275.5 1010.07,-275.5 1010.07,-234.5 870.075,-234.5"/>
<text text-anchor="start" x="878.075" y="-263.5" font-family="Helvetica,sans-Serif" font-size="10.00">/Users/rakesh/svn/customer</text>
<text text-anchor="start" x="878.075" y="-252.5" font-family="Helvetica,sans-Serif" font-size="10.00">/qsense/desktop/src/api</text>
<text text-anchor="middle" x="940.075" y="-241.5" font-family="Helvetica,sans-Serif" font-size="10.00">/hash/Sha1.h</text>
</a>
</g>
</g>
<!-- Node1&#45;&gt;Node9 -->
<g id="edge8" class="edge"><title>Node1&#45;&gt;Node9</title>
<path fill="none" stroke="midnightblue" d="M888.63,-305.492C898.881,-295.629 910.317,-284.627 919.799,-275.506"/>
<polygon fill="midnightblue" stroke="midnightblue" points="886.199,-302.973 881.419,-312.428 891.052,-308.017 886.199,-302.973"/>
</g>
<!-- Node10 -->
<g id="node10" class="node"><title>Node10</title>
<g id="a_node10"><a xlink:href="_location_8h.xhtml" target="_top" xlink:title="/Users/rakesh/svn/customer\l/qsense/desktop/src/api\l/Location.h">
<polygon fill="white" stroke="black" points="1458.07,-156.5 1458.07,-197.5 1598.07,-197.5 1598.07,-156.5 1458.07,-156.5"/>
<text text-anchor="start" x="1466.07" y="-185.5" font-family="Helvetica,sans-Serif" font-size="10.00">/Users/rakesh/svn/customer</text>
<text text-anchor="start" x="1466.07" y="-174.5" font-family="Helvetica,sans-Serif" font-size="10.00">/qsense/desktop/src/api</text>
<text text-anchor="middle" x="1528.07" y="-163.5" font-family="Helvetica,sans-Serif" font-size="10.00">/Location.h</text>
</a>
</g>
</g>
<!-- Node1&#45;&gt;Node10 -->
<g id="edge9" class="edge"><title>Node1&#45;&gt;Node10</title>
<path fill="none" stroke="midnightblue" d="M941.331,-331.615C1080.18,-329.753 1358.57,-320.402 1444.07,-276 1477.88,-258.444 1503.83,-220.988 1517.45,-197.804"/>
<polygon fill="midnightblue" stroke="midnightblue" points="941.13,-328.117 931.174,-331.741 941.217,-335.117 941.13,-328.117"/>
</g>
<!-- Node11 -->
<g id="node11" class="node"><title>Node11</title>
<g id="a_node11"><a xlink:href="_date_time_8h.xhtml" target="_top" xlink:title="/Users/rakesh/svn/customer\l/qsense/desktop/src/api\l/net/DateTime.h">
<polygon fill="white" stroke="black" points="42.0747,-234.5 42.0747,-275.5 182.075,-275.5 182.075,-234.5 42.0747,-234.5"/>
<text text-anchor="start" x="50.0747" y="-263.5" font-family="Helvetica,sans-Serif" font-size="10.00">/Users/rakesh/svn/customer</text>
<text text-anchor="start" x="50.0747" y="-252.5" font-family="Helvetica,sans-Serif" font-size="10.00">/qsense/desktop/src/api</text>
<text text-anchor="middle" x="112.075" y="-241.5" font-family="Helvetica,sans-Serif" font-size="10.00">/net/DateTime.h</text>
</a>
</g>
</g>
<!-- Node1&#45;&gt;Node11 -->
<g id="edge11" class="edge"><title>Node1&#45;&gt;Node11</title>
<path fill="none" stroke="midnightblue" d="M780.311,-329.538C653.883,-324.722 401.875,-311.247 191.075,-276 188.144,-275.51 185.163,-274.966 182.159,-274.38"/>
<polygon fill="midnightblue" stroke="midnightblue" points="780.549,-333.049 790.672,-329.924 780.809,-326.054 780.549,-333.049"/>
</g>
<!-- Node12 -->
<g id="node12" class="node"><title>Node12</title>
<g id="a_node12"><a xlink:href="_reading_8h.xhtml" target="_top" xlink:title="/Users/rakesh/svn/customer\l/qsense/desktop/src/api\l/Reading.h">
<polygon fill="white" stroke="black" points="298.075,-156.5 298.075,-197.5 438.075,-197.5 438.075,-156.5 298.075,-156.5"/>
<text text-anchor="start" x="306.075" y="-185.5" font-family="Helvetica,sans-Serif" font-size="10.00">/Users/rakesh/svn/customer</text>
<text text-anchor="start" x="306.075" y="-174.5" font-family="Helvetica,sans-Serif" font-size="10.00">/qsense/desktop/src/api</text>
<text text-anchor="middle" x="368.075" y="-163.5" font-family="Helvetica,sans-Serif" font-size="10.00">/Reading.h</text>
</a>
</g>
</g>
<!-- Node1&#45;&gt;Node12 -->
<g id="edge18" class="edge"><title>Node1&#45;&gt;Node12</title>
<path fill="none" stroke="midnightblue" d="M780.895,-327.636C653.266,-319.941 415.34,-302.25 387.075,-276 365.74,-256.187 364.225,-220.173 365.704,-197.755"/>
<polygon fill="midnightblue" stroke="midnightblue" points="780.825,-331.138 791.015,-328.239 781.241,-324.15 780.825,-331.138"/>
</g>
<!-- Node13 -->
<g id="node13" class="node"><title>Node13</title>
<g id="a_node13"><a xlink:href="_http_request_8h.xhtml" target="_top" xlink:title="/Users/rakesh/svn/customer\l/qsense/desktop/src/api\l/net/HttpRequest.h">
<polygon fill="white" stroke="black" points="1028.07,-234.5 1028.07,-275.5 1168.07,-275.5 1168.07,-234.5 1028.07,-234.5"/>
<text text-anchor="start" x="1036.07" y="-263.5" font-family="Helvetica,sans-Serif" font-size="10.00">/Users/rakesh/svn/customer</text>
<text text-anchor="start" x="1036.07" y="-252.5" font-family="Helvetica,sans-Serif" font-size="10.00">/qsense/desktop/src/api</text>
<text text-anchor="middle" x="1098.07" y="-241.5" font-family="Helvetica,sans-Serif" font-size="10.00">/net/HttpRequest.h</text>
</a>
</g>
</g>
<!-- Node1&#45;&gt;Node13 -->
<g id="edge14" class="edge"><title>Node1&#45;&gt;Node13</title>
<path fill="none" stroke="midnightblue" d="M931.851,-309.304C965.399,-298.546 1005.07,-285.823 1037.25,-275.506"/>
<polygon fill="midnightblue" stroke="midnightblue" points="930.562,-306.042 922.108,-312.428 932.699,-312.707 930.562,-306.042"/>
</g>
<!-- Node14 -->
<g id="node14" class="node"><title>Node14</title>
<g id="a_node14"><a xlink:href="_ref_counted_object_8h.xhtml" target="_top" xlink:title="/Users/rakesh/svn/customer\l/qsense/desktop/src/api\l/RefCountedObject.h">
<polygon fill="white" stroke="black" points="1186.07,-234.5 1186.07,-275.5 1326.07,-275.5 1326.07,-234.5 1186.07,-234.5"/>
<text text-anchor="start" x="1194.07" y="-263.5" font-family="Helvetica,sans-Serif" font-size="10.00">/Users/rakesh/svn/customer</text>
<text text-anchor="start" x="1194.07" y="-252.5" font-family="Helvetica,sans-Serif" font-size="10.00">/qsense/desktop/src/api</text>
<text text-anchor="middle" x="1256.07" y="-241.5" font-family="Helvetica,sans-Serif" font-size="10.00">/RefCountedObject.h</text>
</a>
</g>
</g>
<!-- Node1&#45;&gt;Node14 -->
<g id="edge19" class="edge"><title>Node1&#45;&gt;Node14</title>
<path fill="none" stroke="midnightblue" d="M941.367,-319.423C1005.42,-308.992 1097.32,-293.139 1177.07,-276 1179.98,-275.376 1182.94,-274.719 1185.93,-274.04"/>
<polygon fill="midnightblue" stroke="midnightblue" points="940.643,-315.995 931.332,-321.05 941.763,-322.904 940.643,-315.995"/>
</g>
<!-- Node15 -->
<g id="node15" class="node"><title>Node15</title>
<g id="a_node15"><a xlink:href="_u_u_i_d_8h.xhtml" target="_top" xlink:title="/Users/rakesh/svn/customer\l/qsense/desktop/src/api/UUID.h">
<polygon fill="white" stroke="black" points="1244.57,-162 1244.57,-192 1401.57,-192 1401.57,-162 1244.57,-162"/>
<text text-anchor="start" x="1252.57" y="-180" font-family="Helvetica,sans-Serif" font-size="10.00">/Users/rakesh/svn/customer</text>
<text text-anchor="middle" x="1323.07" y="-169" font-family="Helvetica,sans-Serif" font-size="10.00">/qsense/desktop/src/api/UUID.h</text>
</a>
</g>
</g>
<!-- Node1&#45;&gt;Node15 -->
<g id="edge21" class="edge"><title>Node1&#45;&gt;Node15</title>
<path fill="none" stroke="midnightblue" d="M941.288,-328.636C1073.93,-322.241 1327.11,-306.197 1354.07,-276 1375.59,-251.907 1351.18,-212.893 1335.04,-192.102"/>
<polygon fill="midnightblue" stroke="midnightblue" points="940.996,-325.146 931.173,-329.116 941.328,-332.138 940.996,-325.146"/>
</g>
<!-- Node2&#45;&gt;Node3 -->
<g id="edge2" class="edge"><title>Node2&#45;&gt;Node3</title>
<path fill="none" stroke="midnightblue" d="M546.03,-233.968C735.541,-201.709 948.735,-187.156 1056.74,-181.311"/>
<polygon fill="midnightblue" stroke="midnightblue" points="545.428,-230.52 536.167,-235.667 546.616,-237.418 545.428,-230.52"/>
</g>
<!-- Node5&#45;&gt;Node6 -->
<g id="edge5" class="edge"><title>Node5&#45;&gt;Node6</title>
<path fill="none" stroke="midnightblue" d="M1242.74,-88.6785C1113.3,-73.6597 860.739,-44.3549 738.161,-30.1322"/>
<polygon fill="midnightblue" stroke="midnightblue" points="1242.64,-92.1907 1252.98,-89.8667 1243.45,-85.2373 1242.64,-92.1907"/>
</g>
<!-- Node10&#45;&gt;Node5 -->
<g id="edge10" class="edge"><title>Node10&#45;&gt;Node5</title>
<path fill="none" stroke="midnightblue" d="M1465.73,-152.887C1436.95,-142.219 1403.16,-129.69 1375.69,-119.506"/>
<polygon fill="midnightblue" stroke="midnightblue" points="1464.69,-156.234 1475.28,-156.428 1467.12,-149.67 1464.69,-156.234"/>
</g>
<!-- Node11&#45;&gt;Node12 -->
<g id="edge12" class="edge"><title>Node11&#45;&gt;Node12</title>
<path fill="none" stroke="midnightblue" d="M187.593,-231.58C224.026,-220.764 267.32,-207.911 302.372,-197.506"/>
<polygon fill="midnightblue" stroke="midnightblue" points="186.591,-228.227 178.001,-234.428 188.584,-234.937 186.591,-228.227"/>
</g>
<!-- Node12&#45;&gt;Node5 -->
<g id="edge13" class="edge"><title>Node12&#45;&gt;Node5</title>
<path fill="none" stroke="midnightblue" d="M448.425,-169.606C632.045,-154.993 1079.87,-119.355 1253.07,-105.571"/>
<polygon fill="midnightblue" stroke="midnightblue" points="447.989,-166.129 438.298,-170.412 448.544,-173.107 447.989,-166.129"/>
</g>
<!-- Node13&#45;&gt;Node3 -->
<g id="edge15" class="edge"><title>Node13&#45;&gt;Node3</title>
<path fill="none" stroke="midnightblue" d="M1109.19,-224.882C1112.68,-215.721 1116.46,-205.83 1119.63,-197.506"/>
<polygon fill="midnightblue" stroke="midnightblue" points="1105.84,-223.837 1105.54,-234.428 1112.38,-226.333 1105.84,-223.837"/>
</g>
<!-- Node14&#45;&gt;Node3 -->
<g id="edge20" class="edge"><title>Node14&#45;&gt;Node3</title>
<path fill="none" stroke="midnightblue" d="M1213.98,-229.203C1196.53,-218.918 1176.57,-207.159 1160.18,-197.506"/>
<polygon fill="midnightblue" stroke="midnightblue" points="1212.46,-232.368 1222.85,-234.428 1216.01,-226.336 1212.46,-232.368"/>
</g>
<!-- Node15&#45;&gt;Node5 -->
<g id="edge22" class="edge"><title>Node15&#45;&gt;Node5</title>
<path fill="none" stroke="midnightblue" d="M1323.07,-151.656C1323.07,-141.326 1323.07,-129.443 1323.07,-119.68"/>
<polygon fill="midnightblue" stroke="midnightblue" points="1319.57,-151.705 1323.07,-161.705 1326.57,-151.705 1319.57,-151.705"/>
</g>
</g>
</svg>
        <g id="navigator" transform="translate(0 0)" fill="#404254">
                <rect fill="#f2f5e9" fill-opacity="0.5" stroke="#606060" stroke-width=".5" x="0" y="0" width="60" height="60"/>
                <use id="zoomplus" xlink:href="#zoomPlus" x="17" y="9" onmousedown="handleZoom(evt,'in')"/>
                <use id="zoomminus" xlink:href="#zoomMin" x="42" y="9" onmousedown="handleZoom(evt,'out')"/>
                <use id="reset" xlink:href="#resetDef" x="30" y="36" onmousedown="handleReset()"/>
                <g id="arrowUp" xlink:href="#dirArrow" transform="translate(30 24)" onmousedown="handlePan(0,-1)">
                  <use xlink:href="#rim" fill="#404040">
                        <set attributeName="fill" to="#808080" begin="arrowUp.mouseover" end="arrowUp.mouseout"/>
                  </use>
                  <path fill="none" stroke="white" stroke-width="1.5" d="M0,-3.0v7 M-2.5,-0.5L0,-3.0L2.5,-0.5"/>
                </g>
                <g id="arrowRight" xlink:href="#dirArrow" transform="rotate(90) translate(36 -43)" onmousedown="handlePan(1,0)">
                  <use xlink:href="#rim" fill="#404040">
                        <set attributeName="fill" to="#808080" begin="arrowRight.mouseover" end="arrowRight.mouseout"/>
                  </use>
                  <path fill="none" stroke="white" stroke-width="1.5" d="M0,-3.0v7 M-2.5,-0.5L0,-3.0L2.5,-0.5"/>
                </g>
                <g id="arrowDown" xlink:href="#dirArrow" transform="rotate(180) translate(-30 -48)" onmousedown="handlePan(0,1)">
                  <use xlink:href="#rim" fill="#404040">
                        <set attributeName="fill" to="#808080" begin="arrowDown.mouseover" end="arrowDown.mouseout"/>
                  </use>
                  <path fill="none" stroke="white" stroke-width="1.5" d="M0,-3.0v7 M-2.5,-0.5L0,-3.0L2.5,-0.5"/>
                </g>
                <g id="arrowLeft" xlink:href="#dirArrow" transform="rotate(270) translate(-36 17)" onmousedown="handlePan(-1,0)">
                  <use xlink:href="#rim" fill="#404040">
                        <set attributeName="fill" to="#808080" begin="arrowLeft.mouseover" end="arrowLeft.mouseout"/>
                  </use>
                  <path fill="none" stroke="white" stroke-width="1.5" d="M0,-3.0v7 M-2.5,-0.5L0,-3.0L2.5,-0.5"/>
                </g>
        </g>
        <svg viewBox="0 0 15 15" width="100%" height="30px" preserveAspectRatio="xMaxYMin meet">
         <g id="arrow_out" transform="scale(0.3 0.3)">
          <a xlink:href="_q_sense_8h__dep__incl_org.svg" target="_base">
           <rect id="button" ry="5" rx="5" y="6" x="6" height="38" width="38"
                fill="#f2f5e9" fill-opacity="0.5" stroke="#606060" stroke-width="1.0"/>
           <path id="arrow"
             d="M 11.500037,31.436501 C 11.940474,20.09759 22.043105,11.32322 32.158766,21.979434 L 37.068811,17.246167 C 37.068811,17.246167 37.088388,32 37.088388,32 L 22.160133,31.978069 C 22.160133,31.978069 26.997745,27.140456 26.997745,27.140456 C 18.528582,18.264221 13.291696,25.230495 11.500037,31.436501 z"
             style="fill:#404040;"/>
          </a>
         </g>
        </svg>
</svg>
