<?xml version="1.0" encoding="UTF-8" standalone="no"?>
<!DOCTYPE svg PUBLIC "-//W3C//DTD SVG 1.1//EN"
 "http://www.w3.org/Graphics/SVG/1.1/DTD/svg11.dtd">
<!-- Generated by graphviz version 2.38.0 (20140413.2041)
 -->
<!-- Title: /Users/rakesh/svn/customer/qsense/desktop/src/api/QSense.h Pages: 1 -->
<!--zoomable 362 -->
<svg id="main" version="1.1" xmlns="http://www.w3.org/2000/svg" xmlns:xlink="http://www.w3.org/1999/xlink" xml:space="preserve" onload="init(evt)">
<style type="text/css"><![CDATA[
.edge:hover path { stroke: red; }
.edge:hover polygon { stroke: red; fill: red; }
]]></style>
<script type="text/javascript"><![CDATA[
var edges = document.getElementsByTagName('g');
if (edges && edges.length) {
  for (var i=0;i<edges.length;i++) {
    if (edges[i].id.substr(0,4)=='edge') {
      edges[i].setAttribute('class','edge');
    }
  }
}
]]></script>
        <defs>
                <circle id="rim" cx="0" cy="0" r="7"/>
                <circle id="rim2" cx="0" cy="0" r="3.5"/>
                <g id="zoomPlus">
                        <use xlink:href="#rim" fill="#404040">
                                <set attributeName="fill" to="#808080" begin="zoomplus.mouseover" end="zoomplus.mouseout"/>
                        </use>
                        <path d="M-4,0h8M0,-4v8" fill="none" stroke="white" stroke-width="1.5" pointer-events="none"/>
                </g>
                <g id="zoomMin">
                        <use xlink:href="#rim" fill="#404040">
                                <set attributeName="fill" to="#808080" begin="zoomminus.mouseover" end="zoomminus.mouseout"/>
                        </use>
                        <path d="M-4,0h8" fill="none" stroke="white" stroke-width="1.5" pointer-events="none"/>
                </g>
                <g id="dirArrow">
                        <path fill="none" stroke="white" stroke-width="1.5" d="M0,-3.0v7 M-2.5,-0.5L0,-3.0L2.5,-0.5"/>
                </g>
               <g id="resetDef">
                       <use xlink:href="#rim2" fill="#404040">
                               <set attributeName="fill" to="#808080" begin="reset.mouseover" end="reset.mouseout"/>
                       </use>
               </g>
        </defs>

<script type="text/javascript">
var viewWidth = 1574;
var viewHeight = 362;
var sectionId = 'dynsection-1';
</script>
<script xlink:href="svgpan.js"/>
<svg id="graph" class="graph">
<g id="viewport">
<title>/Users/rakesh/svn/customer/qsense/desktop/src/api/QSense.h</title>
<polygon fill="white" stroke="none" points="-4,4 -4,-358 1569.71,-358 1569.71,4 -4,4"/>
<!-- Node1 -->
<g id="node1" class="node"><title>Node1</title>
<polygon fill="#bfbfbf" stroke="black" points="700.208,-312.5 700.208,-353.5 840.208,-353.5 840.208,-312.5 700.208,-312.5"/>
<text text-anchor="start" x="708.208" y="-341.5" font-family="Helvetica,sans-Serif" font-size="10.00">/Users/rakesh/svn/customer</text>
<text text-anchor="start" x="708.208" y="-330.5" font-family="Helvetica,sans-Serif" font-size="10.00">/qsense/desktop/src/api</text>
<text text-anchor="middle" x="770.208" y="-319.5" font-family="Helvetica,sans-Serif" font-size="10.00">/QSense.h</text>
</g>
<!-- Node2 -->
<g id="node2" class="node"><title>Node2</title>
<g id="a_node2"><a xlink:href="_auto_ptr_8h.xhtml" target="_top" xlink:title="/Users/rakesh/svn/customer\l/qsense/desktop/src/api\l/AutoPtr.h">
<polygon fill="white" stroke="black" points="896.208,-234.5 896.208,-275.5 1036.21,-275.5 1036.21,-234.5 896.208,-234.5"/>
<text text-anchor="start" x="904.208" y="-263.5" font-family="Helvetica,sans-Serif" font-size="10.00">/Users/rakesh/svn/customer</text>
<text text-anchor="start" x="904.208" y="-252.5" font-family="Helvetica,sans-Serif" font-size="10.00">/qsense/desktop/src/api</text>
<text text-anchor="middle" x="966.208" y="-241.5" font-family="Helvetica,sans-Serif" font-size="10.00">/AutoPtr.h</text>
</a>
</g>
</g>
<!-- Node1&#45;&gt;Node2 -->
<g id="edge1" class="edge"><title>Node1&#45;&gt;Node2</title>
<path fill="none" stroke="midnightblue" d="M830.173,-308.748C857.609,-298.11 889.753,-285.646 915.904,-275.506"/>
<polygon fill="midnightblue" stroke="midnightblue" points="828.741,-305.55 820.683,-312.428 831.272,-312.076 828.741,-305.55"/>
</g>
<!-- Node4 -->
<g id="node4" class="node"><title>Node4</title>
<g id="a_node4"><a xlink:href="_byte_order_8h.xhtml" target="_top" xlink:title="/Users/rakesh/svn/customer\l/qsense/desktop/src/api\l/ByteOrder.h">
<polygon fill="white" stroke="black" points="30.2079,-234.5 30.2079,-275.5 170.208,-275.5 170.208,-234.5 30.2079,-234.5"/>
<text text-anchor="start" x="38.2079" y="-263.5" font-family="Helvetica,sans-Serif" font-size="10.00">/Users/rakesh/svn/customer</text>
<text text-anchor="start" x="38.2079" y="-252.5" font-family="Helvetica,sans-Serif" font-size="10.00">/qsense/desktop/src/api</text>
<text text-anchor="middle" x="100.208" y="-241.5" font-family="Helvetica,sans-Serif" font-size="10.00">/ByteOrder.h</text>
</a>
</g>
</g>
<!-- Node1&#45;&gt;Node4 -->
<g id="edge3" class="edge"><title>Node1&#45;&gt;Node4</title>
<path fill="none" stroke="midnightblue" d="M690.096,-328.315C575.976,-322.182 360.352,-307.321 179.208,-276 176.28,-275.494 173.301,-274.936 170.299,-274.339"/>
<polygon fill="midnightblue" stroke="midnightblue" points="689.977,-331.813 700.148,-328.846 690.347,-324.823 689.977,-331.813"/>
</g>
<!-- Node5 -->
<g id="node5" class="node"><title>Node5</title>
<g id="a_node5"><a xlink:href="_event_8h.xhtml" target="_top" xlink:title="/Users/rakesh/svn/customer\l/qsense/desktop/src/api\l/Event.h">
<polygon fill="white" stroke="black" points="542.208,-78.5 542.208,-119.5 682.208,-119.5 682.208,-78.5 542.208,-78.5"/>
<text text-anchor="start" x="550.208" y="-107.5" font-family="Helvetica,sans-Serif" font-size="10.00">/Users/rakesh/svn/customer</text>
<text text-anchor="start" x="550.208" y="-96.5" font-family="Helvetica,sans-Serif" font-size="10.00">/qsense/desktop/src/api</text>
<text text-anchor="middle" x="612.208" y="-85.5" font-family="Helvetica,sans-Serif" font-size="10.00">/Event.h</text>
</a>
</g>
</g>
<!-- Node1&#45;&gt;Node5 -->
<g id="edge4" class="edge"><title>Node1&#45;&gt;Node5</title>
<path fill="none" stroke="midnightblue" d="M820.95,-306.791C832.274,-298.611 842.81,-288.378 849.208,-276 857.779,-259.418 858.614,-250.124 849.208,-234 813.541,-172.86 738.505,-137.397 682.363,-118.492"/>
<polygon fill="midnightblue" stroke="midnightblue" points="818.966,-303.906 812.613,-312.385 822.867,-309.719 818.966,-303.906"/>
</g>
<!-- Node6 -->
<g id="node6" class="node"><title>Node6</title>
<g id="a_node6"><a xlink:href="_sidecar_client_8h.xhtml" target="_top" xlink:title="/Users/rakesh/svn/customer\l/qsense/desktop/src/api\l/net/SidecarClient.h">
<polygon fill="white" stroke="black" points="237.208,-0.5 237.208,-41.5 377.208,-41.5 377.208,-0.5 237.208,-0.5"/>
<text text-anchor="start" x="245.208" y="-29.5" font-family="Helvetica,sans-Serif" font-size="10.00">/Users/rakesh/svn/customer</text>
<text text-anchor="start" x="245.208" y="-18.5" font-family="Helvetica,sans-Serif" font-size="10.00">/qsense/desktop/src/api</text>
<text text-anchor="middle" x="307.208" y="-7.5" font-family="Helvetica,sans-Serif" font-size="10.00">/net/SidecarClient.h</text>
</a>
</g>
</g>
<!-- Node1&#45;&gt;Node6 -->
<g id="edge16" class="edge"><title>Node1&#45;&gt;Node6</title>
<path fill="none" stroke="midnightblue" d="M689.747,-332.017C505.618,-331.217 65.9598,-324.223 21.2079,-276 -67.3307,-180.594 147.353,-82.3885 252.85,-41.5953"/>
<polygon fill="midnightblue" stroke="midnightblue" points="689.899,-335.517 699.912,-332.056 689.925,-328.517 689.899,-335.517"/>
</g>
<!-- Node7 -->
<g id="node7" class="node"><title>Node7</title>
<g id="a_node7"><a xlink:href="_base64_8h.xhtml" target="_top" xlink:title="/Users/rakesh/svn/customer\l/qsense/desktop/src/api\l/hash/Base64.h">
<polygon fill="white" stroke="black" points="384.208,-234.5 384.208,-275.5 524.208,-275.5 524.208,-234.5 384.208,-234.5"/>
<text text-anchor="start" x="392.208" y="-263.5" font-family="Helvetica,sans-Serif" font-size="10.00">/Users/rakesh/svn/customer</text>
<text text-anchor="start" x="392.208" y="-252.5" font-family="Helvetica,sans-Serif" font-size="10.00">/qsense/desktop/src/api</text>
<text text-anchor="middle" x="454.208" y="-241.5" font-family="Helvetica,sans-Serif" font-size="10.00">/hash/Base64.h</text>
</a>
</g>
</g>
<!-- Node1&#45;&gt;Node7 -->
<g id="edge6" class="edge"><title>Node1&#45;&gt;Node7</title>
<path fill="none" stroke="midnightblue" d="M690.233,-313.437C644.255,-302.682 585.433,-288.78 533.208,-276 530.322,-275.294 527.378,-274.569 524.405,-273.833"/>
<polygon fill="midnightblue" stroke="midnightblue" points="689.604,-316.884 700.138,-315.752 691.197,-310.068 689.604,-316.884"/>
</g>
<!-- Node8 -->
<g id="node8" class="node"><title>Node8</title>
<g id="a_node8"><a xlink:href="_m_d5_8h.xhtml" target="_top" xlink:title="/Users/rakesh/svn/customer\l/qsense/desktop/src/api\l/hash/MD5.h">
<polygon fill="white" stroke="black" points="542.208,-234.5 542.208,-275.5 682.208,-275.5 682.208,-234.5 542.208,-234.5"/>
<text text-anchor="start" x="550.208" y="-263.5" font-family="Helvetica,sans-Serif" font-size="10.00">/Users/rakesh/svn/customer</text>
<text text-anchor="start" x="550.208" y="-252.5" font-family="Helvetica,sans-Serif" font-size="10.00">/qsense/desktop/src/api</text>
<text text-anchor="middle" x="612.208" y="-241.5" font-family="Helvetica,sans-Serif" font-size="10.00">/hash/MD5.h</text>
</a>
</g>
</g>
<!-- Node1&#45;&gt;Node8 -->
<g id="edge7" class="edge"><title>Node1&#45;&gt;Node8</title>
<path fill="none" stroke="midnightblue" d="M720.414,-308.049C698.622,-297.566 673.38,-285.424 652.759,-275.506"/>
<polygon fill="midnightblue" stroke="midnightblue" points="718.99,-311.247 729.519,-312.428 722.025,-304.939 718.99,-311.247"/>
</g>
<!-- Node9 -->
<g id="node9" class="node"><title>Node9</title>
<g id="a_node9"><a xlink:href="_sha1_8h.xhtml" target="_top" xlink:title="/Users/rakesh/svn/customer\l/qsense/desktop/src/api\l/hash/Sha1.h">
<polygon fill="white" stroke="black" points="700.208,-234.5 700.208,-275.5 840.208,-275.5 840.208,-234.5 700.208,-234.5"/>
<text text-anchor="start" x="708.208" y="-263.5" font-family="Helvetica,sans-Serif" font-size="10.00">/Users/rakesh/svn/customer</text>
<text text-anchor="start" x="708.208" y="-252.5" font-family="Helvetica,sans-Serif" font-size="10.00">/qsense/desktop/src/api</text>
<text text-anchor="middle" x="770.208" y="-241.5" font-family="Helvetica,sans-Serif" font-size="10.00">/hash/Sha1.h</text>
</a>
</g>
</g>
<!-- Node1&#45;&gt;Node9 -->
<g id="edge8" class="edge"><title>Node1&#45;&gt;Node9</title>
<path fill="none" stroke="midnightblue" d="M770.208,-302.297C770.208,-293.301 770.208,-283.653 770.208,-275.506"/>
<polygon fill="midnightblue" stroke="midnightblue" points="766.708,-302.428 770.208,-312.428 773.708,-302.428 766.708,-302.428"/>
</g>
<!-- Node10 -->
<g id="node10" class="node"><title>Node10</title>
<g id="a_node10"><a xlink:href="_location_8h.xhtml" target="_top" xlink:title="/Users/rakesh/svn/customer\l/qsense/desktop/src/api\l/Location.h">
<polygon fill="white" stroke="black" points="1261.21,-156.5 1261.21,-197.5 1401.21,-197.5 1401.21,-156.5 1261.21,-156.5"/>
<text text-anchor="start" x="1269.21" y="-185.5" font-family="Helvetica,sans-Serif" font-size="10.00">/Users/rakesh/svn/customer</text>
<text text-anchor="start" x="1269.21" y="-174.5" font-family="Helvetica,sans-Serif" font-size="10.00">/qsense/desktop/src/api</text>
<text text-anchor="middle" x="1331.21" y="-163.5" font-family="Helvetica,sans-Serif" font-size="10.00">/Location.h</text>
</a>
</g>
</g>
<!-- Node1&#45;&gt;Node10 -->
<g id="edge9" class="edge"><title>Node1&#45;&gt;Node10</title>
<path fill="none" stroke="midnightblue" d="M850.813,-330.262C1004.57,-326.108 1327.52,-313.029 1361.21,-276 1381.08,-254.151 1362.57,-219.432 1347.09,-197.72"/>
<polygon fill="midnightblue" stroke="midnightblue" points="850.393,-326.771 840.489,-330.534 850.577,-333.769 850.393,-326.771"/>
</g>
<!-- Node11 -->
<g id="node11" class="node"><title>Node11</title>
<g id="a_node11"><a xlink:href="_date_time_8h.xhtml" target="_top" xlink:title="/Users/rakesh/svn/customer\l/qsense/desktop/src/api\l/net/DateTime.h">
<polygon fill="white" stroke="black" points="188.208,-234.5 188.208,-275.5 328.208,-275.5 328.208,-234.5 188.208,-234.5"/>
<text text-anchor="start" x="196.208" y="-263.5" font-family="Helvetica,sans-Serif" font-size="10.00">/Users/rakesh/svn/customer</text>
<text text-anchor="start" x="196.208" y="-252.5" font-family="Helvetica,sans-Serif" font-size="10.00">/qsense/desktop/src/api</text>
<text text-anchor="middle" x="258.208" y="-241.5" font-family="Helvetica,sans-Serif" font-size="10.00">/net/DateTime.h</text>
</a>
</g>
</g>
<!-- Node1&#45;&gt;Node11 -->
<g id="edge11" class="edge"><title>Node1&#45;&gt;Node11</title>
<path fill="none" stroke="midnightblue" d="M690.191,-324.036C603.916,-314.867 462.73,-298.171 342.208,-276 337.637,-275.159 332.942,-274.229 328.219,-273.243"/>
<polygon fill="midnightblue" stroke="midnightblue" points="689.864,-327.521 700.176,-325.09 690.598,-320.56 689.864,-327.521"/>
</g>
<!-- Node12 -->
<g id="node12" class="node"><title>Node12</title>
<g id="a_node12"><a xlink:href="_reading_8h.xhtml" target="_top" xlink:title="/Users/rakesh/svn/customer\l/qsense/desktop/src/api\l/Reading.h">
<polygon fill="white" stroke="black" points="286.208,-156.5 286.208,-197.5 426.208,-197.5 426.208,-156.5 286.208,-156.5"/>
<text text-anchor="start" x="294.208" y="-185.5" font-family="Helvetica,sans-Serif" font-size="10.00">/Users/rakesh/svn/customer</text>
<text text-anchor="start" x="294.208" y="-174.5" font-family="Helvetica,sans-Serif" font-size="10.00">/qsense/desktop/src/api</text>
<text text-anchor="middle" x="356.208" y="-163.5" font-family="Helvetica,sans-Serif" font-size="10.00">/Reading.h</text>
</a>
</g>
</g>
<!-- Node1&#45;&gt;Node12 -->
<g id="edge17" class="edge"><title>Node1&#45;&gt;Node12</title>
<path fill="none" stroke="midnightblue" d="M689.774,-331.269C587.569,-328.59 419.131,-317.752 375.208,-276 354.105,-255.94 352.517,-220.004 353.919,-197.668"/>
<polygon fill="midnightblue" stroke="midnightblue" points="689.98,-334.775 700.062,-331.517 690.149,-327.777 689.98,-334.775"/>
</g>
<!-- Node13 -->
<g id="node13" class="node"><title>Node13</title>
<g id="a_node13"><a xlink:href="_http_request_8h.xhtml" target="_top" xlink:title="/Users/rakesh/svn/customer\l/qsense/desktop/src/api\l/net/HttpRequest.h">
<polygon fill="white" stroke="black" points="1054.21,-234.5 1054.21,-275.5 1194.21,-275.5 1194.21,-234.5 1054.21,-234.5"/>
<text text-anchor="start" x="1062.21" y="-263.5" font-family="Helvetica,sans-Serif" font-size="10.00">/Users/rakesh/svn/customer</text>
<text text-anchor="start" x="1062.21" y="-252.5" font-family="Helvetica,sans-Serif" font-size="10.00">/qsense/desktop/src/api</text>
<text text-anchor="middle" x="1124.21" y="-241.5" font-family="Helvetica,sans-Serif" font-size="10.00">/net/HttpRequest.h</text>
</a>
</g>
</g>
<!-- Node1&#45;&gt;Node13 -->
<g id="edge14" class="edge"><title>Node1&#45;&gt;Node13</title>
<path fill="none" stroke="midnightblue" d="M850.51,-316.682C905.467,-305.946 979.92,-290.903 1045.21,-276 1048.1,-275.339 1051.06,-274.652 1054.04,-273.947"/>
<polygon fill="midnightblue" stroke="midnightblue" points="849.628,-313.288 840.482,-318.636 850.967,-320.159 849.628,-313.288"/>
</g>
<!-- Node14 -->
<g id="node14" class="node"><title>Node14</title>
<g id="a_node14"><a xlink:href="_ref_counted_object_8h.xhtml" target="_top" xlink:title="/Users/rakesh/svn/customer\l/qsense/desktop/src/api\l/RefCountedObject.h">
<polygon fill="white" stroke="black" points="1212.21,-234.5 1212.21,-275.5 1352.21,-275.5 1352.21,-234.5 1212.21,-234.5"/>
<text text-anchor="start" x="1220.21" y="-263.5" font-family="Helvetica,sans-Serif" font-size="10.00">/Users/rakesh/svn/customer</text>
<text text-anchor="start" x="1220.21" y="-252.5" font-family="Helvetica,sans-Serif" font-size="10.00">/qsense/desktop/src/api</text>
<text text-anchor="middle" x="1282.21" y="-241.5" font-family="Helvetica,sans-Serif" font-size="10.00">/RefCountedObject.h</text>
</a>
</g>
</g>
<!-- Node1&#45;&gt;Node14 -->
<g id="edge18" class="edge"><title>Node1&#45;&gt;Node14</title>
<path fill="none" stroke="midnightblue" d="M850.457,-324.517C937.724,-315.708 1081.09,-299.269 1203.21,-276 1206.13,-275.444 1209.1,-274.844 1212.09,-274.212"/>
<polygon fill="midnightblue" stroke="midnightblue" points="849.961,-321.049 840.36,-325.528 850.659,-328.014 849.961,-321.049"/>
</g>
<!-- Node15 -->
<g id="node15" class="node"><title>Node15</title>
<g id="a_node15"><a xlink:href="_u_u_i_d_8h.xhtml" target="_top" xlink:title="/Users/rakesh/svn/customer\l/qsense/desktop/src/api/UUID.h">
<polygon fill="white" stroke="black" points="1408.71,-240 1408.71,-270 1565.71,-270 1565.71,-240 1408.71,-240"/>
<text text-anchor="start" x="1416.71" y="-258" font-family="Helvetica,sans-Serif" font-size="10.00">/Users/rakesh/svn/customer</text>
<text text-anchor="middle" x="1487.21" y="-247" font-family="Helvetica,sans-Serif" font-size="10.00">/qsense/desktop/src/api/UUID.h</text>
</a>
</g>
</g>
<!-- Node1&#45;&gt;Node15 -->
<g id="edge20" class="edge"><title>Node1&#45;&gt;Node15</title>
<path fill="none" stroke="midnightblue" d="M850.391,-327.949C969.532,-321.219 1200.12,-305.466 1394.21,-276 1404.82,-274.389 1416.04,-272.306 1426.87,-270.096"/>
<polygon fill="midnightblue" stroke="midnightblue" points="850.051,-324.462 840.261,-328.514 850.441,-331.451 850.051,-324.462"/>
</g>
<!-- Node3 -->
<g id="node3" class="node"><title>Node3</title>
<g id="a_node3"><a xlink:href="_q_http_client_8h.xhtml" target="_top" xlink:title="/Users/rakesh/svn/customer\l/qsense/desktop/src/api\l/net/QHttpClient.h">
<polygon fill="white" stroke="black" points="1054.21,-156.5 1054.21,-197.5 1194.21,-197.5 1194.21,-156.5 1054.21,-156.5"/>
<text text-anchor="start" x="1062.21" y="-185.5" font-family="Helvetica,sans-Serif" font-size="10.00">/Users/rakesh/svn/customer</text>
<text text-anchor="start" x="1062.21" y="-174.5" font-family="Helvetica,sans-Serif" font-size="10.00">/qsense/desktop/src/api</text>
<text text-anchor="middle" x="1124.21" y="-163.5" font-family="Helvetica,sans-Serif" font-size="10.00">/net/QHttpClient.h</text>
</a>
</g>
</g>
<!-- Node2&#45;&gt;Node3 -->
<g id="edge2" class="edge"><title>Node2&#45;&gt;Node3</title>
<path fill="none" stroke="midnightblue" d="M1016,-230.049C1037.79,-219.566 1063.04,-207.424 1083.66,-197.506"/>
<polygon fill="midnightblue" stroke="midnightblue" points="1014.39,-226.939 1006.9,-234.428 1017.43,-233.247 1014.39,-226.939"/>
</g>
<!-- Node5&#45;&gt;Node6 -->
<g id="edge5" class="edge"><title>Node5&#45;&gt;Node6</title>
<path fill="none" stroke="midnightblue" d="M532.097,-78.038C483.997,-66.0523 423.386,-50.9492 377.21,-39.4432"/>
<polygon fill="midnightblue" stroke="midnightblue" points="531.302,-81.4468 541.852,-80.4686 532.995,-74.6545 531.302,-81.4468"/>
</g>
<!-- Node10&#45;&gt;Node5 -->
<g id="edge10" class="edge"><title>Node10&#45;&gt;Node5</title>
<path fill="none" stroke="midnightblue" d="M1250.68,-162.657C1234.96,-160.267 1218.59,-157.928 1203.21,-156 1015.56,-132.471 793.266,-113.9 682.41,-105.269"/>
<polygon fill="midnightblue" stroke="midnightblue" points="1250.48,-166.167 1260.89,-164.23 1251.54,-159.249 1250.48,-166.167"/>
</g>
<!-- Node11&#45;&gt;Node12 -->
<g id="edge12" class="edge"><title>Node11&#45;&gt;Node12</title>
<path fill="none" stroke="midnightblue" d="M291.651,-228.065C304.555,-218.057 319.065,-206.804 331.056,-197.506"/>
<polygon fill="midnightblue" stroke="midnightblue" points="289.203,-225.534 283.445,-234.428 293.492,-231.066 289.203,-225.534"/>
</g>
<!-- Node12&#45;&gt;Node5 -->
<g id="edge13" class="edge"><title>Node12&#45;&gt;Node5</title>
<path fill="none" stroke="midnightblue" d="M431.726,-153.58C468.16,-142.764 511.454,-129.911 546.505,-119.506"/>
<polygon fill="midnightblue" stroke="midnightblue" points="430.725,-150.227 422.134,-156.428 432.717,-156.937 430.725,-150.227"/>
</g>
<!-- Node13&#45;&gt;Node3 -->
<g id="edge15" class="edge"><title>Node13&#45;&gt;Node3</title>
<path fill="none" stroke="midnightblue" d="M1124.21,-224.297C1124.21,-215.301 1124.21,-205.653 1124.21,-197.506"/>
<polygon fill="midnightblue" stroke="midnightblue" points="1120.71,-224.428 1124.21,-234.428 1127.71,-224.428 1120.71,-224.428"/>
</g>
<!-- Node14&#45;&gt;Node3 -->
<g id="edge19" class="edge"><title>Node14&#45;&gt;Node3</title>
<path fill="none" stroke="midnightblue" d="M1232.41,-230.049C1210.62,-219.566 1185.38,-207.424 1164.76,-197.506"/>
<polygon fill="midnightblue" stroke="midnightblue" points="1230.99,-233.247 1241.52,-234.428 1234.02,-226.939 1230.99,-233.247"/>
</g>
</g>
</svg>
        <g id="navigator" transform="translate(0 0)" fill="#404254">
                <rect fill="#f2f5e9" fill-opacity="0.5" stroke="#606060" stroke-width=".5" x="0" y="0" width="60" height="60"/>
                <use id="zoomplus" xlink:href="#zoomPlus" x="17" y="9" onmousedown="handleZoom(evt,'in')"/>
                <use id="zoomminus" xlink:href="#zoomMin" x="42" y="9" onmousedown="handleZoom(evt,'out')"/>
                <use id="reset" xlink:href="#resetDef" x="30" y="36" onmousedown="handleReset()"/>
                <g id="arrowUp" xlink:href="#dirArrow" transform="translate(30 24)" onmousedown="handlePan(0,-1)">
                  <use xlink:href="#rim" fill="#404040">
                        <set attributeName="fill" to="#808080" begin="arrowUp.mouseover" end="arrowUp.mouseout"/>
                  </use>
                  <path fill="none" stroke="white" stroke-width="1.5" d="M0,-3.0v7 M-2.5,-0.5L0,-3.0L2.5,-0.5"/>
                </g>
                <g id="arrowRight" xlink:href="#dirArrow" transform="rotate(90) translate(36 -43)" onmousedown="handlePan(1,0)">
                  <use xlink:href="#rim" fill="#404040">
                        <set attributeName="fill" to="#808080" begin="arrowRight.mouseover" end="arrowRight.mouseout"/>
                  </use>
                  <path fill="none" stroke="white" stroke-width="1.5" d="M0,-3.0v7 M-2.5,-0.5L0,-3.0L2.5,-0.5"/>
                </g>
                <g id="arrowDown" xlink:href="#dirArrow" transform="rotate(180) translate(-30 -48)" onmousedown="handlePan(0,1)">
                  <use xlink:href="#rim" fill="#404040">
                        <set attributeName="fill" to="#808080" begin="arrowDown.mouseover" end="arrowDown.mouseout"/>
                  </use>
                  <path fill="none" stroke="white" stroke-width="1.5" d="M0,-3.0v7 M-2.5,-0.5L0,-3.0L2.5,-0.5"/>
                </g>
                <g id="arrowLeft" xlink:href="#dirArrow" transform="rotate(270) translate(-36 17)" onmousedown="handlePan(-1,0)">
                  <use xlink:href="#rim" fill="#404040">
                        <set attributeName="fill" to="#808080" begin="arrowLeft.mouseover" end="arrowLeft.mouseout"/>
                  </use>
                  <path fill="none" stroke="white" stroke-width="1.5" d="M0,-3.0v7 M-2.5,-0.5L0,-3.0L2.5,-0.5"/>
                </g>
        </g>
        <svg viewBox="0 0 15 15" width="100%" height="30px" preserveAspectRatio="xMaxYMin meet">
         <g id="arrow_out" transform="scale(0.3 0.3)">
          <a xlink:href="_q_sense_8h__dep__incl_org.svg" target="_base">
           <rect id="button" ry="5" rx="5" y="6" x="6" height="38" width="38"
                fill="#f2f5e9" fill-opacity="0.5" stroke="#606060" stroke-width="1.0"/>
           <path id="arrow"
             d="M 11.500037,31.436501 C 11.940474,20.09759 22.043105,11.32322 32.158766,21.979434 L 37.068811,17.246167 C 37.068811,17.246167 37.088388,32 37.088388,32 L 22.160133,31.978069 C 22.160133,31.978069 26.997745,27.140456 26.997745,27.140456 C 18.528582,18.264221 13.291696,25.230495 11.500037,31.436501 z"
             style="fill:#404040;"/>
          </a>
         </g>
        </svg>
</svg>
