<?xml version="1.0" encoding="UTF-8" standalone="no"?>
<!DOCTYPE svg PUBLIC "-//W3C//DTD SVG 1.1//EN"
 "http://www.w3.org/Graphics/SVG/1.1/DTD/svg11.dtd">
<!-- Generated by graphviz version 2.38.0 (20140413.2041)
 -->
<!-- Title: /Users/rakesh/svn/customer/qsense/desktop/src/api/QSense.h Pages: 1 -->
<!--zoomable 362 -->
<svg id="main" version="1.1" xmlns="http://www.w3.org/2000/svg" xmlns:xlink="http://www.w3.org/1999/xlink" xml:space="preserve" onload="init(evt)">
<style type="text/css"><![CDATA[
.edge:hover path { stroke: red; }
.edge:hover polygon { stroke: red; fill: red; }
]]></style>
<script type="text/javascript"><![CDATA[
var edges = document.getElementsByTagName('g');
if (edges && edges.length) {
  for (var i=0;i<edges.length;i++) {
    if (edges[i].id.substr(0,4)=='edge') {
      edges[i].setAttribute('class','edge');
    }
  }
}
]]></script>
        <defs>
                <circle id="rim" cx="0" cy="0" r="7"/>
                <circle id="rim2" cx="0" cy="0" r="3.5"/>
                <g id="zoomPlus">
                        <use xlink:href="#rim" fill="#404040">
                                <set attributeName="fill" to="#808080" begin="zoomplus.mouseover" end="zoomplus.mouseout"/>
                        </use>
                        <path d="M-4,0h8M0,-4v8" fill="none" stroke="white" stroke-width="1.5" pointer-events="none"/>
                </g>
                <g id="zoomMin">
                        <use xlink:href="#rim" fill="#404040">
                                <set attributeName="fill" to="#808080" begin="zoomminus.mouseover" end="zoomminus.mouseout"/>
                        </use>
                        <path d="M-4,0h8" fill="none" stroke="white" stroke-width="1.5" pointer-events="none"/>
                </g>
                <g id="dirArrow">
                        <path fill="none" stroke="white" stroke-width="1.5" d="M0,-3.0v7 M-2.5,-0.5L0,-3.0L2.5,-0.5"/>
                </g>
               <g id="resetDef">
                       <use xlink:href="#rim2" fill="#404040">
                               <set attributeName="fill" to="#808080" begin="reset.mouseover" end="reset.mouseout"/>
                       </use>
               </g>
        </defs>

<script type="text/javascript">
var viewWidth = 1560;
var viewHeight = 362;
var sectionId = 'dynsection-1';
</script>
<script xlink:href="svgpan.js"/>
<svg id="graph" class="graph">
<g id="viewport">
<title>/Users/rakesh/svn/customer/qsense/desktop/src/api/QSense.h</title>
<polygon fill="white" stroke="none" points="-4,4 -4,-358 1555.95,-358 1555.95,4 -4,4"/>
<!-- Node1 -->
<g id="node1" class="node"><title>Node1</title>
<polygon fill="#bfbfbf" stroke="black" points="703.955,-312.5 703.955,-353.5 843.955,-353.5 843.955,-312.5 703.955,-312.5"/>
<text text-anchor="start" x="711.955" y="-341.5" font-family="Helvetica,sans-Serif" font-size="10.00">/Users/rakesh/svn/customer</text>
<text text-anchor="start" x="711.955" y="-330.5" font-family="Helvetica,sans-Serif" font-size="10.00">/qsense/desktop/src/api</text>
<text text-anchor="middle" x="773.955" y="-319.5" font-family="Helvetica,sans-Serif" font-size="10.00">/QSense.h</text>
</g>
<!-- Node2 -->
<g id="node2" class="node"><title>Node2</title>
<g id="a_node2"><a xlink:href="_auto_ptr_8h.xhtml" target="_top" xlink:title="/Users/rakesh/svn/customer\l/qsense/desktop/src/api\l/AutoPtr.h">
<polygon fill="white" stroke="black" points="1057.95,-234.5 1057.95,-275.5 1197.95,-275.5 1197.95,-234.5 1057.95,-234.5"/>
<text text-anchor="start" x="1065.95" y="-263.5" font-family="Helvetica,sans-Serif" font-size="10.00">/Users/rakesh/svn/customer</text>
<text text-anchor="start" x="1065.95" y="-252.5" font-family="Helvetica,sans-Serif" font-size="10.00">/qsense/desktop/src/api</text>
<text text-anchor="middle" x="1127.95" y="-241.5" font-family="Helvetica,sans-Serif" font-size="10.00">/AutoPtr.h</text>
</a>
</g>
</g>
<!-- Node1&#45;&gt;Node2 -->
<g id="edge1" class="edge"><title>Node1&#45;&gt;Node2</title>
<path fill="none" stroke="midnightblue" d="M854.257,-316.682C909.214,-305.946 983.667,-290.903 1048.95,-276 1051.85,-275.339 1054.8,-274.652 1057.79,-273.947"/>
<polygon fill="midnightblue" stroke="midnightblue" points="853.375,-313.288 844.229,-318.636 854.714,-320.159 853.375,-313.288"/>
</g>
<!-- Node4 -->
<g id="node4" class="node"><title>Node4</title>
<g id="a_node4"><a xlink:href="_byte_order_8h.xhtml" target="_top" xlink:title="/Users/rakesh/svn/customer\l/qsense/desktop/src/api\l/ByteOrder.h">
<polygon fill="white" stroke="black" points="33.955,-234.5 33.955,-275.5 173.955,-275.5 173.955,-234.5 33.955,-234.5"/>
<text text-anchor="start" x="41.955" y="-263.5" font-family="Helvetica,sans-Serif" font-size="10.00">/Users/rakesh/svn/customer</text>
<text text-anchor="start" x="41.955" y="-252.5" font-family="Helvetica,sans-Serif" font-size="10.00">/qsense/desktop/src/api</text>
<text text-anchor="middle" x="103.955" y="-241.5" font-family="Helvetica,sans-Serif" font-size="10.00">/ByteOrder.h</text>
</a>
</g>
</g>
<!-- Node1&#45;&gt;Node4 -->
<g id="edge3" class="edge"><title>Node1&#45;&gt;Node4</title>
<path fill="none" stroke="midnightblue" d="M693.843,-328.315C579.723,-322.182 364.099,-307.321 182.955,-276 180.027,-275.494 177.048,-274.936 174.046,-274.339"/>
<polygon fill="midnightblue" stroke="midnightblue" points="693.724,-331.813 703.895,-328.846 694.094,-324.823 693.724,-331.813"/>
</g>
<!-- Node5 -->
<g id="node5" class="node"><title>Node5</title>
<g id="a_node5"><a xlink:href="_event_8h.xhtml" target="_top" xlink:title="/Users/rakesh/svn/customer\l/qsense/desktop/src/api\l/Event.h">
<polygon fill="white" stroke="black" points="801.955,-78.5 801.955,-119.5 941.955,-119.5 941.955,-78.5 801.955,-78.5"/>
<text text-anchor="start" x="809.955" y="-107.5" font-family="Helvetica,sans-Serif" font-size="10.00">/Users/rakesh/svn/customer</text>
<text text-anchor="start" x="809.955" y="-96.5" font-family="Helvetica,sans-Serif" font-size="10.00">/qsense/desktop/src/api</text>
<text text-anchor="middle" x="871.955" y="-85.5" font-family="Helvetica,sans-Serif" font-size="10.00">/Event.h</text>
</a>
</g>
</g>
<!-- Node1&#45;&gt;Node5 -->
<g id="edge4" class="edge"><title>Node1&#45;&gt;Node5</title>
<path fill="none" stroke="midnightblue" d="M854.56,-330.262C1008.31,-326.108 1331.27,-313.029 1364.95,-276 1489.26,-139.365 1105.42,-108.75 941.958,-101.935"/>
<polygon fill="midnightblue" stroke="midnightblue" points="854.14,-326.771 844.236,-330.534 854.324,-333.769 854.14,-326.771"/>
</g>
<!-- Node6 -->
<g id="node6" class="node"><title>Node6</title>
<g id="a_node6"><a xlink:href="_sidecar_client_8h.xhtml" target="_top" xlink:title="/Users/rakesh/svn/customer\l/qsense/desktop/src/api\l/net/SidecarClient.h">
<polygon fill="white" stroke="black" points="368.955,-0.5 368.955,-41.5 508.955,-41.5 508.955,-0.5 368.955,-0.5"/>
<text text-anchor="start" x="376.955" y="-29.5" font-family="Helvetica,sans-Serif" font-size="10.00">/Users/rakesh/svn/customer</text>
<text text-anchor="start" x="376.955" y="-18.5" font-family="Helvetica,sans-Serif" font-size="10.00">/qsense/desktop/src/api</text>
<text text-anchor="middle" x="438.955" y="-7.5" font-family="Helvetica,sans-Serif" font-size="10.00">/net/SidecarClient.h</text>
</a>
</g>
</g>
<!-- Node1&#45;&gt;Node6 -->
<g id="edge16" class="edge"><title>Node1&#45;&gt;Node6</title>
<path fill="none" stroke="midnightblue" d="M693.494,-332.017C509.365,-331.217 69.7069,-324.223 24.955,-276 -88.9771,-153.232 223.109,-68.0651 368.722,-36.0565"/>
<polygon fill="midnightblue" stroke="midnightblue" points="693.646,-335.517 703.659,-332.056 693.673,-328.517 693.646,-335.517"/>
</g>
<!-- Node7 -->
<g id="node7" class="node"><title>Node7</title>
<g id="a_node7"><a xlink:href="_base64_8h.xhtml" target="_top" xlink:title="/Users/rakesh/svn/customer\l/qsense/desktop/src/api\l/hash/Base64.h">
<polygon fill="white" stroke="black" points="387.955,-234.5 387.955,-275.5 527.955,-275.5 527.955,-234.5 387.955,-234.5"/>
<text text-anchor="start" x="395.955" y="-263.5" font-family="Helvetica,sans-Serif" font-size="10.00">/Users/rakesh/svn/customer</text>
<text text-anchor="start" x="395.955" y="-252.5" font-family="Helvetica,sans-Serif" font-size="10.00">/qsense/desktop/src/api</text>
<text text-anchor="middle" x="457.955" y="-241.5" font-family="Helvetica,sans-Serif" font-size="10.00">/hash/Base64.h</text>
</a>
</g>
</g>
<!-- Node1&#45;&gt;Node7 -->
<g id="edge6" class="edge"><title>Node1&#45;&gt;Node7</title>
<path fill="none" stroke="midnightblue" d="M693.98,-313.437C648.002,-302.682 589.18,-288.78 536.955,-276 534.069,-275.294 531.125,-274.569 528.152,-273.833"/>
<polygon fill="midnightblue" stroke="midnightblue" points="693.351,-316.884 703.885,-315.752 694.944,-310.068 693.351,-316.884"/>
</g>
<!-- Node8 -->
<g id="node8" class="node"><title>Node8</title>
<g id="a_node8"><a xlink:href="_m_d5_8h.xhtml" target="_top" xlink:title="/Users/rakesh/svn/customer\l/qsense/desktop/src/api\l/hash/MD5.h">
<polygon fill="white" stroke="black" points="545.955,-234.5 545.955,-275.5 685.955,-275.5 685.955,-234.5 545.955,-234.5"/>
<text text-anchor="start" x="553.955" y="-263.5" font-family="Helvetica,sans-Serif" font-size="10.00">/Users/rakesh/svn/customer</text>
<text text-anchor="start" x="553.955" y="-252.5" font-family="Helvetica,sans-Serif" font-size="10.00">/qsense/desktop/src/api</text>
<text text-anchor="middle" x="615.955" y="-241.5" font-family="Helvetica,sans-Serif" font-size="10.00">/hash/MD5.h</text>
</a>
</g>
</g>
<!-- Node1&#45;&gt;Node8 -->
<g id="edge7" class="edge"><title>Node1&#45;&gt;Node8</title>
<path fill="none" stroke="midnightblue" d="M724.161,-308.049C702.369,-297.566 677.127,-285.424 656.506,-275.506"/>
<polygon fill="midnightblue" stroke="midnightblue" points="722.737,-311.247 733.266,-312.428 725.772,-304.939 722.737,-311.247"/>
</g>
<!-- Node9 -->
<g id="node9" class="node"><title>Node9</title>
<g id="a_node9"><a xlink:href="_sha1_8h.xhtml" target="_top" xlink:title="/Users/rakesh/svn/customer\l/qsense/desktop/src/api\l/hash/Sha1.h">
<polygon fill="white" stroke="black" points="703.955,-234.5 703.955,-275.5 843.955,-275.5 843.955,-234.5 703.955,-234.5"/>
<text text-anchor="start" x="711.955" y="-263.5" font-family="Helvetica,sans-Serif" font-size="10.00">/Users/rakesh/svn/customer</text>
<text text-anchor="start" x="711.955" y="-252.5" font-family="Helvetica,sans-Serif" font-size="10.00">/qsense/desktop/src/api</text>
<text text-anchor="middle" x="773.955" y="-241.5" font-family="Helvetica,sans-Serif" font-size="10.00">/hash/Sha1.h</text>
</a>
</g>
</g>
<!-- Node1&#45;&gt;Node9 -->
<g id="edge8" class="edge"><title>Node1&#45;&gt;Node9</title>
<path fill="none" stroke="midnightblue" d="M773.955,-302.297C773.955,-293.301 773.955,-283.653 773.955,-275.506"/>
<polygon fill="midnightblue" stroke="midnightblue" points="770.455,-302.428 773.955,-312.428 777.455,-302.428 770.455,-302.428"/>
</g>
<!-- Node10 -->
<g id="node10" class="node"><title>Node10</title>
<g id="a_node10"><a xlink:href="_location_8h.xhtml" target="_top" xlink:title="/Users/rakesh/svn/customer\l/qsense/desktop/src/api\l/Location.h">
<polygon fill="white" stroke="black" points="1411.95,-156.5 1411.95,-197.5 1551.95,-197.5 1551.95,-156.5 1411.95,-156.5"/>
<text text-anchor="start" x="1419.95" y="-185.5" font-family="Helvetica,sans-Serif" font-size="10.00">/Users/rakesh/svn/customer</text>
<text text-anchor="start" x="1419.95" y="-174.5" font-family="Helvetica,sans-Serif" font-size="10.00">/qsense/desktop/src/api</text>
<text text-anchor="middle" x="1481.95" y="-163.5" font-family="Helvetica,sans-Serif" font-size="10.00">/Location.h</text>
</a>
</g>
</g>
<!-- Node1&#45;&gt;Node10 -->
<g id="edge9" class="edge"><title>Node1&#45;&gt;Node10</title>
<path fill="none" stroke="midnightblue" d="M854.293,-332.217C1000.88,-331.408 1305.19,-323.806 1397.95,-276 1431.82,-258.55 1457.75,-221.06 1471.35,-197.84"/>
<polygon fill="midnightblue" stroke="midnightblue" points="854,-328.718 844.016,-332.264 854.032,-335.718 854,-328.718"/>
</g>
<!-- Node11 -->
<g id="node11" class="node"><title>Node11</title>
<g id="a_node11"><a xlink:href="_date_time_8h.xhtml" target="_top" xlink:title="/Users/rakesh/svn/customer\l/qsense/desktop/src/api\l/net/DateTime.h">
<polygon fill="white" stroke="black" points="191.955,-234.5 191.955,-275.5 331.955,-275.5 331.955,-234.5 191.955,-234.5"/>
<text text-anchor="start" x="199.955" y="-263.5" font-family="Helvetica,sans-Serif" font-size="10.00">/Users/rakesh/svn/customer</text>
<text text-anchor="start" x="199.955" y="-252.5" font-family="Helvetica,sans-Serif" font-size="10.00">/qsense/desktop/src/api</text>
<text text-anchor="middle" x="261.955" y="-241.5" font-family="Helvetica,sans-Serif" font-size="10.00">/net/DateTime.h</text>
</a>
</g>
</g>
<!-- Node1&#45;&gt;Node11 -->
<g id="edge11" class="edge"><title>Node1&#45;&gt;Node11</title>
<path fill="none" stroke="midnightblue" d="M693.938,-324.036C607.663,-314.867 466.477,-298.171 345.955,-276 341.384,-275.159 336.689,-274.229 331.966,-273.243"/>
<polygon fill="midnightblue" stroke="midnightblue" points="693.611,-327.521 703.923,-325.09 694.345,-320.56 693.611,-327.521"/>
</g>
<!-- Node12 -->
<g id="node12" class="node"><title>Node12</title>
<g id="a_node12"><a xlink:href="_reading_8h.xhtml" target="_top" xlink:title="/Users/rakesh/svn/customer\l/qsense/desktop/src/api\l/Reading.h">
<polygon fill="white" stroke="black" points="289.955,-156.5 289.955,-197.5 429.955,-197.5 429.955,-156.5 289.955,-156.5"/>
<text text-anchor="start" x="297.955" y="-185.5" font-family="Helvetica,sans-Serif" font-size="10.00">/Users/rakesh/svn/customer</text>
<text text-anchor="start" x="297.955" y="-174.5" font-family="Helvetica,sans-Serif" font-size="10.00">/qsense/desktop/src/api</text>
<text text-anchor="middle" x="359.955" y="-163.5" font-family="Helvetica,sans-Serif" font-size="10.00">/Reading.h</text>
</a>
</g>
</g>
<!-- Node1&#45;&gt;Node12 -->
<g id="edge17" class="edge"><title>Node1&#45;&gt;Node12</title>
<path fill="none" stroke="midnightblue" d="M693.521,-331.269C591.316,-328.59 422.878,-317.752 378.955,-276 357.852,-255.94 356.264,-220.004 357.666,-197.668"/>
<polygon fill="midnightblue" stroke="midnightblue" points="693.728,-334.775 703.809,-331.517 693.896,-327.777 693.728,-334.775"/>
</g>
<!-- Node13 -->
<g id="node13" class="node"><title>Node13</title>
<g id="a_node13"><a xlink:href="_http_request_8h.xhtml" target="_top" xlink:title="/Users/rakesh/svn/customer\l/qsense/desktop/src/api\l/net/HttpRequest.h">
<polygon fill="white" stroke="black" points="1215.95,-234.5 1215.95,-275.5 1355.95,-275.5 1355.95,-234.5 1215.95,-234.5"/>
<text text-anchor="start" x="1223.95" y="-263.5" font-family="Helvetica,sans-Serif" font-size="10.00">/Users/rakesh/svn/customer</text>
<text text-anchor="start" x="1223.95" y="-252.5" font-family="Helvetica,sans-Serif" font-size="10.00">/qsense/desktop/src/api</text>
<text text-anchor="middle" x="1285.95" y="-241.5" font-family="Helvetica,sans-Serif" font-size="10.00">/net/HttpRequest.h</text>
</a>
</g>
</g>
<!-- Node1&#45;&gt;Node13 -->
<g id="edge14" class="edge"><title>Node1&#45;&gt;Node13</title>
<path fill="none" stroke="midnightblue" d="M854.204,-324.517C941.471,-315.708 1084.84,-299.269 1206.95,-276 1209.87,-275.444 1212.84,-274.844 1215.84,-274.212"/>
<polygon fill="midnightblue" stroke="midnightblue" points="853.708,-321.049 844.107,-325.528 854.406,-328.014 853.708,-321.049"/>
</g>
<!-- Node14 -->
<g id="node14" class="node"><title>Node14</title>
<g id="a_node14"><a xlink:href="_ref_counted_object_8h.xhtml" target="_top" xlink:title="/Users/rakesh/svn/customer\l/qsense/desktop/src/api\l/RefCountedObject.h">
<polygon fill="white" stroke="black" points="899.955,-234.5 899.955,-275.5 1039.95,-275.5 1039.95,-234.5 899.955,-234.5"/>
<text text-anchor="start" x="907.955" y="-263.5" font-family="Helvetica,sans-Serif" font-size="10.00">/Users/rakesh/svn/customer</text>
<text text-anchor="start" x="907.955" y="-252.5" font-family="Helvetica,sans-Serif" font-size="10.00">/qsense/desktop/src/api</text>
<text text-anchor="middle" x="969.955" y="-241.5" font-family="Helvetica,sans-Serif" font-size="10.00">/RefCountedObject.h</text>
</a>
</g>
</g>
<!-- Node1&#45;&gt;Node14 -->
<g id="edge18" class="edge"><title>Node1&#45;&gt;Node14</title>
<path fill="none" stroke="midnightblue" d="M833.92,-308.748C861.356,-298.11 893.5,-285.646 919.651,-275.506"/>
<polygon fill="midnightblue" stroke="midnightblue" points="832.488,-305.55 824.43,-312.428 835.019,-312.076 832.488,-305.55"/>
</g>
<!-- Node15 -->
<g id="node15" class="node"><title>Node15</title>
<g id="a_node15"><a xlink:href="_u_u_i_d_8h.xhtml" target="_top" xlink:title="/Users/rakesh/svn/customer\l/qsense/desktop/src/api/UUID.h">
<polygon fill="white" stroke="black" points="793.455,-162 793.455,-192 950.455,-192 950.455,-162 793.455,-162"/>
<text text-anchor="start" x="801.455" y="-180" font-family="Helvetica,sans-Serif" font-size="10.00">/Users/rakesh/svn/customer</text>
<text text-anchor="middle" x="871.955" y="-169" font-family="Helvetica,sans-Serif" font-size="10.00">/qsense/desktop/src/api/UUID.h</text>
</a>
</g>
</g>
<!-- Node1&#45;&gt;Node15 -->
<g id="edge20" class="edge"><title>Node1&#45;&gt;Node15</title>
<path fill="none" stroke="midnightblue" d="M822.121,-306.582C833.819,-298.288 845.183,-288.051 852.955,-276 869.769,-249.93 872.359,-212.404 872.396,-192.189"/>
<polygon fill="midnightblue" stroke="midnightblue" points="819.964,-303.814 813.59,-312.277 823.851,-309.636 819.964,-303.814"/>
</g>
<!-- Node3 -->
<g id="node3" class="node"><title>Node3</title>
<g id="a_node3"><a xlink:href="_q_http_client_8h.xhtml" target="_top" xlink:title="/Users/rakesh/svn/customer\l/qsense/desktop/src/api\l/net/QHttpClient.h">
<polygon fill="white" stroke="black" points="1057.95,-156.5 1057.95,-197.5 1197.95,-197.5 1197.95,-156.5 1057.95,-156.5"/>
<text text-anchor="start" x="1065.95" y="-185.5" font-family="Helvetica,sans-Serif" font-size="10.00">/Users/rakesh/svn/customer</text>
<text text-anchor="start" x="1065.95" y="-174.5" font-family="Helvetica,sans-Serif" font-size="10.00">/qsense/desktop/src/api</text>
<text text-anchor="middle" x="1127.95" y="-163.5" font-family="Helvetica,sans-Serif" font-size="10.00">/net/QHttpClient.h</text>
</a>
</g>
</g>
<!-- Node2&#45;&gt;Node3 -->
<g id="edge2" class="edge"><title>Node2&#45;&gt;Node3</title>
<path fill="none" stroke="midnightblue" d="M1127.95,-224.297C1127.95,-215.301 1127.95,-205.653 1127.95,-197.506"/>
<polygon fill="midnightblue" stroke="midnightblue" points="1124.46,-224.428 1127.95,-234.428 1131.46,-224.428 1124.46,-224.428"/>
</g>
<!-- Node5&#45;&gt;Node6 -->
<g id="edge5" class="edge"><title>Node5&#45;&gt;Node6</title>
<path fill="none" stroke="midnightblue" d="M791.744,-83.9215C710.665,-69.6905 586.606,-47.9157 509.264,-34.3406"/>
<polygon fill="midnightblue" stroke="midnightblue" points="791.45,-87.4233 801.905,-85.7048 792.66,-80.5287 791.45,-87.4233"/>
</g>
<!-- Node10&#45;&gt;Node5 -->
<g id="edge10" class="edge"><title>Node10&#45;&gt;Node5</title>
<path fill="none" stroke="midnightblue" d="M1401.3,-156.588C1400.18,-156.386 1399.06,-156.19 1397.95,-156 1235.94,-128.204 1043.33,-111.9 942.116,-104.607"/>
<polygon fill="midnightblue" stroke="midnightblue" points="1401.03,-160.1 1411.51,-158.538 1402.34,-153.224 1401.03,-160.1"/>
</g>
<!-- Node11&#45;&gt;Node12 -->
<g id="edge12" class="edge"><title>Node11&#45;&gt;Node12</title>
<path fill="none" stroke="midnightblue" d="M295.398,-228.065C308.302,-218.057 322.812,-206.804 334.803,-197.506"/>
<polygon fill="midnightblue" stroke="midnightblue" points="292.95,-225.534 287.192,-234.428 297.24,-231.066 292.95,-225.534"/>
</g>
<!-- Node12&#45;&gt;Node5 -->
<g id="edge13" class="edge"><title>Node12&#45;&gt;Node5</title>
<path fill="none" stroke="midnightblue" d="M440.066,-164.109C539.464,-149.354 707.351,-124.433 801.864,-110.404"/>
<polygon fill="midnightblue" stroke="midnightblue" points="439.451,-160.661 430.073,-165.592 440.478,-167.586 439.451,-160.661"/>
</g>
<!-- Node13&#45;&gt;Node3 -->
<g id="edge15" class="edge"><title>Node13&#45;&gt;Node3</title>
<path fill="none" stroke="midnightblue" d="M1236.16,-230.049C1214.37,-219.566 1189.13,-207.424 1168.51,-197.506"/>
<polygon fill="midnightblue" stroke="midnightblue" points="1234.74,-233.247 1245.27,-234.428 1237.77,-226.939 1234.74,-233.247"/>
</g>
<!-- Node14&#45;&gt;Node3 -->
<g id="edge19" class="edge"><title>Node14&#45;&gt;Node3</title>
<path fill="none" stroke="midnightblue" d="M1019.75,-230.049C1041.54,-219.566 1066.78,-207.424 1087.4,-197.506"/>
<polygon fill="midnightblue" stroke="midnightblue" points="1018.14,-226.939 1010.64,-234.428 1021.17,-233.247 1018.14,-226.939"/>
</g>
<!-- Node15&#45;&gt;Node5 -->
<g id="edge21" class="edge"><title>Node15&#45;&gt;Node5</title>
<path fill="none" stroke="midnightblue" d="M871.955,-151.656C871.955,-141.326 871.955,-129.443 871.955,-119.68"/>
<polygon fill="midnightblue" stroke="midnightblue" points="868.455,-151.705 871.955,-161.705 875.455,-151.705 868.455,-151.705"/>
</g>
</g>
</svg>
        <g id="navigator" transform="translate(0 0)" fill="#404254">
                <rect fill="#f2f5e9" fill-opacity="0.5" stroke="#606060" stroke-width=".5" x="0" y="0" width="60" height="60"/>
                <use id="zoomplus" xlink:href="#zoomPlus" x="17" y="9" onmousedown="handleZoom(evt,'in')"/>
                <use id="zoomminus" xlink:href="#zoomMin" x="42" y="9" onmousedown="handleZoom(evt,'out')"/>
                <use id="reset" xlink:href="#resetDef" x="30" y="36" onmousedown="handleReset()"/>
                <g id="arrowUp" xlink:href="#dirArrow" transform="translate(30 24)" onmousedown="handlePan(0,-1)">
                  <use xlink:href="#rim" fill="#404040">
                        <set attributeName="fill" to="#808080" begin="arrowUp.mouseover" end="arrowUp.mouseout"/>
                  </use>
                  <path fill="none" stroke="white" stroke-width="1.5" d="M0,-3.0v7 M-2.5,-0.5L0,-3.0L2.5,-0.5"/>
                </g>
                <g id="arrowRight" xlink:href="#dirArrow" transform="rotate(90) translate(36 -43)" onmousedown="handlePan(1,0)">
                  <use xlink:href="#rim" fill="#404040">
                        <set attributeName="fill" to="#808080" begin="arrowRight.mouseover" end="arrowRight.mouseout"/>
                  </use>
                  <path fill="none" stroke="white" stroke-width="1.5" d="M0,-3.0v7 M-2.5,-0.5L0,-3.0L2.5,-0.5"/>
                </g>
                <g id="arrowDown" xlink:href="#dirArrow" transform="rotate(180) translate(-30 -48)" onmousedown="handlePan(0,1)">
                  <use xlink:href="#rim" fill="#404040">
                        <set attributeName="fill" to="#808080" begin="arrowDown.mouseover" end="arrowDown.mouseout"/>
                  </use>
                  <path fill="none" stroke="white" stroke-width="1.5" d="M0,-3.0v7 M-2.5,-0.5L0,-3.0L2.5,-0.5"/>
                </g>
                <g id="arrowLeft" xlink:href="#dirArrow" transform="rotate(270) translate(-36 17)" onmousedown="handlePan(-1,0)">
                  <use xlink:href="#rim" fill="#404040">
                        <set attributeName="fill" to="#808080" begin="arrowLeft.mouseover" end="arrowLeft.mouseout"/>
                  </use>
                  <path fill="none" stroke="white" stroke-width="1.5" d="M0,-3.0v7 M-2.5,-0.5L0,-3.0L2.5,-0.5"/>
                </g>
        </g>
        <svg viewBox="0 0 15 15" width="100%" height="30px" preserveAspectRatio="xMaxYMin meet">
         <g id="arrow_out" transform="scale(0.3 0.3)">
          <a xlink:href="_q_sense_8h__dep__incl_org.svg" target="_base">
           <rect id="button" ry="5" rx="5" y="6" x="6" height="38" width="38"
                fill="#f2f5e9" fill-opacity="0.5" stroke="#606060" stroke-width="1.0"/>
           <path id="arrow"
             d="M 11.500037,31.436501 C 11.940474,20.09759 22.043105,11.32322 32.158766,21.979434 L 37.068811,17.246167 C 37.068811,17.246167 37.088388,32 37.088388,32 L 22.160133,31.978069 C 22.160133,31.978069 26.997745,27.140456 26.997745,27.140456 C 18.528582,18.264221 13.291696,25.230495 11.500037,31.436501 z"
             style="fill:#404040;"/>
          </a>
         </g>
        </svg>
</svg>
