<?xml version="1.0" encoding="UTF-8" standalone="no"?>
<!DOCTYPE svg PUBLIC "-//W3C//DTD SVG 1.1//EN"
 "http://www.w3.org/Graphics/SVG/1.1/DTD/svg11.dtd">
<!-- Generated by graphviz version 2.38.0 (20140413.2041)
 -->
<!-- Title: /Users/rakesh/svn/customer/qsense/desktop/src/api/Reading.h Pages: 1 -->
<svg width="210pt" height="218pt"
 viewBox="0.00 0.00 210.00 218.00" xmlns="http://www.w3.org/2000/svg" xmlns:xlink="http://www.w3.org/1999/xlink">
<g id="graph0" class="graph" transform="scale(1 1) rotate(0) translate(4 214)">
<title>/Users/rakesh/svn/customer/qsense/desktop/src/api/Reading.h</title>
<polygon fill="white" stroke="none" points="-4,4 -4,-214 206,-214 206,4 -4,4"/>
<!-- Node1 -->
<g id="node1" class="node"><title>Node1</title>
<polygon fill="#bfbfbf" stroke="black" points="18.5,-168.5 18.5,-209.5 158.5,-209.5 158.5,-168.5 18.5,-168.5"/>
<text text-anchor="start" x="26.5" y="-197.5" font-family="Helvetica,sans-Serif" font-size="10.00">/Users/rakesh/svn/customer</text>
<text text-anchor="start" x="26.5" y="-186.5" font-family="Helvetica,sans-Serif" font-size="10.00">/qsense/desktop/src/api</text>
<text text-anchor="middle" x="88.5" y="-175.5" font-family="Helvetica,sans-Serif" font-size="10.00">/Reading.h</text>
</g>
<!-- Node2 -->
<g id="node2" class="node"><title>Node2</title>
<g id="a_node2"><a xlink:href="_q_sense_8h.xhtml" target="_top" xlink:title="QSense.h">
<polygon fill="white" stroke="black" points="22,-56.5 22,-75.5 83,-75.5 83,-56.5 22,-56.5"/>
<text text-anchor="middle" x="52.5" y="-63.5" font-family="Helvetica,sans-Serif" font-size="10.00">QSense.h</text>
</a>
</g>
</g>
<!-- Node1&#45;&gt;Node2 -->
<g id="edge1" class="edge"><title>Node1&#45;&gt;Node2</title>
<path fill="none" stroke="midnightblue" d="M63.3543,-168.419C52.9448,-158.723 42.0284,-146.078 36.5,-132 30.4069,-116.484 36.1648,-97.9491 42.4063,-84.6496"/>
<polygon fill="midnightblue" stroke="midnightblue" points="45.5841,-86.1245 47.0851,-75.6365 39.3713,-82.8993 45.5841,-86.1245"/>
</g>
<!-- Node5 -->
<g id="node5" class="node"><title>Node5</title>
<g id="a_node5"><a xlink:href="_date_time_8h.xhtml" target="_top" xlink:title="net/DateTime.h">
<polygon fill="white" stroke="black" points="46,-112.5 46,-131.5 131,-131.5 131,-112.5 46,-112.5"/>
<text text-anchor="middle" x="88.5" y="-119.5" font-family="Helvetica,sans-Serif" font-size="10.00">net/DateTime.h</text>
</a>
</g>
</g>
<!-- Node1&#45;&gt;Node5 -->
<g id="edge4" class="edge"><title>Node1&#45;&gt;Node5</title>
<path fill="none" stroke="midnightblue" d="M88.5,-168.498C88.5,-160.065 88.5,-150.235 88.5,-141.874"/>
<polygon fill="midnightblue" stroke="midnightblue" points="92.0001,-141.652 88.5,-131.652 85.0001,-141.653 92.0001,-141.652"/>
</g>
<!-- Node6 -->
<g id="node6" class="node"><title>Node6</title>
<polygon fill="white" stroke="#bfbfbf" points="149,-112.5 149,-131.5 202,-131.5 202,-112.5 149,-112.5"/>
<text text-anchor="middle" x="175.5" y="-119.5" font-family="Helvetica,sans-Serif" font-size="10.00">ostream</text>
</g>
<!-- Node1&#45;&gt;Node6 -->
<g id="edge6" class="edge"><title>Node1&#45;&gt;Node6</title>
<path fill="none" stroke="midnightblue" d="M114.603,-168.498C127.813,-158.628 143.587,-146.843 155.77,-137.741"/>
<polygon fill="midnightblue" stroke="midnightblue" points="158.003,-140.442 163.919,-131.652 153.813,-134.834 158.003,-140.442"/>
</g>
<!-- Node3 -->
<g id="node3" class="node"><title>Node3</title>
<polygon fill="white" stroke="#bfbfbf" points="0,-0.5 0,-19.5 45,-19.5 45,-0.5 0,-0.5"/>
<text text-anchor="middle" x="22.5" y="-7.5" font-family="Helvetica,sans-Serif" font-size="10.00">cstdint</text>
</g>
<!-- Node2&#45;&gt;Node3 -->
<g id="edge2" class="edge"><title>Node2&#45;&gt;Node3</title>
<path fill="none" stroke="midnightblue" d="M47.5461,-56.083C43.3959,-48.6127 37.3469,-37.7244 32.2333,-28.5199"/>
<polygon fill="midnightblue" stroke="midnightblue" points="35.2777,-26.7929 27.3617,-19.7511 29.1586,-30.1924 35.2777,-26.7929"/>
</g>
<!-- Node4 -->
<g id="node4" class="node"><title>Node4</title>
<polygon fill="white" stroke="#bfbfbf" points="63,-0.5 63,-19.5 104,-19.5 104,-0.5 63,-0.5"/>
<text text-anchor="middle" x="83.5" y="-7.5" font-family="Helvetica,sans-Serif" font-size="10.00">string</text>
</g>
<!-- Node2&#45;&gt;Node4 -->
<g id="edge3" class="edge"><title>Node2&#45;&gt;Node4</title>
<path fill="none" stroke="midnightblue" d="M57.619,-56.083C61.9075,-48.6127 68.1582,-37.7244 73.4423,-28.5199"/>
<polygon fill="midnightblue" stroke="midnightblue" points="76.5329,-30.1662 78.4762,-19.7511 70.4621,-26.6811 76.5329,-30.1662"/>
</g>
<!-- Node5&#45;&gt;Node2 -->
<g id="edge5" class="edge"><title>Node5&#45;&gt;Node2</title>
<path fill="none" stroke="midnightblue" d="M82.5553,-112.083C77.5227,-104.534 70.1632,-93.4948 63.9865,-84.2298"/>
<polygon fill="midnightblue" stroke="midnightblue" points="66.7933,-82.1301 58.3341,-75.7511 60.9689,-86.0131 66.7933,-82.1301"/>
</g>
</g>
</svg>
