<?xml version="1.0" encoding="UTF-8" standalone="no"?>
<!DOCTYPE svg PUBLIC "-//W3C//DTD SVG 1.1//EN"
 "http://www.w3.org/Graphics/SVG/1.1/DTD/svg11.dtd">
<!-- Generated by graphviz version 2.38.0 (20140413.2041)
 -->
<!-- Title: /Users/rakesh/svn/customer/qsense/desktop/src/api/Reading.h Pages: 1 -->
<svg width="223pt" height="218pt"
 viewBox="0.00 0.00 223.00 218.00" xmlns="http://www.w3.org/2000/svg" xmlns:xlink="http://www.w3.org/1999/xlink">
<g id="graph0" class="graph" transform="scale(1 1) rotate(0) translate(4 214)">
<title>/Users/rakesh/svn/customer/qsense/desktop/src/api/Reading.h</title>
<polygon fill="white" stroke="none" points="-4,4 -4,-214 219,-214 219,4 -4,4"/>
<!-- Node1 -->
<g id="node1" class="node"><title>Node1</title>
<polygon fill="#bfbfbf" stroke="black" points="31.5,-168.5 31.5,-209.5 171.5,-209.5 171.5,-168.5 31.5,-168.5"/>
<text text-anchor="start" x="39.5" y="-197.5" font-family="Helvetica,sans-Serif" font-size="10.00">/Users/rakesh/svn/customer</text>
<text text-anchor="start" x="39.5" y="-186.5" font-family="Helvetica,sans-Serif" font-size="10.00">/qsense/desktop/src/api</text>
<text text-anchor="middle" x="101.5" y="-175.5" font-family="Helvetica,sans-Serif" font-size="10.00">/Reading.h</text>
</g>
<!-- Node2 -->
<g id="node2" class="node"><title>Node2</title>
<g id="a_node2"><a xlink:href="_q_sense_8h.xhtml" target="_top" xlink:title="QSense.h">
<polygon fill="white" stroke="black" points="0,-56.5 0,-75.5 61,-75.5 61,-56.5 0,-56.5"/>
<text text-anchor="middle" x="30.5" y="-63.5" font-family="Helvetica,sans-Serif" font-size="10.00">QSense.h</text>
</a>
</g>
</g>
<!-- Node1&#45;&gt;Node2 -->
<g id="edge1" class="edge"><title>Node1&#45;&gt;Node2</title>
<path fill="none" stroke="midnightblue" d="M78.9352,-168.338C68.6844,-158.356 57.1642,-145.499 49.5,-132 41.337,-117.623 36.4089,-99.427 33.6249,-85.9464"/>
<polygon fill="midnightblue" stroke="midnightblue" points="37.0303,-85.1138 31.7667,-75.919 30.1475,-86.3893 37.0303,-85.1138"/>
</g>
<!-- Node4 -->
<g id="node4" class="node"><title>Node4</title>
<g id="a_node4"><a xlink:href="_date_time_8h.xhtml" target="_top" xlink:title="net/DateTime.h">
<polygon fill="white" stroke="black" points="59,-112.5 59,-131.5 144,-131.5 144,-112.5 59,-112.5"/>
<text text-anchor="middle" x="101.5" y="-119.5" font-family="Helvetica,sans-Serif" font-size="10.00">net/DateTime.h</text>
</a>
</g>
</g>
<!-- Node1&#45;&gt;Node4 -->
<g id="edge3" class="edge"><title>Node1&#45;&gt;Node4</title>
<path fill="none" stroke="midnightblue" d="M101.5,-168.498C101.5,-160.065 101.5,-150.235 101.5,-141.874"/>
<polygon fill="midnightblue" stroke="midnightblue" points="105,-141.652 101.5,-131.652 98.0001,-141.653 105,-141.652"/>
</g>
<!-- Node6 -->
<g id="node6" class="node"><title>Node6</title>
<polygon fill="white" stroke="#bfbfbf" points="162,-112.5 162,-131.5 215,-131.5 215,-112.5 162,-112.5"/>
<text text-anchor="middle" x="188.5" y="-119.5" font-family="Helvetica,sans-Serif" font-size="10.00">ostream</text>
</g>
<!-- Node1&#45;&gt;Node6 -->
<g id="edge6" class="edge"><title>Node1&#45;&gt;Node6</title>
<path fill="none" stroke="midnightblue" d="M127.603,-168.498C140.813,-158.628 156.587,-146.843 168.77,-137.741"/>
<polygon fill="midnightblue" stroke="midnightblue" points="171.003,-140.442 176.919,-131.652 166.813,-134.834 171.003,-140.442"/>
</g>
<!-- Node3 -->
<g id="node3" class="node"><title>Node3</title>
<polygon fill="white" stroke="#bfbfbf" points="10,-0.5 10,-19.5 51,-19.5 51,-0.5 10,-0.5"/>
<text text-anchor="middle" x="30.5" y="-7.5" font-family="Helvetica,sans-Serif" font-size="10.00">string</text>
</g>
<!-- Node2&#45;&gt;Node3 -->
<g id="edge2" class="edge"><title>Node2&#45;&gt;Node3</title>
<path fill="none" stroke="midnightblue" d="M30.5,-56.083C30.5,-49.0059 30.5,-38.8611 30.5,-29.9865"/>
<polygon fill="midnightblue" stroke="midnightblue" points="34.0001,-29.751 30.5,-19.7511 27.0001,-29.7511 34.0001,-29.751"/>
</g>
<!-- Node4&#45;&gt;Node2 -->
<g id="edge4" class="edge"><title>Node4&#45;&gt;Node2</title>
<path fill="none" stroke="midnightblue" d="M90.0926,-112.324C79.3912,-104.185 63.1593,-91.8395 50.3372,-82.0874"/>
<polygon fill="midnightblue" stroke="midnightblue" points="52.1932,-79.1018 42.1149,-75.8339 47.9556,-84.6734 52.1932,-79.1018"/>
</g>
<!-- Node5 -->
<g id="node5" class="node"><title>Node5</title>
<polygon fill="white" stroke="#bfbfbf" points="79,-56.5 79,-75.5 134,-75.5 134,-56.5 79,-56.5"/>
<text text-anchor="middle" x="106.5" y="-63.5" font-family="Helvetica,sans-Serif" font-size="10.00">iostream</text>
</g>
<!-- Node4&#45;&gt;Node5 -->
<g id="edge5" class="edge"><title>Node4&#45;&gt;Node5</title>
<path fill="none" stroke="midnightblue" d="M102.326,-112.083C102.981,-105.006 103.92,-94.8611 104.742,-85.9865"/>
<polygon fill="midnightblue" stroke="midnightblue" points="108.253,-86.0312 105.69,-75.7511 101.283,-85.3858 108.253,-86.0312"/>
</g>
</g>
</svg>
