<?xml version="1.0" encoding="UTF-8" standalone="no"?>
<!DOCTYPE svg PUBLIC "-//W3C//DTD SVG 1.1//EN"
 "http://www.w3.org/Graphics/SVG/1.1/DTD/svg11.dtd">
<!-- Generated by graphviz version 2.38.0 (20140413.2041)
 -->
<!-- Title: RefCountedObject.h Pages: 1 -->
<svg width="115pt" height="140pt"
 viewBox="0.00 0.00 115.00 140.00" xmlns="http://www.w3.org/2000/svg" xmlns:xlink="http://www.w3.org/1999/xlink">
<g id="graph0" class="graph" transform="scale(1 1) rotate(0) translate(4 136)">
<title>RefCountedObject.h</title>
<polygon fill="white" stroke="none" points="-4,4 -4,-136 111,-136 111,4 -4,4"/>
<!-- Node1 -->
<g id="node1" class="node"><title>Node1</title>
<polygon fill="#bfbfbf" stroke="black" points="0,-112.5 0,-131.5 107,-131.5 107,-112.5 0,-112.5"/>
<text text-anchor="middle" x="53.5" y="-119.5" font-family="Helvetica,sans-Serif" font-size="10.00">RefCountedObject.h</text>
</g>
<!-- Node2 -->
<g id="node2" class="node"><title>Node2</title>
<g id="a_node2"><a xlink:href="_q_sense_8h.xhtml" target="_top" xlink:title="QSense.h">
<polygon fill="white" stroke="black" points="23,-56.5 23,-75.5 84,-75.5 84,-56.5 23,-56.5"/>
<text text-anchor="middle" x="53.5" y="-63.5" font-family="Helvetica,sans-Serif" font-size="10.00">QSense.h</text>
</a>
</g>
</g>
<!-- Node1&#45;&gt;Node2 -->
<g id="edge1" class="edge"><title>Node1&#45;&gt;Node2</title>
<path fill="none" stroke="midnightblue" d="M53.5,-112.083C53.5,-105.006 53.5,-94.8611 53.5,-85.9865"/>
<polygon fill="midnightblue" stroke="midnightblue" points="57.0001,-85.751 53.5,-75.7511 50.0001,-85.7511 57.0001,-85.751"/>
</g>
<!-- Node3 -->
<g id="node3" class="node"><title>Node3</title>
<polygon fill="white" stroke="#bfbfbf" points="1,-0.5 1,-19.5 46,-19.5 46,-0.5 1,-0.5"/>
<text text-anchor="middle" x="23.5" y="-7.5" font-family="Helvetica,sans-Serif" font-size="10.00">cstdint</text>
</g>
<!-- Node2&#45;&gt;Node3 -->
<g id="edge2" class="edge"><title>Node2&#45;&gt;Node3</title>
<path fill="none" stroke="midnightblue" d="M48.5461,-56.083C44.3959,-48.6127 38.3469,-37.7244 33.2333,-28.5199"/>
<polygon fill="midnightblue" stroke="midnightblue" points="36.2777,-26.7929 28.3617,-19.7511 30.1586,-30.1924 36.2777,-26.7929"/>
</g>
<!-- Node4 -->
<g id="node4" class="node"><title>Node4</title>
<polygon fill="white" stroke="#bfbfbf" points="64,-0.5 64,-19.5 105,-19.5 105,-0.5 64,-0.5"/>
<text text-anchor="middle" x="84.5" y="-7.5" font-family="Helvetica,sans-Serif" font-size="10.00">string</text>
</g>
<!-- Node2&#45;&gt;Node4 -->
<g id="edge3" class="edge"><title>Node2&#45;&gt;Node4</title>
<path fill="none" stroke="midnightblue" d="M58.619,-56.083C62.9075,-48.6127 69.1582,-37.7244 74.4423,-28.5199"/>
<polygon fill="midnightblue" stroke="midnightblue" points="77.5329,-30.1662 79.4762,-19.7511 71.4621,-26.6811 77.5329,-30.1662"/>
</g>
</g>
</svg>
