<?xml version="1.0" encoding="UTF-8" standalone="no"?>
<!DOCTYPE svg PUBLIC "-//W3C//DTD SVG 1.1//EN"
 "http://www.w3.org/Graphics/SVG/1.1/DTD/svg11.dtd">
<!-- Generated by graphviz version 2.38.0 (20140413.2041)
 -->
<!-- Title: Sha1.h Pages: 1 -->
<svg width="166pt" height="140pt"
 viewBox="0.00 0.00 166.00 140.00" xmlns="http://www.w3.org/2000/svg" xmlns:xlink="http://www.w3.org/1999/xlink">
<g id="graph0" class="graph" transform="scale(1 1) rotate(0) translate(4 136)">
<title>Sha1.h</title>
<polygon fill="white" stroke="none" points="-4,4 -4,-136 162,-136 162,4 -4,4"/>
<!-- Node1 -->
<g id="node1" class="node"><title>Node1</title>
<polygon fill="#bfbfbf" stroke="black" points="44.5,-112.5 44.5,-131.5 92.5,-131.5 92.5,-112.5 44.5,-112.5"/>
<text text-anchor="middle" x="68.5" y="-119.5" font-family="Helvetica,sans-Serif" font-size="10.00">Sha1.h</text>
</g>
<!-- Node2 -->
<g id="node2" class="node"><title>Node2</title>
<polygon fill="white" stroke="#bfbfbf" points="0,-56.5 0,-75.5 59,-75.5 59,-56.5 0,-56.5"/>
<text text-anchor="middle" x="29.5" y="-63.5" font-family="Helvetica,sans-Serif" font-size="10.00">inttypes.h</text>
</g>
<!-- Node1&#45;&gt;Node2 -->
<g id="edge1" class="edge"><title>Node1&#45;&gt;Node2</title>
<path fill="none" stroke="midnightblue" d="M62.0599,-112.083C56.5511,-104.455 48.4688,-93.2645 41.735,-83.9408"/>
<polygon fill="midnightblue" stroke="midnightblue" points="44.5126,-81.8087 35.8202,-75.7511 38.8378,-85.9071 44.5126,-81.8087"/>
</g>
<!-- Node3 -->
<g id="node3" class="node"><title>Node3</title>
<g id="a_node3"><a xlink:href="_q_sense_8h.xhtml" target="_top" xlink:title="QSense.h">
<polygon fill="white" stroke="black" points="77,-56.5 77,-75.5 138,-75.5 138,-56.5 77,-56.5"/>
<text text-anchor="middle" x="107.5" y="-63.5" font-family="Helvetica,sans-Serif" font-size="10.00">QSense.h</text>
</a>
</g>
</g>
<!-- Node1&#45;&gt;Node3 -->
<g id="edge2" class="edge"><title>Node1&#45;&gt;Node3</title>
<path fill="none" stroke="midnightblue" d="M74.9401,-112.083C80.4489,-104.455 88.5312,-93.2645 95.265,-83.9408"/>
<polygon fill="midnightblue" stroke="midnightblue" points="98.1622,-85.9071 101.18,-75.7511 92.4874,-81.8087 98.1622,-85.9071"/>
</g>
<!-- Node4 -->
<g id="node4" class="node"><title>Node4</title>
<polygon fill="white" stroke="#bfbfbf" points="54,-0.5 54,-19.5 99,-19.5 99,-0.5 54,-0.5"/>
<text text-anchor="middle" x="76.5" y="-7.5" font-family="Helvetica,sans-Serif" font-size="10.00">cstdint</text>
</g>
<!-- Node3&#45;&gt;Node4 -->
<g id="edge3" class="edge"><title>Node3&#45;&gt;Node4</title>
<path fill="none" stroke="midnightblue" d="M102.381,-56.083C98.0925,-48.6127 91.8418,-37.7244 86.5577,-28.5199"/>
<polygon fill="midnightblue" stroke="midnightblue" points="89.5379,-26.6811 81.5238,-19.7511 83.4671,-30.1662 89.5379,-26.6811"/>
</g>
<!-- Node5 -->
<g id="node5" class="node"><title>Node5</title>
<polygon fill="white" stroke="#bfbfbf" points="117,-0.5 117,-19.5 158,-19.5 158,-0.5 117,-0.5"/>
<text text-anchor="middle" x="137.5" y="-7.5" font-family="Helvetica,sans-Serif" font-size="10.00">string</text>
</g>
<!-- Node3&#45;&gt;Node5 -->
<g id="edge4" class="edge"><title>Node3&#45;&gt;Node5</title>
<path fill="none" stroke="midnightblue" d="M112.454,-56.083C116.604,-48.6127 122.653,-37.7244 127.767,-28.5199"/>
<polygon fill="midnightblue" stroke="midnightblue" points="130.841,-30.1924 132.638,-19.7511 124.722,-26.7929 130.841,-30.1924"/>
</g>
</g>
</svg>
