<?xml version="1.0" encoding="UTF-8" standalone="no"?>
<!DOCTYPE svg PUBLIC "-//W3C//DTD SVG 1.1//EN"
 "http://www.w3.org/Graphics/SVG/1.1/DTD/svg11.dtd">
<!-- Generated by graphviz version 2.38.0 (20140413.2041)
 -->
<!-- Title: /Users/rakesh/svn/customer/qsense/desktop/src/api/hash/Sha1.h Pages: 1 -->
<svg width="168pt" height="162pt"
 viewBox="0.00 0.00 167.50 162.00" xmlns="http://www.w3.org/2000/svg" xmlns:xlink="http://www.w3.org/1999/xlink">
<g id="graph0" class="graph" transform="scale(1 1) rotate(0) translate(4 158)">
<title>/Users/rakesh/svn/customer/qsense/desktop/src/api/hash/Sha1.h</title>
<polygon fill="white" stroke="none" points="-4,4 -4,-158 163.5,-158 163.5,4 -4,4"/>
<!-- Node1 -->
<g id="node1" class="node"><title>Node1</title>
<polygon fill="#bfbfbf" stroke="black" points="0,-112.5 0,-153.5 140,-153.5 140,-112.5 0,-112.5"/>
<text text-anchor="start" x="8" y="-141.5" font-family="Helvetica,sans-Serif" font-size="10.00">/Users/rakesh/svn/customer</text>
<text text-anchor="start" x="8" y="-130.5" font-family="Helvetica,sans-Serif" font-size="10.00">/qsense/desktop/src/api</text>
<text text-anchor="middle" x="70" y="-119.5" font-family="Helvetica,sans-Serif" font-size="10.00">/hash/Sha1.h</text>
</g>
<!-- Node2 -->
<g id="node2" class="node"><title>Node2</title>
<polygon fill="white" stroke="#bfbfbf" points="1.5,-56.5 1.5,-75.5 60.5,-75.5 60.5,-56.5 1.5,-56.5"/>
<text text-anchor="middle" x="31" y="-63.5" font-family="Helvetica,sans-Serif" font-size="10.00">inttypes.h</text>
</g>
<!-- Node1&#45;&gt;Node2 -->
<g id="edge1" class="edge"><title>Node1&#45;&gt;Node2</title>
<path fill="none" stroke="midnightblue" d="M58.2987,-112.498C52.9517,-103.586 46.6681,-93.1135 41.4782,-84.4636"/>
<polygon fill="midnightblue" stroke="midnightblue" points="44.3377,-82.4267 36.1915,-75.6525 38.3353,-86.0282 44.3377,-82.4267"/>
</g>
<!-- Node3 -->
<g id="node3" class="node"><title>Node3</title>
<g id="a_node3"><a xlink:href="_q_sense_8h.xhtml" target="_top" xlink:title="QSense.h">
<polygon fill="white" stroke="black" points="78.5,-56.5 78.5,-75.5 139.5,-75.5 139.5,-56.5 78.5,-56.5"/>
<text text-anchor="middle" x="109" y="-63.5" font-family="Helvetica,sans-Serif" font-size="10.00">QSense.h</text>
</a>
</g>
</g>
<!-- Node1&#45;&gt;Node3 -->
<g id="edge2" class="edge"><title>Node1&#45;&gt;Node3</title>
<path fill="none" stroke="midnightblue" d="M81.7013,-112.498C87.0483,-103.586 93.3319,-93.1135 98.5218,-84.4636"/>
<polygon fill="midnightblue" stroke="midnightblue" points="101.665,-86.0282 103.809,-75.6525 95.6623,-82.4267 101.665,-86.0282"/>
</g>
<!-- Node4 -->
<g id="node4" class="node"><title>Node4</title>
<polygon fill="white" stroke="#bfbfbf" points="55.5,-0.5 55.5,-19.5 100.5,-19.5 100.5,-0.5 55.5,-0.5"/>
<text text-anchor="middle" x="78" y="-7.5" font-family="Helvetica,sans-Serif" font-size="10.00">cstdint</text>
</g>
<!-- Node3&#45;&gt;Node4 -->
<g id="edge3" class="edge"><title>Node3&#45;&gt;Node4</title>
<path fill="none" stroke="midnightblue" d="M103.881,-56.083C99.5925,-48.6127 93.3418,-37.7244 88.0577,-28.5199"/>
<polygon fill="midnightblue" stroke="midnightblue" points="91.0379,-26.6811 83.0238,-19.7511 84.9671,-30.1662 91.0379,-26.6811"/>
</g>
<!-- Node5 -->
<g id="node5" class="node"><title>Node5</title>
<polygon fill="white" stroke="#bfbfbf" points="118.5,-0.5 118.5,-19.5 159.5,-19.5 159.5,-0.5 118.5,-0.5"/>
<text text-anchor="middle" x="139" y="-7.5" font-family="Helvetica,sans-Serif" font-size="10.00">string</text>
</g>
<!-- Node3&#45;&gt;Node5 -->
<g id="edge4" class="edge"><title>Node3&#45;&gt;Node5</title>
<path fill="none" stroke="midnightblue" d="M113.954,-56.083C118.104,-48.6127 124.153,-37.7244 129.267,-28.5199"/>
<polygon fill="midnightblue" stroke="midnightblue" points="132.341,-30.1924 134.138,-19.7511 126.222,-26.7929 132.341,-30.1924"/>
</g>
</g>
</svg>
