<?xml version="1.0" encoding="UTF-8" standalone="no"?>
<!DOCTYPE svg PUBLIC "-//W3C//DTD SVG 1.1//EN"
 "http://www.w3.org/Graphics/SVG/1.1/DTD/svg11.dtd">
<!-- Generated by graphviz version 2.38.0 (20140413.2041)
 -->
<!-- Title: SidecarClient.h Pages: 1 -->
<svg width="327pt" height="308pt"
 viewBox="0.00 0.00 327.17 308.00" xmlns="http://www.w3.org/2000/svg" xmlns:xlink="http://www.w3.org/1999/xlink">
<g id="graph0" class="graph" transform="scale(1 1) rotate(0) translate(4 304)">
<title>SidecarClient.h</title>
<polygon fill="white" stroke="none" points="-4,4 -4,-304 323.165,-304 323.165,4 -4,4"/>
<!-- Node1 -->
<g id="node1" class="node"><title>Node1</title>
<polygon fill="#bfbfbf" stroke="black" points="1.16546,-280.5 1.16546,-299.5 85.1655,-299.5 85.1655,-280.5 1.16546,-280.5"/>
<text text-anchor="middle" x="43.1655" y="-287.5" font-family="Helvetica,sans-Serif" font-size="10.00">SidecarClient.h</text>
</g>
<!-- Node2 -->
<g id="node2" class="node"><title>Node2</title>
<g id="a_node2"><a xlink:href="_q_sense_8h.xhtml" target="_top" xlink:title="QSense.h">
<polygon fill="white" stroke="black" points="52.6655,-56.5 52.6655,-75.5 113.665,-75.5 113.665,-56.5 52.6655,-56.5"/>
<text text-anchor="middle" x="83.1655" y="-63.5" font-family="Helvetica,sans-Serif" font-size="10.00">QSense.h</text>
</a>
</g>
</g>
<!-- Node1&#45;&gt;Node2 -->
<g id="edge1" class="edge"><title>Node1&#45;&gt;Node2</title>
<path fill="none" stroke="midnightblue" d="M37.1528,-280.22C24.4685,-260.712 -3.49637,-212.004 1.16546,-168 3.84705,-142.688 -1.31754,-132.932 13.1655,-112 22.7165,-98.1961 38.017,-87.6528 51.8807,-80.2539"/>
<polygon fill="midnightblue" stroke="midnightblue" points="53.7695,-83.2233 61.1607,-75.6324 50.649,-76.9573 53.7695,-83.2233"/>
</g>
<!-- Node5 -->
<g id="node5" class="node"><title>Node5</title>
<g id="a_node5"><a xlink:href="_event_8h.xhtml" target="_top" xlink:title="Event.h">
<polygon fill="white" stroke="black" points="109.165,-224.5 109.165,-243.5 159.165,-243.5 159.165,-224.5 109.165,-224.5"/>
<text text-anchor="middle" x="134.165" y="-231.5" font-family="Helvetica,sans-Serif" font-size="10.00">Event.h</text>
</a>
</g>
</g>
<!-- Node1&#45;&gt;Node5 -->
<g id="edge4" class="edge"><title>Node1&#45;&gt;Node5</title>
<path fill="none" stroke="midnightblue" d="M57.7862,-280.324C72.1144,-271.822 94.178,-258.729 110.914,-248.797"/>
<polygon fill="midnightblue" stroke="midnightblue" points="112.767,-251.768 119.581,-243.655 109.195,-245.748 112.767,-251.768"/>
</g>
<!-- Node3 -->
<g id="node3" class="node"><title>Node3</title>
<polygon fill="white" stroke="#bfbfbf" points="30.6655,-0.5 30.6655,-19.5 75.6655,-19.5 75.6655,-0.5 30.6655,-0.5"/>
<text text-anchor="middle" x="53.1655" y="-7.5" font-family="Helvetica,sans-Serif" font-size="10.00">cstdint</text>
</g>
<!-- Node2&#45;&gt;Node3 -->
<g id="edge2" class="edge"><title>Node2&#45;&gt;Node3</title>
<path fill="none" stroke="midnightblue" d="M78.2116,-56.083C74.0614,-48.6127 68.0124,-37.7244 62.8987,-28.5199"/>
<polygon fill="midnightblue" stroke="midnightblue" points="65.9432,-26.7929 58.0272,-19.7511 59.8241,-30.1924 65.9432,-26.7929"/>
</g>
<!-- Node4 -->
<g id="node4" class="node"><title>Node4</title>
<polygon fill="white" stroke="#bfbfbf" points="93.6655,-0.5 93.6655,-19.5 134.665,-19.5 134.665,-0.5 93.6655,-0.5"/>
<text text-anchor="middle" x="114.165" y="-7.5" font-family="Helvetica,sans-Serif" font-size="10.00">string</text>
</g>
<!-- Node2&#45;&gt;Node4 -->
<g id="edge3" class="edge"><title>Node2&#45;&gt;Node4</title>
<path fill="none" stroke="midnightblue" d="M88.2845,-56.083C92.573,-48.6127 98.8237,-37.7244 104.108,-28.5199"/>
<polygon fill="midnightblue" stroke="midnightblue" points="107.198,-30.1662 109.142,-19.7511 101.128,-26.6811 107.198,-30.1662"/>
</g>
<!-- Node5&#45;&gt;Node2 -->
<g id="edge5" class="edge"><title>Node5&#45;&gt;Node2</title>
<path fill="none" stroke="midnightblue" d="M109.031,-231.786C80.1619,-228.885 33.9815,-219.3 12.1655,-188 -13.3133,-151.445 33.8808,-105.344 62.8929,-82.0081"/>
<polygon fill="midnightblue" stroke="midnightblue" points="65.13,-84.702 70.8656,-75.7939 60.8267,-79.181 65.13,-84.702"/>
</g>
<!-- Node6 -->
<g id="node6" class="node"><title>Node6</title>
<g id="a_node6"><a xlink:href="_location_8h.xhtml" target="_top" xlink:title="Location.h">
<polygon fill="white" stroke="black" points="21.6655,-168.5 21.6655,-187.5 84.6655,-187.5 84.6655,-168.5 21.6655,-168.5"/>
<text text-anchor="middle" x="53.1655" y="-175.5" font-family="Helvetica,sans-Serif" font-size="10.00">Location.h</text>
</a>
</g>
</g>
<!-- Node5&#45;&gt;Node6 -->
<g id="edge6" class="edge"><title>Node5&#45;&gt;Node6</title>
<path fill="none" stroke="midnightblue" d="M121.151,-224.324C108.634,-215.979 89.4837,-203.212 74.6941,-193.352"/>
<polygon fill="midnightblue" stroke="midnightblue" points="76.4092,-190.289 66.1472,-187.655 72.5263,-196.114 76.4092,-190.289"/>
</g>
<!-- Node8 -->
<g id="node8" class="node"><title>Node8</title>
<g id="a_node8"><a xlink:href="_reading_8h.xhtml" target="_top" xlink:title="Reading.h">
<polygon fill="white" stroke="black" points="103.165,-168.5 103.165,-187.5 165.165,-187.5 165.165,-168.5 103.165,-168.5"/>
<text text-anchor="middle" x="134.165" y="-175.5" font-family="Helvetica,sans-Serif" font-size="10.00">Reading.h</text>
</a>
</g>
</g>
<!-- Node5&#45;&gt;Node8 -->
<g id="edge9" class="edge"><title>Node5&#45;&gt;Node8</title>
<path fill="none" stroke="midnightblue" d="M134.165,-224.083C134.165,-217.006 134.165,-206.861 134.165,-197.986"/>
<polygon fill="midnightblue" stroke="midnightblue" points="137.666,-197.751 134.165,-187.751 130.666,-197.751 137.666,-197.751"/>
</g>
<!-- Node10 -->
<g id="node10" class="node"><title>Node10</title>
<g id="a_node10"><a xlink:href="_u_u_i_d_8h.xhtml" target="_top" xlink:title="UUID.h">
<polygon fill="white" stroke="black" points="269.665,-112.5 269.665,-131.5 318.665,-131.5 318.665,-112.5 269.665,-112.5"/>
<text text-anchor="middle" x="294.165" y="-119.5" font-family="Helvetica,sans-Serif" font-size="10.00">UUID.h</text>
</a>
</g>
</g>
<!-- Node5&#45;&gt;Node10 -->
<g id="edge14" class="edge"><title>Node5&#45;&gt;Node10</title>
<path fill="none" stroke="midnightblue" d="M143.305,-224.376C157.417,-211.3 185.657,-186.07 212.165,-168 229.775,-155.996 250.881,-144.473 267.27,-136.092"/>
<polygon fill="midnightblue" stroke="midnightblue" points="268.953,-139.164 276.312,-131.542 265.806,-132.911 268.953,-139.164"/>
</g>
<!-- Node11 -->
<g id="node11" class="node"><title>Node11</title>
<polygon fill="white" stroke="#bfbfbf" points="221.165,-168.5 221.165,-187.5 265.165,-187.5 265.165,-168.5 221.165,-168.5"/>
<text text-anchor="middle" x="243.165" y="-175.5" font-family="Helvetica,sans-Serif" font-size="10.00">vector</text>
</g>
<!-- Node5&#45;&gt;Node11 -->
<g id="edge16" class="edge"><title>Node5&#45;&gt;Node11</title>
<path fill="none" stroke="midnightblue" d="M151.678,-224.324C169.238,-215.625 196.497,-202.12 216.697,-192.113"/>
<polygon fill="midnightblue" stroke="midnightblue" points="218.289,-195.23 225.696,-187.655 215.182,-188.958 218.289,-195.23"/>
</g>
<!-- Node12 -->
<g id="node12" class="node"><title>Node12</title>
<polygon fill="white" stroke="#bfbfbf" points="283.165,-168.5 283.165,-187.5 319.165,-187.5 319.165,-168.5 283.165,-168.5"/>
<text text-anchor="middle" x="301.165" y="-175.5" font-family="Helvetica,sans-Serif" font-size="10.00">map</text>
</g>
<!-- Node5&#45;&gt;Node12 -->
<g id="edge17" class="edge"><title>Node5&#45;&gt;Node12</title>
<path fill="none" stroke="midnightblue" d="M159.229,-225.033C185.401,-216.695 227.884,-203.106 273.409,-188.224"/>
<polygon fill="midnightblue" stroke="midnightblue" points="274.751,-191.468 283.165,-185.03 272.573,-184.815 274.751,-191.468"/>
</g>
<!-- Node6&#45;&gt;Node2 -->
<g id="edge7" class="edge"><title>Node6&#45;&gt;Node2</title>
<path fill="none" stroke="midnightblue" d="M50.1077,-168.305C46.1227,-155.564 40.4133,-131.249 47.1655,-112 50.9506,-101.209 58.532,-91.084 65.7652,-83.1808"/>
<polygon fill="midnightblue" stroke="midnightblue" points="68.4911,-85.4005 73.0033,-75.8145 63.498,-80.4943 68.4911,-85.4005"/>
</g>
<!-- Node7 -->
<g id="node7" class="node"><title>Node7</title>
<polygon fill="white" stroke="#bfbfbf" points="56.6655,-112.5 56.6655,-131.5 109.665,-131.5 109.665,-112.5 56.6655,-112.5"/>
<text text-anchor="middle" x="83.1655" y="-119.5" font-family="Helvetica,sans-Serif" font-size="10.00">ostream</text>
</g>
<!-- Node6&#45;&gt;Node7 -->
<g id="edge8" class="edge"><title>Node6&#45;&gt;Node7</title>
<path fill="none" stroke="midnightblue" d="M58.1193,-168.083C62.2695,-160.613 68.3186,-149.724 73.4322,-140.52"/>
<polygon fill="midnightblue" stroke="midnightblue" points="76.5068,-142.192 78.3037,-131.751 70.3877,-138.793 76.5068,-142.192"/>
</g>
<!-- Node8&#45;&gt;Node2 -->
<g id="edge10" class="edge"><title>Node8&#45;&gt;Node2</title>
<path fill="none" stroke="midnightblue" d="M133.184,-168.193C131.492,-155.313 127.287,-130.825 118.165,-112 113.105,-101.555 105.336,-91.2372 98.4028,-83.1212"/>
<polygon fill="midnightblue" stroke="midnightblue" points="100.904,-80.6674 91.628,-75.5477 95.6865,-85.3344 100.904,-80.6674"/>
</g>
<!-- Node8&#45;&gt;Node7 -->
<g id="edge13" class="edge"><title>Node8&#45;&gt;Node7</title>
<path fill="none" stroke="midnightblue" d="M125.744,-168.083C118.317,-160.22 107.314,-148.569 98.3533,-139.081"/>
<polygon fill="midnightblue" stroke="midnightblue" points="100.841,-136.618 91.4304,-131.751 95.7521,-141.424 100.841,-136.618"/>
</g>
<!-- Node9 -->
<g id="node9" class="node"><title>Node9</title>
<g id="a_node9"><a xlink:href="_date_time_8h.xhtml" target="_top" xlink:title="net/DateTime.h">
<polygon fill="white" stroke="black" points="166.665,-112.5 166.665,-131.5 251.665,-131.5 251.665,-112.5 166.665,-112.5"/>
<text text-anchor="middle" x="209.165" y="-119.5" font-family="Helvetica,sans-Serif" font-size="10.00">net/DateTime.h</text>
</a>
</g>
</g>
<!-- Node8&#45;&gt;Node9 -->
<g id="edge11" class="edge"><title>Node8&#45;&gt;Node9</title>
<path fill="none" stroke="midnightblue" d="M146.216,-168.324C157.629,-160.107 174.996,-147.602 188.6,-137.807"/>
<polygon fill="midnightblue" stroke="midnightblue" points="190.826,-140.517 196.896,-131.834 186.736,-134.837 190.826,-140.517"/>
</g>
<!-- Node9&#45;&gt;Node2 -->
<g id="edge12" class="edge"><title>Node9&#45;&gt;Node2</title>
<path fill="none" stroke="midnightblue" d="M189.2,-112.444C168.556,-103.596 136.103,-89.6875 112.534,-79.5865"/>
<polygon fill="midnightblue" stroke="midnightblue" points="113.607,-76.2387 103.037,-75.5164 110.85,-82.6727 113.607,-76.2387"/>
</g>
<!-- Node10&#45;&gt;Node2 -->
<g id="edge15" class="edge"><title>Node10&#45;&gt;Node2</title>
<path fill="none" stroke="midnightblue" d="M269.659,-114.482C266.467,-113.642 263.239,-112.797 260.165,-112 213.517,-99.8964 159.866,-86.302 123.972,-77.2539"/>
<polygon fill="midnightblue" stroke="midnightblue" points="124.438,-73.7619 113.886,-74.7131 122.728,-80.5498 124.438,-73.7619"/>
</g>
</g>
</svg>
