<?xml version="1.0" encoding="UTF-8" standalone="no"?>
<!DOCTYPE svg PUBLIC "-//W3C//DTD SVG 1.1//EN"
 "http://www.w3.org/Graphics/SVG/1.1/DTD/svg11.dtd">
<!-- Generated by graphviz version 2.38.0 (20140413.2041)
 -->
<!-- Title: /Users/rakesh/svn/customer/qsense/desktop/src/api/net/SidecarClient.h Pages: 1 -->
<svg width="335pt" height="330pt"
 viewBox="0.00 0.00 335.00 330.00" xmlns="http://www.w3.org/2000/svg" xmlns:xlink="http://www.w3.org/1999/xlink">
<g id="graph0" class="graph" transform="scale(1 1) rotate(0) translate(4 326)">
<title>/Users/rakesh/svn/customer/qsense/desktop/src/api/net/SidecarClient.h</title>
<polygon fill="white" stroke="none" points="-4,4 -4,-326 331,-326 331,4 -4,4"/>
<!-- Node1 -->
<g id="node1" class="node"><title>Node1</title>
<polygon fill="#bfbfbf" stroke="black" points="0,-280.5 0,-321.5 140,-321.5 140,-280.5 0,-280.5"/>
<text text-anchor="start" x="8" y="-309.5" font-family="Helvetica,sans-Serif" font-size="10.00">/Users/rakesh/svn/customer</text>
<text text-anchor="start" x="8" y="-298.5" font-family="Helvetica,sans-Serif" font-size="10.00">/qsense/desktop/src/api</text>
<text text-anchor="middle" x="70" y="-287.5" font-family="Helvetica,sans-Serif" font-size="10.00">/net/SidecarClient.h</text>
</g>
<!-- Node2 -->
<g id="node2" class="node"><title>Node2</title>
<g id="a_node2"><a xlink:href="_q_sense_8h.xhtml" target="_top" xlink:title="QSense.h">
<polygon fill="white" stroke="black" points="46.5,-56.5 46.5,-75.5 107.5,-75.5 107.5,-56.5 46.5,-56.5"/>
<text text-anchor="middle" x="77" y="-63.5" font-family="Helvetica,sans-Serif" font-size="10.00">QSense.h</text>
</a>
</g>
</g>
<!-- Node1&#45;&gt;Node2 -->
<g id="edge1" class="edge"><title>Node1&#45;&gt;Node2</title>
<path fill="none" stroke="midnightblue" d="M62.5555,-280.319C50.5345,-245.575 29.9332,-171.423 48,-112 51.1037,-101.792 57.2553,-91.69 63.0972,-83.6519"/>
<polygon fill="midnightblue" stroke="midnightblue" points="66.0136,-85.6028 69.3823,-75.5578 60.4847,-81.3096 66.0136,-85.6028"/>
</g>
<!-- Node5 -->
<g id="node5" class="node"><title>Node5</title>
<g id="a_node5"><a xlink:href="_event_8h.xhtml" target="_top" xlink:title="Event.h">
<polygon fill="white" stroke="black" points="114,-224.5 114,-243.5 164,-243.5 164,-224.5 114,-224.5"/>
<text text-anchor="middle" x="139" y="-231.5" font-family="Helvetica,sans-Serif" font-size="10.00">Event.h</text>
</a>
</g>
</g>
<!-- Node1&#45;&gt;Node5 -->
<g id="edge4" class="edge"><title>Node1&#45;&gt;Node5</title>
<path fill="none" stroke="midnightblue" d="M90.7023,-280.498C100.874,-270.915 112.962,-259.528 122.501,-250.543"/>
<polygon fill="midnightblue" stroke="midnightblue" points="124.936,-253.057 129.815,-243.652 120.136,-247.962 124.936,-253.057"/>
</g>
<!-- Node3 -->
<g id="node3" class="node"><title>Node3</title>
<polygon fill="white" stroke="#bfbfbf" points="24.5,-0.5 24.5,-19.5 69.5,-19.5 69.5,-0.5 24.5,-0.5"/>
<text text-anchor="middle" x="47" y="-7.5" font-family="Helvetica,sans-Serif" font-size="10.00">cstdint</text>
</g>
<!-- Node2&#45;&gt;Node3 -->
<g id="edge2" class="edge"><title>Node2&#45;&gt;Node3</title>
<path fill="none" stroke="midnightblue" d="M72.0461,-56.083C67.8959,-48.6127 61.8469,-37.7244 56.7333,-28.5199"/>
<polygon fill="midnightblue" stroke="midnightblue" points="59.7777,-26.7929 51.8617,-19.7511 53.6586,-30.1924 59.7777,-26.7929"/>
</g>
<!-- Node4 -->
<g id="node4" class="node"><title>Node4</title>
<polygon fill="white" stroke="#bfbfbf" points="87.5,-0.5 87.5,-19.5 128.5,-19.5 128.5,-0.5 87.5,-0.5"/>
<text text-anchor="middle" x="108" y="-7.5" font-family="Helvetica,sans-Serif" font-size="10.00">string</text>
</g>
<!-- Node2&#45;&gt;Node4 -->
<g id="edge3" class="edge"><title>Node2&#45;&gt;Node4</title>
<path fill="none" stroke="midnightblue" d="M82.119,-56.083C86.4075,-48.6127 92.6582,-37.7244 97.9423,-28.5199"/>
<polygon fill="midnightblue" stroke="midnightblue" points="101.033,-30.1662 102.976,-19.7511 94.9621,-26.6811 101.033,-30.1662"/>
</g>
<!-- Node5&#45;&gt;Node2 -->
<g id="edge5" class="edge"><title>Node5&#45;&gt;Node2</title>
<path fill="none" stroke="midnightblue" d="M113.974,-226.558C94.9202,-220.194 69.9924,-208.381 58,-188 38.7599,-155.301 55.5673,-109.407 67.5215,-84.5937"/>
<polygon fill="midnightblue" stroke="midnightblue" points="70.6678,-86.1279 72.0792,-75.6275 64.4277,-82.9559 70.6678,-86.1279"/>
</g>
<!-- Node6 -->
<g id="node6" class="node"><title>Node6</title>
<g id="a_node6"><a xlink:href="_location_8h.xhtml" target="_top" xlink:title="Location.h">
<polygon fill="white" stroke="black" points="67.5,-168.5 67.5,-187.5 130.5,-187.5 130.5,-168.5 67.5,-168.5"/>
<text text-anchor="middle" x="99" y="-175.5" font-family="Helvetica,sans-Serif" font-size="10.00">Location.h</text>
</a>
</g>
</g>
<!-- Node5&#45;&gt;Node6 -->
<g id="edge6" class="edge"><title>Node5&#45;&gt;Node6</title>
<path fill="none" stroke="midnightblue" d="M132.395,-224.083C126.745,-216.455 118.455,-205.264 111.549,-195.941"/>
<polygon fill="midnightblue" stroke="midnightblue" points="114.247,-193.703 105.482,-187.751 108.622,-197.87 114.247,-193.703"/>
</g>
<!-- Node8 -->
<g id="node8" class="node"><title>Node8</title>
<g id="a_node8"><a xlink:href="_reading_8h.xhtml" target="_top" xlink:title="Reading.h">
<polygon fill="white" stroke="black" points="149,-168.5 149,-187.5 211,-187.5 211,-168.5 149,-168.5"/>
<text text-anchor="middle" x="180" y="-175.5" font-family="Helvetica,sans-Serif" font-size="10.00">Reading.h</text>
</a>
</g>
</g>
<!-- Node5&#45;&gt;Node8 -->
<g id="edge9" class="edge"><title>Node5&#45;&gt;Node8</title>
<path fill="none" stroke="midnightblue" d="M145.77,-224.083C151.562,-216.455 160.058,-205.264 167.138,-195.941"/>
<polygon fill="midnightblue" stroke="midnightblue" points="170.096,-197.832 173.356,-187.751 164.521,-193.599 170.096,-197.832"/>
</g>
<!-- Node10 -->
<g id="node10" class="node"><title>Node10</title>
<polygon fill="white" stroke="#bfbfbf" points="229,-168.5 229,-187.5 273,-187.5 273,-168.5 229,-168.5"/>
<text text-anchor="middle" x="251" y="-175.5" font-family="Helvetica,sans-Serif" font-size="10.00">vector</text>
</g>
<!-- Node5&#45;&gt;Node10 -->
<g id="edge14" class="edge"><title>Node5&#45;&gt;Node10</title>
<path fill="none" stroke="midnightblue" d="M156.995,-224.324C175.038,-215.625 203.047,-202.12 223.803,-192.113"/>
<polygon fill="midnightblue" stroke="midnightblue" points="225.562,-195.15 233.05,-187.655 222.522,-188.845 225.562,-195.15"/>
</g>
<!-- Node11 -->
<g id="node11" class="node"><title>Node11</title>
<polygon fill="white" stroke="#bfbfbf" points="291,-168.5 291,-187.5 327,-187.5 327,-168.5 291,-168.5"/>
<text text-anchor="middle" x="309" y="-175.5" font-family="Helvetica,sans-Serif" font-size="10.00">map</text>
</g>
<!-- Node5&#45;&gt;Node11 -->
<g id="edge15" class="edge"><title>Node5&#45;&gt;Node11</title>
<path fill="none" stroke="midnightblue" d="M164.098,-225.243C190.842,-216.946 234.657,-203.267 281.086,-188.261"/>
<polygon fill="midnightblue" stroke="midnightblue" points="282.279,-191.553 290.714,-185.142 280.122,-184.894 282.279,-191.553"/>
</g>
<!-- Node6&#45;&gt;Node2 -->
<g id="edge7" class="edge"><title>Node6&#45;&gt;Node2</title>
<path fill="none" stroke="midnightblue" d="M97.2737,-168.368C93.7234,-150.617 85.5333,-109.666 80.7195,-85.5974"/>
<polygon fill="midnightblue" stroke="midnightblue" points="84.1116,-84.7108 78.7183,-75.5914 77.2475,-86.0837 84.1116,-84.7108"/>
</g>
<!-- Node7 -->
<g id="node7" class="node"><title>Node7</title>
<polygon fill="white" stroke="#bfbfbf" points="105.5,-112.5 105.5,-131.5 158.5,-131.5 158.5,-112.5 105.5,-112.5"/>
<text text-anchor="middle" x="132" y="-119.5" font-family="Helvetica,sans-Serif" font-size="10.00">ostream</text>
</g>
<!-- Node6&#45;&gt;Node7 -->
<g id="edge8" class="edge"><title>Node6&#45;&gt;Node7</title>
<path fill="none" stroke="midnightblue" d="M104.449,-168.083C109.014,-160.613 115.668,-149.724 121.293,-140.52"/>
<polygon fill="midnightblue" stroke="midnightblue" points="124.424,-142.109 126.652,-131.751 118.451,-138.459 124.424,-142.109"/>
</g>
<!-- Node8&#45;&gt;Node2 -->
<g id="edge10" class="edge"><title>Node8&#45;&gt;Node2</title>
<path fill="none" stroke="midnightblue" d="M180.544,-168.461C180.946,-155.045 179.853,-128.828 167,-112 154.743,-95.9522 135.205,-85.2219 117.461,-78.2789"/>
<polygon fill="midnightblue" stroke="midnightblue" points="118.439,-74.9109 107.845,-74.8016 116.058,-81.4937 118.439,-74.9109"/>
</g>
<!-- Node8&#45;&gt;Node7 -->
<g id="edge13" class="edge"><title>Node8&#45;&gt;Node7</title>
<path fill="none" stroke="midnightblue" d="M172.074,-168.083C165.154,-160.298 154.935,-148.801 146.548,-139.367"/>
<polygon fill="midnightblue" stroke="midnightblue" points="149.038,-136.9 139.779,-131.751 143.806,-141.55 149.038,-136.9"/>
</g>
<!-- Node9 -->
<g id="node9" class="node"><title>Node9</title>
<g id="a_node9"><a xlink:href="_date_time_8h.xhtml" target="_top" xlink:title="net/DateTime.h">
<polygon fill="white" stroke="black" points="215.5,-112.5 215.5,-131.5 300.5,-131.5 300.5,-112.5 215.5,-112.5"/>
<text text-anchor="middle" x="258" y="-119.5" font-family="Helvetica,sans-Serif" font-size="10.00">net/DateTime.h</text>
</a>
</g>
</g>
<!-- Node8&#45;&gt;Node9 -->
<g id="edge11" class="edge"><title>Node8&#45;&gt;Node9</title>
<path fill="none" stroke="midnightblue" d="M192.532,-168.324C204.586,-159.979 223.027,-147.212 237.269,-137.352"/>
<polygon fill="midnightblue" stroke="midnightblue" points="239.269,-140.224 245.499,-131.655 235.285,-134.469 239.269,-140.224"/>
</g>
<!-- Node9&#45;&gt;Node2 -->
<g id="edge12" class="edge"><title>Node9&#45;&gt;Node2</title>
<path fill="none" stroke="midnightblue" d="M229.32,-112.444C198.473,-103.241 149.272,-88.5617 115.171,-78.3879"/>
<polygon fill="midnightblue" stroke="midnightblue" points="116.129,-75.0215 105.546,-75.5164 114.128,-81.7293 116.129,-75.0215"/>
</g>
</g>
</svg>
