<?xml version="1.0" encoding="UTF-8" standalone="no"?>
<!DOCTYPE svg PUBLIC "-//W3C//DTD SVG 1.1//EN"
 "http://www.w3.org/Graphics/SVG/1.1/DTD/svg11.dtd">
<!-- Generated by graphviz version 2.38.0 (20140413.2041)
 -->
<!-- Title: /Users/rakesh/svn/customer/qsense/desktop/src/api/net/SidecarClient.h Pages: 1 -->
<svg width="354pt" height="330pt"
 viewBox="0.00 0.00 354.00 330.00" xmlns="http://www.w3.org/2000/svg" xmlns:xlink="http://www.w3.org/1999/xlink">
<g id="graph0" class="graph" transform="scale(1 1) rotate(0) translate(4 326)">
<title>/Users/rakesh/svn/customer/qsense/desktop/src/api/net/SidecarClient.h</title>
<polygon fill="white" stroke="none" points="-4,4 -4,-326 350,-326 350,4 -4,4"/>
<!-- Node1 -->
<g id="node1" class="node"><title>Node1</title>
<polygon fill="#bfbfbf" stroke="black" points="0,-280.5 0,-321.5 140,-321.5 140,-280.5 0,-280.5"/>
<text text-anchor="start" x="8" y="-309.5" font-family="Helvetica,sans-Serif" font-size="10.00">/Users/rakesh/svn/customer</text>
<text text-anchor="start" x="8" y="-298.5" font-family="Helvetica,sans-Serif" font-size="10.00">/qsense/desktop/src/api</text>
<text text-anchor="middle" x="70" y="-287.5" font-family="Helvetica,sans-Serif" font-size="10.00">/net/SidecarClient.h</text>
</g>
<!-- Node2 -->
<g id="node2" class="node"><title>Node2</title>
<g id="a_node2"><a xlink:href="_q_sense_8h.xhtml" target="_top" xlink:title="QSense.h">
<polygon fill="white" stroke="black" points="79.5,-56.5 79.5,-75.5 140.5,-75.5 140.5,-56.5 79.5,-56.5"/>
<text text-anchor="middle" x="110" y="-63.5" font-family="Helvetica,sans-Serif" font-size="10.00">QSense.h</text>
</a>
</g>
</g>
<!-- Node1&#45;&gt;Node2 -->
<g id="edge1" class="edge"><title>Node1&#45;&gt;Node2</title>
<path fill="none" stroke="midnightblue" d="M58.2358,-280.418C44.3384,-255.109 23.617,-209.373 28,-168 30.6816,-142.688 25.517,-132.932 40,-112 49.551,-98.1961 64.8515,-87.6528 78.7152,-80.2539"/>
<polygon fill="midnightblue" stroke="midnightblue" points="80.6041,-83.2233 87.9953,-75.6324 77.4836,-76.9573 80.6041,-83.2233"/>
</g>
<!-- Node5 -->
<g id="node5" class="node"><title>Node5</title>
<g id="a_node5"><a xlink:href="_event_8h.xhtml" target="_top" xlink:title="Event.h">
<polygon fill="white" stroke="black" points="136,-224.5 136,-243.5 186,-243.5 186,-224.5 136,-224.5"/>
<text text-anchor="middle" x="161" y="-231.5" font-family="Helvetica,sans-Serif" font-size="10.00">Event.h</text>
</a>
</g>
</g>
<!-- Node1&#45;&gt;Node5 -->
<g id="edge4" class="edge"><title>Node1&#45;&gt;Node5</title>
<path fill="none" stroke="midnightblue" d="M97.303,-280.498C111.255,-270.532 127.94,-258.614 140.733,-249.476"/>
<polygon fill="midnightblue" stroke="midnightblue" points="142.784,-252.313 148.887,-243.652 138.715,-246.617 142.784,-252.313"/>
</g>
<!-- Node3 -->
<g id="node3" class="node"><title>Node3</title>
<polygon fill="white" stroke="#bfbfbf" points="57.5,-0.5 57.5,-19.5 102.5,-19.5 102.5,-0.5 57.5,-0.5"/>
<text text-anchor="middle" x="80" y="-7.5" font-family="Helvetica,sans-Serif" font-size="10.00">cstdint</text>
</g>
<!-- Node2&#45;&gt;Node3 -->
<g id="edge2" class="edge"><title>Node2&#45;&gt;Node3</title>
<path fill="none" stroke="midnightblue" d="M105.046,-56.083C100.896,-48.6127 94.8469,-37.7244 89.7333,-28.5199"/>
<polygon fill="midnightblue" stroke="midnightblue" points="92.7777,-26.7929 84.8617,-19.7511 86.6586,-30.1924 92.7777,-26.7929"/>
</g>
<!-- Node4 -->
<g id="node4" class="node"><title>Node4</title>
<polygon fill="white" stroke="#bfbfbf" points="120.5,-0.5 120.5,-19.5 161.5,-19.5 161.5,-0.5 120.5,-0.5"/>
<text text-anchor="middle" x="141" y="-7.5" font-family="Helvetica,sans-Serif" font-size="10.00">string</text>
</g>
<!-- Node2&#45;&gt;Node4 -->
<g id="edge3" class="edge"><title>Node2&#45;&gt;Node4</title>
<path fill="none" stroke="midnightblue" d="M115.119,-56.083C119.408,-48.6127 125.658,-37.7244 130.942,-28.5199"/>
<polygon fill="midnightblue" stroke="midnightblue" points="134.033,-30.1662 135.976,-19.7511 127.962,-26.6811 134.033,-30.1662"/>
</g>
<!-- Node5&#45;&gt;Node2 -->
<g id="edge5" class="edge"><title>Node5&#45;&gt;Node2</title>
<path fill="none" stroke="midnightblue" d="M135.865,-231.786C106.996,-228.885 60.8161,-219.3 39,-188 13.5213,-151.445 60.7154,-105.344 89.7275,-82.0081"/>
<polygon fill="midnightblue" stroke="midnightblue" points="91.9646,-84.702 97.7002,-75.7939 87.6613,-79.181 91.9646,-84.702"/>
</g>
<!-- Node6 -->
<g id="node6" class="node"><title>Node6</title>
<g id="a_node6"><a xlink:href="_location_8h.xhtml" target="_top" xlink:title="Location.h">
<polygon fill="white" stroke="black" points="48.5,-168.5 48.5,-187.5 111.5,-187.5 111.5,-168.5 48.5,-168.5"/>
<text text-anchor="middle" x="80" y="-175.5" font-family="Helvetica,sans-Serif" font-size="10.00">Location.h</text>
</a>
</g>
</g>
<!-- Node5&#45;&gt;Node6 -->
<g id="edge6" class="edge"><title>Node5&#45;&gt;Node6</title>
<path fill="none" stroke="midnightblue" d="M147.986,-224.324C135.468,-215.979 116.318,-203.212 101.529,-193.352"/>
<polygon fill="midnightblue" stroke="midnightblue" points="103.244,-190.289 92.9818,-187.655 99.3608,-196.114 103.244,-190.289"/>
</g>
<!-- Node8 -->
<g id="node8" class="node"><title>Node8</title>
<g id="a_node8"><a xlink:href="_reading_8h.xhtml" target="_top" xlink:title="Reading.h">
<polygon fill="white" stroke="black" points="130,-168.5 130,-187.5 192,-187.5 192,-168.5 130,-168.5"/>
<text text-anchor="middle" x="161" y="-175.5" font-family="Helvetica,sans-Serif" font-size="10.00">Reading.h</text>
</a>
</g>
</g>
<!-- Node5&#45;&gt;Node8 -->
<g id="edge9" class="edge"><title>Node5&#45;&gt;Node8</title>
<path fill="none" stroke="midnightblue" d="M161,-224.083C161,-217.006 161,-206.861 161,-197.986"/>
<polygon fill="midnightblue" stroke="midnightblue" points="164.5,-197.751 161,-187.751 157.5,-197.751 164.5,-197.751"/>
</g>
<!-- Node10 -->
<g id="node10" class="node"><title>Node10</title>
<g id="a_node10"><a xlink:href="_u_u_i_d_8h.xhtml" target="_top" xlink:title="UUID.h">
<polygon fill="white" stroke="black" points="296.5,-112.5 296.5,-131.5 345.5,-131.5 345.5,-112.5 296.5,-112.5"/>
<text text-anchor="middle" x="321" y="-119.5" font-family="Helvetica,sans-Serif" font-size="10.00">UUID.h</text>
</a>
</g>
</g>
<!-- Node5&#45;&gt;Node10 -->
<g id="edge14" class="edge"><title>Node5&#45;&gt;Node10</title>
<path fill="none" stroke="midnightblue" d="M170.14,-224.376C184.251,-211.3 212.491,-186.07 239,-168 256.61,-155.996 277.716,-144.473 294.104,-136.092"/>
<polygon fill="midnightblue" stroke="midnightblue" points="295.788,-139.164 303.147,-131.542 292.641,-132.911 295.788,-139.164"/>
</g>
<!-- Node11 -->
<g id="node11" class="node"><title>Node11</title>
<polygon fill="white" stroke="#bfbfbf" points="248,-168.5 248,-187.5 292,-187.5 292,-168.5 248,-168.5"/>
<text text-anchor="middle" x="270" y="-175.5" font-family="Helvetica,sans-Serif" font-size="10.00">vector</text>
</g>
<!-- Node5&#45;&gt;Node11 -->
<g id="edge16" class="edge"><title>Node5&#45;&gt;Node11</title>
<path fill="none" stroke="midnightblue" d="M178.513,-224.324C196.072,-215.625 223.331,-202.12 243.531,-192.113"/>
<polygon fill="midnightblue" stroke="midnightblue" points="245.124,-195.23 252.531,-187.655 242.016,-188.958 245.124,-195.23"/>
</g>
<!-- Node12 -->
<g id="node12" class="node"><title>Node12</title>
<polygon fill="white" stroke="#bfbfbf" points="310,-168.5 310,-187.5 346,-187.5 346,-168.5 310,-168.5"/>
<text text-anchor="middle" x="328" y="-175.5" font-family="Helvetica,sans-Serif" font-size="10.00">map</text>
</g>
<!-- Node5&#45;&gt;Node12 -->
<g id="edge17" class="edge"><title>Node5&#45;&gt;Node12</title>
<path fill="none" stroke="midnightblue" d="M186.063,-225.033C212.235,-216.695 254.718,-203.106 300.244,-188.224"/>
<polygon fill="midnightblue" stroke="midnightblue" points="301.585,-191.468 310,-185.03 299.407,-184.815 301.585,-191.468"/>
</g>
<!-- Node6&#45;&gt;Node2 -->
<g id="edge7" class="edge"><title>Node6&#45;&gt;Node2</title>
<path fill="none" stroke="midnightblue" d="M76.9423,-168.305C72.9572,-155.564 67.2478,-131.249 74,-112 77.7852,-101.209 85.3665,-91.084 92.5998,-83.1808"/>
<polygon fill="midnightblue" stroke="midnightblue" points="95.3256,-85.4005 99.8379,-75.8145 90.3326,-80.4943 95.3256,-85.4005"/>
</g>
<!-- Node7 -->
<g id="node7" class="node"><title>Node7</title>
<polygon fill="white" stroke="#bfbfbf" points="83.5,-112.5 83.5,-131.5 136.5,-131.5 136.5,-112.5 83.5,-112.5"/>
<text text-anchor="middle" x="110" y="-119.5" font-family="Helvetica,sans-Serif" font-size="10.00">ostream</text>
</g>
<!-- Node6&#45;&gt;Node7 -->
<g id="edge8" class="edge"><title>Node6&#45;&gt;Node7</title>
<path fill="none" stroke="midnightblue" d="M84.9539,-168.083C89.1041,-160.613 95.1531,-149.724 100.267,-140.52"/>
<polygon fill="midnightblue" stroke="midnightblue" points="103.341,-142.192 105.138,-131.751 97.2223,-138.793 103.341,-142.192"/>
</g>
<!-- Node8&#45;&gt;Node2 -->
<g id="edge10" class="edge"><title>Node8&#45;&gt;Node2</title>
<path fill="none" stroke="midnightblue" d="M160.019,-168.193C158.326,-155.313 154.122,-130.825 145,-112 139.939,-101.555 132.171,-91.2372 125.237,-83.1212"/>
<polygon fill="midnightblue" stroke="midnightblue" points="127.738,-80.6674 118.463,-75.5477 122.521,-85.3344 127.738,-80.6674"/>
</g>
<!-- Node8&#45;&gt;Node7 -->
<g id="edge13" class="edge"><title>Node8&#45;&gt;Node7</title>
<path fill="none" stroke="midnightblue" d="M152.578,-168.083C145.152,-160.22 134.148,-148.569 125.188,-139.081"/>
<polygon fill="midnightblue" stroke="midnightblue" points="127.676,-136.618 118.265,-131.751 122.587,-141.424 127.676,-136.618"/>
</g>
<!-- Node9 -->
<g id="node9" class="node"><title>Node9</title>
<g id="a_node9"><a xlink:href="_date_time_8h.xhtml" target="_top" xlink:title="net/DateTime.h">
<polygon fill="white" stroke="black" points="193.5,-112.5 193.5,-131.5 278.5,-131.5 278.5,-112.5 193.5,-112.5"/>
<text text-anchor="middle" x="236" y="-119.5" font-family="Helvetica,sans-Serif" font-size="10.00">net/DateTime.h</text>
</a>
</g>
</g>
<!-- Node8&#45;&gt;Node9 -->
<g id="edge11" class="edge"><title>Node8&#45;&gt;Node9</title>
<path fill="none" stroke="midnightblue" d="M173.05,-168.324C184.463,-160.107 201.831,-147.602 215.435,-137.807"/>
<polygon fill="midnightblue" stroke="midnightblue" points="217.66,-140.517 223.731,-131.834 213.57,-134.837 217.66,-140.517"/>
</g>
<!-- Node9&#45;&gt;Node2 -->
<g id="edge12" class="edge"><title>Node9&#45;&gt;Node2</title>
<path fill="none" stroke="midnightblue" d="M216.035,-112.444C195.391,-103.596 162.937,-89.6875 139.368,-79.5865"/>
<polygon fill="midnightblue" stroke="midnightblue" points="140.442,-76.2387 129.872,-75.5164 137.684,-82.6727 140.442,-76.2387"/>
</g>
<!-- Node10&#45;&gt;Node2 -->
<g id="edge15" class="edge"><title>Node10&#45;&gt;Node2</title>
<path fill="none" stroke="midnightblue" d="M296.493,-114.482C293.301,-113.642 290.073,-112.797 287,-112 240.352,-99.8964 186.701,-86.302 150.807,-77.2539"/>
<polygon fill="midnightblue" stroke="midnightblue" points="151.272,-73.7619 140.72,-74.7131 149.562,-80.5498 151.272,-73.7619"/>
</g>
</g>
</svg>
