<?xml version="1.0" encoding="UTF-8" standalone="no"?>
<!DOCTYPE svg PUBLIC "-//W3C//DTD SVG 1.1//EN"
 "http://www.w3.org/Graphics/SVG/1.1/DTD/svg11.dtd">
<!-- Generated by graphviz version 2.38.0 (20140413.2041)
 -->
<!-- Title: /Users/rakesh/svn/customer/qsense/desktop/src/api/net/SidecarClient.h Pages: 1 -->
<svg width="329pt" height="330pt"
 viewBox="0.00 0.00 328.50 330.00" xmlns="http://www.w3.org/2000/svg" xmlns:xlink="http://www.w3.org/1999/xlink">
<g id="graph0" class="graph" transform="scale(1 1) rotate(0) translate(4 326)">
<title>/Users/rakesh/svn/customer/qsense/desktop/src/api/net/SidecarClient.h</title>
<polygon fill="white" stroke="none" points="-4,4 -4,-326 324.5,-326 324.5,4 -4,4"/>
<!-- Node1 -->
<g id="node1" class="node"><title>Node1</title>
<polygon fill="#bfbfbf" stroke="black" points="0,-280.5 0,-321.5 140,-321.5 140,-280.5 0,-280.5"/>
<text text-anchor="start" x="8" y="-309.5" font-family="Helvetica,sans-Serif" font-size="10.00">/Users/rakesh/svn/customer</text>
<text text-anchor="start" x="8" y="-298.5" font-family="Helvetica,sans-Serif" font-size="10.00">/qsense/desktop/src/api</text>
<text text-anchor="middle" x="70" y="-287.5" font-family="Helvetica,sans-Serif" font-size="10.00">/net/SidecarClient.h</text>
</g>
<!-- Node2 -->
<g id="node2" class="node"><title>Node2</title>
<g id="a_node2"><a xlink:href="_q_sense_8h.xhtml" target="_top" xlink:title="QSense.h">
<polygon fill="white" stroke="black" points="66.5,-56.5 66.5,-75.5 127.5,-75.5 127.5,-56.5 66.5,-56.5"/>
<text text-anchor="middle" x="97" y="-63.5" font-family="Helvetica,sans-Serif" font-size="10.00">QSense.h</text>
</a>
</g>
</g>
<!-- Node1&#45;&gt;Node2 -->
<g id="edge1" class="edge"><title>Node1&#45;&gt;Node2</title>
<path fill="none" stroke="midnightblue" d="M66.7776,-280.322C61.8146,-245.584 54.493,-171.439 71,-112 73.7418,-102.127 79.1675,-92.1583 84.3563,-84.1214"/>
<polygon fill="midnightblue" stroke="midnightblue" points="87.3703,-85.9158 90.1637,-75.6958 81.6068,-81.9432 87.3703,-85.9158"/>
</g>
<!-- Node4 -->
<g id="node4" class="node"><title>Node4</title>
<g id="a_node4"><a xlink:href="_event_8h.xhtml" target="_top" xlink:title="Event.h">
<polygon fill="white" stroke="black" points="94,-224.5 94,-243.5 144,-243.5 144,-224.5 94,-224.5"/>
<text text-anchor="middle" x="119" y="-231.5" font-family="Helvetica,sans-Serif" font-size="10.00">Event.h</text>
</a>
</g>
</g>
<!-- Node1&#45;&gt;Node4 -->
<g id="edge3" class="edge"><title>Node1&#45;&gt;Node4</title>
<path fill="none" stroke="midnightblue" d="M84.7016,-280.498C91.5641,-271.395 99.6546,-260.662 106.254,-251.908"/>
<polygon fill="midnightblue" stroke="midnightblue" points="109.253,-253.745 112.477,-243.652 103.663,-249.531 109.253,-253.745"/>
</g>
<!-- Node3 -->
<g id="node3" class="node"><title>Node3</title>
<polygon fill="white" stroke="#bfbfbf" points="76.5,-0.5 76.5,-19.5 117.5,-19.5 117.5,-0.5 76.5,-0.5"/>
<text text-anchor="middle" x="97" y="-7.5" font-family="Helvetica,sans-Serif" font-size="10.00">string</text>
</g>
<!-- Node2&#45;&gt;Node3 -->
<g id="edge2" class="edge"><title>Node2&#45;&gt;Node3</title>
<path fill="none" stroke="midnightblue" d="M97,-56.083C97,-49.0059 97,-38.8611 97,-29.9865"/>
<polygon fill="midnightblue" stroke="midnightblue" points="100.5,-29.751 97,-19.7511 93.5001,-29.7511 100.5,-29.751"/>
</g>
<!-- Node4&#45;&gt;Node2 -->
<g id="edge4" class="edge"><title>Node4&#45;&gt;Node2</title>
<path fill="none" stroke="midnightblue" d="M107.459,-224.49C97.5206,-216.379 83.8775,-203.178 78,-188 64.4883,-153.108 78.5275,-109.016 88.6271,-84.8555"/>
<polygon fill="midnightblue" stroke="midnightblue" points="91.9061,-86.0946 92.75,-75.5335 85.5042,-83.2633 91.9061,-86.0946"/>
</g>
<!-- Node5 -->
<g id="node5" class="node"><title>Node5</title>
<g id="a_node5"><a xlink:href="_location_8h.xhtml" target="_top" xlink:title="Location.h">
<polygon fill="white" stroke="black" points="87.5,-168.5 87.5,-187.5 150.5,-187.5 150.5,-168.5 87.5,-168.5"/>
<text text-anchor="middle" x="119" y="-175.5" font-family="Helvetica,sans-Serif" font-size="10.00">Location.h</text>
</a>
</g>
</g>
<!-- Node4&#45;&gt;Node5 -->
<g id="edge5" class="edge"><title>Node4&#45;&gt;Node5</title>
<path fill="none" stroke="midnightblue" d="M119,-224.083C119,-217.006 119,-206.861 119,-197.986"/>
<polygon fill="midnightblue" stroke="midnightblue" points="122.5,-197.751 119,-187.751 115.5,-197.751 122.5,-197.751"/>
</g>
<!-- Node7 -->
<g id="node7" class="node"><title>Node7</title>
<g id="a_node7"><a xlink:href="_reading_8h.xhtml" target="_top" xlink:title="Reading.h">
<polygon fill="white" stroke="black" points="169,-168.5 169,-187.5 231,-187.5 231,-168.5 169,-168.5"/>
<text text-anchor="middle" x="200" y="-175.5" font-family="Helvetica,sans-Serif" font-size="10.00">Reading.h</text>
</a>
</g>
</g>
<!-- Node4&#45;&gt;Node7 -->
<g id="edge8" class="edge"><title>Node4&#45;&gt;Node7</title>
<path fill="none" stroke="midnightblue" d="M132.014,-224.324C144.532,-215.979 163.682,-203.212 178.471,-193.352"/>
<polygon fill="midnightblue" stroke="midnightblue" points="180.639,-196.114 187.018,-187.655 176.756,-190.289 180.639,-196.114"/>
</g>
<!-- Node10 -->
<g id="node10" class="node"><title>Node10</title>
<polygon fill="white" stroke="#bfbfbf" points="249,-168.5 249,-187.5 293,-187.5 293,-168.5 249,-168.5"/>
<text text-anchor="middle" x="271" y="-175.5" font-family="Helvetica,sans-Serif" font-size="10.00">vector</text>
</g>
<!-- Node4&#45;&gt;Node10 -->
<g id="edge14" class="edge"><title>Node4&#45;&gt;Node10</title>
<path fill="none" stroke="midnightblue" d="M143.085,-224.444C168.994,-215.239 210.323,-200.556 238.96,-190.383"/>
<polygon fill="midnightblue" stroke="midnightblue" points="240.263,-193.634 248.514,-186.988 237.92,-187.038 240.263,-193.634"/>
</g>
<!-- Node5&#45;&gt;Node2 -->
<g id="edge6" class="edge"><title>Node5&#45;&gt;Node2</title>
<path fill="none" stroke="midnightblue" d="M117.274,-168.368C113.723,-150.617 105.533,-109.666 100.719,-85.5974"/>
<polygon fill="midnightblue" stroke="midnightblue" points="104.112,-84.7108 98.7183,-75.5914 97.2475,-86.0837 104.112,-84.7108"/>
</g>
<!-- Node6 -->
<g id="node6" class="node"><title>Node6</title>
<polygon fill="white" stroke="#bfbfbf" points="125.5,-112.5 125.5,-131.5 178.5,-131.5 178.5,-112.5 125.5,-112.5"/>
<text text-anchor="middle" x="152" y="-119.5" font-family="Helvetica,sans-Serif" font-size="10.00">ostream</text>
</g>
<!-- Node5&#45;&gt;Node6 -->
<g id="edge7" class="edge"><title>Node5&#45;&gt;Node6</title>
<path fill="none" stroke="midnightblue" d="M124.449,-168.083C129.014,-160.613 135.668,-149.724 141.293,-140.52"/>
<polygon fill="midnightblue" stroke="midnightblue" points="144.424,-142.109 146.652,-131.751 138.451,-138.459 144.424,-142.109"/>
</g>
<!-- Node7&#45;&gt;Node2 -->
<g id="edge9" class="edge"><title>Node7&#45;&gt;Node2</title>
<path fill="none" stroke="midnightblue" d="M200.544,-168.461C200.946,-155.045 199.853,-128.828 187,-112 174.743,-95.9522 155.205,-85.2219 137.461,-78.2789"/>
<polygon fill="midnightblue" stroke="midnightblue" points="138.439,-74.9109 127.845,-74.8016 136.058,-81.4937 138.439,-74.9109"/>
</g>
<!-- Node7&#45;&gt;Node6 -->
<g id="edge13" class="edge"><title>Node7&#45;&gt;Node6</title>
<path fill="none" stroke="midnightblue" d="M192.074,-168.083C185.154,-160.298 174.935,-148.801 166.548,-139.367"/>
<polygon fill="midnightblue" stroke="midnightblue" points="169.038,-136.9 159.779,-131.751 163.806,-141.55 169.038,-136.9"/>
</g>
<!-- Node8 -->
<g id="node8" class="node"><title>Node8</title>
<g id="a_node8"><a xlink:href="_date_time_8h.xhtml" target="_top" xlink:title="net/DateTime.h">
<polygon fill="white" stroke="black" points="235.5,-112.5 235.5,-131.5 320.5,-131.5 320.5,-112.5 235.5,-112.5"/>
<text text-anchor="middle" x="278" y="-119.5" font-family="Helvetica,sans-Serif" font-size="10.00">net/DateTime.h</text>
</a>
</g>
</g>
<!-- Node7&#45;&gt;Node8 -->
<g id="edge10" class="edge"><title>Node7&#45;&gt;Node8</title>
<path fill="none" stroke="midnightblue" d="M212.532,-168.324C224.586,-159.979 243.027,-147.212 257.269,-137.352"/>
<polygon fill="midnightblue" stroke="midnightblue" points="259.269,-140.224 265.499,-131.655 255.285,-134.469 259.269,-140.224"/>
</g>
<!-- Node8&#45;&gt;Node2 -->
<g id="edge11" class="edge"><title>Node8&#45;&gt;Node2</title>
<path fill="none" stroke="midnightblue" d="M249.32,-112.444C218.473,-103.241 169.272,-88.5617 135.171,-78.3879"/>
<polygon fill="midnightblue" stroke="midnightblue" points="136.129,-75.0215 125.546,-75.5164 134.128,-81.7293 136.129,-75.0215"/>
</g>
<!-- Node9 -->
<g id="node9" class="node"><title>Node9</title>
<polygon fill="white" stroke="#bfbfbf" points="250.5,-56.5 250.5,-75.5 305.5,-75.5 305.5,-56.5 250.5,-56.5"/>
<text text-anchor="middle" x="278" y="-63.5" font-family="Helvetica,sans-Serif" font-size="10.00">iostream</text>
</g>
<!-- Node8&#45;&gt;Node9 -->
<g id="edge12" class="edge"><title>Node8&#45;&gt;Node9</title>
<path fill="none" stroke="midnightblue" d="M278,-112.083C278,-105.006 278,-94.8611 278,-85.9865"/>
<polygon fill="midnightblue" stroke="midnightblue" points="281.5,-85.751 278,-75.7511 274.5,-85.7511 281.5,-85.751"/>
</g>
</g>
</svg>
