<?xml version="1.0" encoding="UTF-8" standalone="no"?>
<!DOCTYPE svg PUBLIC "-//W3C//DTD SVG 1.1//EN"
 "http://www.w3.org/Graphics/SVG/1.1/DTD/svg11.dtd">
<!-- Generated by graphviz version 2.38.0 (20140413.2041)
 -->
<!-- Title: /Users/rakesh/svn/customer/qsense/desktop/src/api/UUID.h Pages: 1 -->
<svg width="165pt" height="151pt"
 viewBox="0.00 0.00 165.00 151.00" xmlns="http://www.w3.org/2000/svg" xmlns:xlink="http://www.w3.org/1999/xlink">
<g id="graph0" class="graph" transform="scale(1 1) rotate(0) translate(4 147)">
<title>/Users/rakesh/svn/customer/qsense/desktop/src/api/UUID.h</title>
<polygon fill="white" stroke="none" points="-4,4 -4,-147 161,-147 161,4 -4,4"/>
<!-- Node1 -->
<g id="node1" class="node"><title>Node1</title>
<polygon fill="#bfbfbf" stroke="black" points="0,-112.5 0,-142.5 157,-142.5 157,-112.5 0,-112.5"/>
<text text-anchor="start" x="8" y="-130.5" font-family="Helvetica,sans-Serif" font-size="10.00">/Users/rakesh/svn/customer</text>
<text text-anchor="middle" x="78.5" y="-119.5" font-family="Helvetica,sans-Serif" font-size="10.00">/qsense/desktop/src/api/UUID.h</text>
</g>
<!-- Node2 -->
<g id="node2" class="node"><title>Node2</title>
<g id="a_node2"><a xlink:href="_q_sense_8h.xhtml" target="_top" xlink:title="QSense.h">
<polygon fill="white" stroke="black" points="48,-56.5 48,-75.5 109,-75.5 109,-56.5 48,-56.5"/>
<text text-anchor="middle" x="78.5" y="-63.5" font-family="Helvetica,sans-Serif" font-size="10.00">QSense.h</text>
</a>
</g>
</g>
<!-- Node1&#45;&gt;Node2 -->
<g id="edge1" class="edge"><title>Node1&#45;&gt;Node2</title>
<path fill="none" stroke="midnightblue" d="M78.5,-112.399C78.5,-104.466 78.5,-94.458 78.5,-85.8583"/>
<polygon fill="midnightblue" stroke="midnightblue" points="82.0001,-85.6577 78.5,-75.6578 75.0001,-85.6578 82.0001,-85.6577"/>
</g>
<!-- Node3 -->
<g id="node3" class="node"><title>Node3</title>
<polygon fill="white" stroke="#bfbfbf" points="26,-0.5 26,-19.5 71,-19.5 71,-0.5 26,-0.5"/>
<text text-anchor="middle" x="48.5" y="-7.5" font-family="Helvetica,sans-Serif" font-size="10.00">cstdint</text>
</g>
<!-- Node2&#45;&gt;Node3 -->
<g id="edge2" class="edge"><title>Node2&#45;&gt;Node3</title>
<path fill="none" stroke="midnightblue" d="M73.5461,-56.083C69.3959,-48.6127 63.3469,-37.7244 58.2333,-28.5199"/>
<polygon fill="midnightblue" stroke="midnightblue" points="61.2777,-26.7929 53.3617,-19.7511 55.1586,-30.1924 61.2777,-26.7929"/>
</g>
<!-- Node4 -->
<g id="node4" class="node"><title>Node4</title>
<polygon fill="white" stroke="#bfbfbf" points="89,-0.5 89,-19.5 130,-19.5 130,-0.5 89,-0.5"/>
<text text-anchor="middle" x="109.5" y="-7.5" font-family="Helvetica,sans-Serif" font-size="10.00">string</text>
</g>
<!-- Node2&#45;&gt;Node4 -->
<g id="edge3" class="edge"><title>Node2&#45;&gt;Node4</title>
<path fill="none" stroke="midnightblue" d="M83.619,-56.083C87.9075,-48.6127 94.1582,-37.7244 99.4423,-28.5199"/>
<polygon fill="midnightblue" stroke="midnightblue" points="102.533,-30.1662 104.476,-19.7511 96.4621,-26.6811 102.533,-30.1662"/>
</g>
</g>
</svg>
