<?xml version="1.0" encoding="UTF-8" standalone="no"?>
<!DOCTYPE svg PUBLIC "-//W3C//DTD SVG 1.1//EN"
 "http://www.w3.org/Graphics/SVG/1.1/DTD/svg11.dtd">
<!-- Generated by graphviz version 2.38.0 (20140413.2041)
 -->
<!-- Title: /Users/rakesh/svn/customer/qsense/desktop/src/api/UUID.h Pages: 1 -->
<svg width="165pt" height="195pt"
 viewBox="0.00 0.00 165.00 195.00" xmlns="http://www.w3.org/2000/svg" xmlns:xlink="http://www.w3.org/1999/xlink">
<g id="graph0" class="graph" transform="scale(1 1) rotate(0) translate(4 191)">
<title>/Users/rakesh/svn/customer/qsense/desktop/src/api/UUID.h</title>
<polygon fill="white" stroke="none" points="-4,4 -4,-191 161,-191 161,4 -4,4"/>
<!-- Node1 -->
<g id="node1" class="node"><title>Node1</title>
<polygon fill="#bfbfbf" stroke="black" points="0,-156.5 0,-186.5 157,-186.5 157,-156.5 0,-156.5"/>
<text text-anchor="start" x="8" y="-174.5" font-family="Helvetica,sans-Serif" font-size="10.00">/Users/rakesh/svn/customer</text>
<text text-anchor="middle" x="78.5" y="-163.5" font-family="Helvetica,sans-Serif" font-size="10.00">/qsense/desktop/src/api/UUID.h</text>
</g>
<!-- Node2 -->
<g id="node2" class="node"><title>Node2</title>
<g id="a_node2"><a xlink:href="_event_8h.xhtml" target="_top" xlink:title="/Users/rakesh/svn/customer\l/qsense/desktop/src/api\l/Event.h">
<polygon fill="white" stroke="black" points="8.5,-78.5 8.5,-119.5 148.5,-119.5 148.5,-78.5 8.5,-78.5"/>
<text text-anchor="start" x="16.5" y="-107.5" font-family="Helvetica,sans-Serif" font-size="10.00">/Users/rakesh/svn/customer</text>
<text text-anchor="start" x="16.5" y="-96.5" font-family="Helvetica,sans-Serif" font-size="10.00">/qsense/desktop/src/api</text>
<text text-anchor="middle" x="78.5" y="-85.5" font-family="Helvetica,sans-Serif" font-size="10.00">/Event.h</text>
</a>
</g>
</g>
<!-- Node1&#45;&gt;Node2 -->
<g id="edge1" class="edge"><title>Node1&#45;&gt;Node2</title>
<path fill="none" stroke="midnightblue" d="M78.5,-145.982C78.5,-137.347 78.5,-127.762 78.5,-119.588"/>
<polygon fill="midnightblue" stroke="midnightblue" points="75.0001,-146.233 78.5,-156.233 82.0001,-146.233 75.0001,-146.233"/>
</g>
<!-- Node3 -->
<g id="node3" class="node"><title>Node3</title>
<g id="a_node3"><a xlink:href="_sidecar_client_8h.xhtml" target="_top" xlink:title="/Users/rakesh/svn/customer\l/qsense/desktop/src/api\l/net/SidecarClient.h">
<polygon fill="white" stroke="black" points="8.5,-0.5 8.5,-41.5 148.5,-41.5 148.5,-0.5 8.5,-0.5"/>
<text text-anchor="start" x="16.5" y="-29.5" font-family="Helvetica,sans-Serif" font-size="10.00">/Users/rakesh/svn/customer</text>
<text text-anchor="start" x="16.5" y="-18.5" font-family="Helvetica,sans-Serif" font-size="10.00">/qsense/desktop/src/api</text>
<text text-anchor="middle" x="78.5" y="-7.5" font-family="Helvetica,sans-Serif" font-size="10.00">/net/SidecarClient.h</text>
</a>
</g>
</g>
<!-- Node2&#45;&gt;Node3 -->
<g id="edge2" class="edge"><title>Node2&#45;&gt;Node3</title>
<path fill="none" stroke="midnightblue" d="M78.5,-68.2965C78.5,-59.3009 78.5,-49.6532 78.5,-41.5056"/>
<polygon fill="midnightblue" stroke="midnightblue" points="75.0001,-68.4281 78.5,-78.4281 82.0001,-68.4281 75.0001,-68.4281"/>
</g>
</g>
</svg>
